# Blender 5.0.0
# www.blender.org
mtllib tree.mtl
o 26e72b74f5a97b0edf8d6f980e9d8863_upscayl_1x_realesrgan-x4pl
v 0.000000 -7.463655 -5.597741
v -0.000000 -7.463655 5.597741
v 0.000000 7.463655 -5.597741
v -0.000000 7.463655 5.597741
v -5.597741 -7.463654 -0.000000
v 5.597741 -7.463655 -0.000001
v -5.597741 7.463655 0.000001
v 5.597741 7.463654 0.000000
v 3.958200 -7.463655 -3.958200
v -3.958200 -7.463655 3.958201
v 3.958200 7.463655 -3.958201
v -3.958200 7.463655 3.958200
v -3.958201 -7.463655 -3.958200
v 3.958201 -7.463655 3.958200
v -3.958201 7.463655 -3.958200
v 3.958201 7.463655 3.958200
vn -1.0000 -0.0000 -0.0000
vn -0.0000 -0.0000 1.0000
vn -0.7071 -0.0000 -0.7071
vn -0.7071 -0.0000 0.7071
vt 0.000000 0.000000
vt 1.000000 0.000000
vt 1.000000 1.000000
vt 0.000000 1.000000
s 0
usemtl 26e72b74f5a97b0edf8d6f980e9d8863_upscayl_1x_realesrgan-x4plus
f 1/1/1 2/2/1 4/3/1
f 1/1/1 4/3/1 3/4/1
f 5/1/2 6/2/2 8/3/2
f 5/1/2 8/3/2 7/4/2
f 9/1/3 10/2/3 12/3/3
f 9/1/3 12/3/3 11/4/3
f 13/1/4 14/2/4 16/3/4
f 13/1/4 16/3/4 15/4/4
