# Blender 5.0.1
# www.blender.org
mtllib Tree3.mtl
o Tree-1
v 0.001203 0.525971 -0.011429
v 0.008679 0.000284 -0.011356
v -0.003830 0.525803 -0.012614
v -0.003076 0.000353 -0.012288
v -0.007895 0.526109 -0.009292
v -0.012552 0.000205 -0.005723
v -0.007857 0.526655 -0.004012
v -0.009697 -0.000101 0.004920
v -0.003608 0.527023 -0.000823
v -0.002702 -0.000354 0.013081
v 0.001384 0.526917 -0.002297
v 0.008449 -0.000313 0.010149
v 0.003644 0.526461 -0.006910
v 0.012742 -0.000039 -0.000266
v -0.004553 0.660915 -0.029082
v -0.009309 0.660901 -0.029971
v -0.012920 0.660711 -0.026876
v -0.012823 0.660487 -0.022157
v -0.009081 0.660392 -0.019219
v -0.004537 0.660508 -0.020501
v -0.002508 0.660733 -0.024730
v -0.008606 0.820117 -0.017760
v -0.012711 0.819701 -0.018600
v -0.016098 0.819798 -0.015967
v -0.015905 0.820376 -0.011711
v -0.012564 0.820964 -0.009136
v -0.008394 0.821139 -0.010157
v -0.006612 0.820755 -0.014059
v -0.014494 0.947854 -0.030902
v -0.018279 0.947693 -0.031649
v -0.021246 0.947514 -0.029202
v -0.021224 0.947448 -0.025319
v -0.018100 0.947552 -0.023039
v -0.014392 0.947739 -0.023960
v -0.012618 0.947881 -0.027442
v -0.017722 0.982868 -0.028047
v -0.021371 0.982482 -0.028637
v -0.024134 0.981840 -0.026374
v -0.024127 0.981369 -0.022718
v -0.021152 0.981462 -0.020525
v -0.017654 0.982018 -0.021398
v -0.016087 0.982638 -0.024667
v -0.042600 1.281826 0.001541
v -0.045256 1.281888 0.001116
v -0.047217 1.281796 0.002823
v -0.047245 1.281619 0.005428
v -0.045149 1.281482 0.007063
v -0.042529 1.281491 0.006442
v -0.041436 1.281645 0.003985
v -0.039075 1.352295 0.008207
v -0.041320 1.352670 0.007668
v -0.043163 1.352716 0.009186
v -0.043096 1.352391 0.011537
v -0.041261 1.351951 0.012963
v -0.038980 1.351724 0.012364
v -0.037961 1.351873 0.010223
v -0.033022 1.384237 0.013586
v -0.035093 1.384913 0.013268
v -0.036777 1.385092 0.014661
v -0.036817 1.384616 0.016829
v -0.035150 1.383849 0.018077
v -0.033047 1.383359 0.017522
v -0.032168 1.383557 0.015500
v -0.016348 1.441100 0.026344
v -0.018269 1.441592 0.025810
v -0.019855 1.441837 0.027170
v -0.019743 1.441629 0.029204
v -0.018233 1.441166 0.030467
v -0.016247 1.440747 0.030015
v -0.015468 1.440739 0.028104
v -0.003825 1.507916 0.027007
v -0.005568 1.508163 0.026637
v -0.006964 1.508382 0.027774
v -0.006879 1.508397 0.029576
v -0.005478 1.508210 0.030661
v -0.003764 1.507955 0.030235
v -0.003038 1.507825 0.028611
v 0.003072 1.601582 0.024117
v 0.001581 1.601647 0.023785
v 0.000465 1.601748 0.024796
v 0.000493 1.601807 0.026275
v 0.001666 1.601783 0.027197
v 0.003128 1.601691 0.026844
v 0.003765 1.601601 0.025470
v -0.018058 1.563913 0.040369
v 0.017773 1.629333 0.012522
v -0.045381 1.673642 0.033468
v -0.078872 1.608483 0.070370
v 0.035779 1.565395 0.055376
v 0.057181 1.686957 -0.028101
v -0.025397 1.630527 0.000726
v 0.118319 1.631850 0.041451
v -0.031510 1.556668 0.012382
v -0.032651 1.651961 0.090833
v 0.026730 1.617727 0.035995
v -0.091462 1.587113 0.067760
v -0.007348 1.563613 -0.019361
v 0.008547 1.612034 0.063023
v 0.094617 1.642125 0.031033
v 0.062848 1.626330 -0.061547
v 0.021502 1.614447 0.013032
v -0.019721 1.546974 0.037043
v -0.025164 1.576775 0.113229
v 0.013017 1.648604 0.087931
v -0.009951 1.514060 0.058389
v 0.043541 1.659722 0.093100
v 0.007252 1.608257 0.000868
v -0.023280 1.589002 0.152592
v -0.040340 1.543155 0.037852
v 0.031172 1.587057 0.017732
v 0.001405 1.601979 -0.061145
v -0.077029 1.567476 -0.037733
v 0.006914 1.616020 0.037342
v -0.010441 1.505302 0.021517
v 0.054999 1.483028 0.110265
v 0.072853 1.597503 0.125836
v -0.020895 1.592915 -0.002167
v 0.012443 1.499708 0.053509
v 0.111750 1.561084 0.070693
v 0.080198 1.630584 -0.019878
v -0.000630 1.603736 0.026481
v -0.099410 1.504808 0.094699
v -0.004493 1.491342 0.026766
v -0.105598 1.615787 0.057984
v -0.005174 1.573108 0.053157
v 0.058786 1.533797 -0.048580
v -0.002132 1.495930 0.007126
v 0.059733 1.610113 0.004628
v 0.028360 1.583784 0.022017
v -0.029638 1.486545 0.031992
v -0.108486 1.536545 0.094650
v -0.068703 1.640117 0.058864
v 0.038909 1.544793 0.066205
v 0.004378 1.568889 -0.086596
v -0.037128 1.494444 -0.002207
v 0.099924 1.586478 -0.018453
v 0.044750 1.530053 0.039706
v -0.044688 1.507721 0.018728
v -0.073439 1.532642 0.103751
v 0.012268 1.575614 0.118948
v 0.000697 1.562929 0.046080
v -0.093877 1.493894 -0.054079
v -0.009204 1.457596 0.013588
v -0.061443 1.602249 -0.032894
v -0.028536 1.449419 0.059109
v 0.047855 1.597529 0.111955
v 0.010528 1.552762 0.004784
v -0.008896 1.501162 0.171402
v 0.025591 1.531583 -0.015452
v -0.142045 1.492639 0.012929
v -0.035840 1.462209 0.065345
v -0.081449 1.574982 -0.061768
v 0.019929 1.544738 0.004108
v -0.030100 1.451223 0.047815
v 0.049567 1.452779 0.133106
v 0.106795 1.540619 0.077201
v -0.036996 1.438318 0.003421
v -0.075161 1.577725 0.031727
v 0.012161 1.519274 0.048518
v -0.127407 1.488996 -0.002854
v 0.017974 1.418800 0.036234
v -0.032964 1.531727 0.022706
v 0.077094 1.579956 -0.008890
v 0.106704 1.465477 -0.055432
v 0.024136 1.525500 0.051862
v -0.040967 1.424132 0.010232
v -0.131860 1.444046 0.096849
v -0.102465 1.570371 0.089165
v 0.001406 1.515765 0.065549
v 0.057671 1.460720 -0.067187
v -0.023403 1.434764 -0.001867
v 0.044833 1.564647 -0.032427
v -0.028945 1.388107 0.051103
v -0.061746 1.550323 0.130481
v 0.000814 1.511136 0.010205
v -0.039124 1.421608 0.176964
v -0.042144 1.408937 -0.013543
v 0.010897 1.497415 0.061849
v 0.014746 1.580112 -0.036968
v -0.049791 1.493374 -0.112238
v -0.056476 1.414305 0.074752
v 0.100080 1.498131 0.076388
v 0.013767 1.474461 -0.008817
v 0.009189 1.485926 0.164879
v -0.071124 1.408324 0.011345
v 0.028418 1.477694 0.041188
v -0.000768 1.559912 -0.048107
v -0.110050 1.495696 -0.070966
v -0.002765 1.495568 0.030692
v -0.034194 1.384239 0.023959
v 0.056807 1.351081 0.084535
v 0.064264 1.461352 0.127328
v -0.087402 1.427333 0.062213
v 0.035705 1.443815 -0.000794
v -0.020925 1.532007 -0.090537
v -0.145708 1.523121 -0.020000
v -0.044816 1.480067 0.047055
v 0.096620 1.424847 -0.031235
v -0.005800 1.373274 0.007819
v 0.053067 1.536117 0.002356
v -0.081057 1.374007 -0.004047
v -0.082323 1.547747 0.099202
v 0.023739 1.457049 0.049150
v -0.184577 1.445299 0.062606
v -0.029939 1.393392 -0.044263
v -0.023439 1.428910 0.075312
v 0.091165 1.472596 0.059561
v 0.060619 1.491899 -0.062605
v -0.005125 1.486620 0.012140
v -0.045805 1.351568 0.025772
v -0.166568 1.390427 0.085294
v -0.142626 1.526773 0.040598
v -0.029927 1.338116 -0.021718
v -0.032451 1.452797 0.051644
v -0.012473 1.526417 -0.059984
v -0.023060 1.410484 -0.138225
v -0.054175 1.308904 0.018166
v 0.025066 1.450677 0.158188
v -0.017517 1.454781 0.015888
v -0.078999 1.339870 0.177154
v -0.035818 1.406778 0.085102
v -0.037126 1.350640 -0.040332
v -0.149958 1.437786 -0.065409
v -0.164197 1.451874 0.076132
v 0.009389 1.342544 -0.022426
v -0.073392 1.402504 0.044757
v 0.013001 1.434491 0.125376
v 0.101435 1.388302 0.048515
v -0.093294 1.343299 -0.043617
v -0.105731 1.468036 0.121458
v 0.006746 1.383779 0.058846
v -0.207848 1.390664 0.035021
v -0.005663 1.296286 -0.011918
v -0.064811 1.421200 0.031658
v 0.049554 1.495371 -0.012935
v 0.089963 1.378544 -0.095337
v -0.014215 1.423131 0.018522
v -0.060490 1.298619 0.005674
v -0.180241 1.339365 0.051394
v -0.131609 1.467771 0.063879
v -0.025713 1.419992 0.021687
v 0.018095 1.297709 -0.103919
v -0.053870 1.297964 0.000128
v 0.030853 1.427512 -0.094887
v -0.089005 1.298917 0.041180
v -0.040743 1.470396 0.066069
v -0.000236 1.373145 -0.015085
v -0.111903 1.380366 0.134667
v -0.044001 1.405999 0.042541
v -0.065123 1.346103 -0.135357
v -0.034871 1.287640 -0.017436
v -0.075287 1.467749 -0.072286
v -0.099685 1.270373 0.044066
v 0.047897 1.418135 0.132376
v 0.006119 1.373319 -0.021466
v -0.042490 1.290627 0.192377
v -0.011748 1.397235 0.029964
v -0.099171 1.324417 -0.132122
v -0.070387 1.277118 -0.007907
v -0.089352 1.455840 -0.079216
v -0.030317 1.387747 0.047615
v -0.052486 1.260666 -0.025721
v -0.163759 1.330964 -0.100315
v -0.151404 1.450090 -0.003610
v -0.047057 1.228913 -0.058441
v -0.043705 1.346937 0.053697
v 0.067291 1.426368 -0.031674
v 0.056884 1.310346 -0.152613
v 0.006983 1.354191 0.042374
v -0.085052 1.247094 -0.025265
v -0.201182 1.279525 0.072863
v -0.134417 1.423142 0.096722
v -0.079194 1.229351 -0.056526
v -0.015243 1.323520 0.053144
v 0.034749 1.423778 -0.057386
v -0.089159 1.374365 -0.147974
v -0.077028 1.204336 0.015192
v -0.103005 1.393812 0.113390
v -0.019226 1.344454 -0.005366
v -0.156504 1.246682 0.136285
v 0.000867 1.342809 0.011518
v -0.154107 1.267325 -0.128694
v -0.079210 1.208832 -0.004312
v -0.080115 1.409428 -0.105991
v 0.022871 1.308099 -0.047632
v -0.095263 1.235100 0.043727
v -0.042531 1.327197 0.176271
v 0.087943 1.387066 0.081054
v -0.072653 1.196837 -0.046599
v -0.098372 1.407248 -0.044714
v -0.020819 1.305895 0.044142
v -0.165814 1.287029 -0.119392
v -0.072527 1.331118 0.036218
v 0.128652 1.252096 0.001618
v -0.017190 1.200126 -0.028977
v 0.066558 1.376342 0.084929
v -0.034121 1.323530 0.042344
v -0.048151 1.186814 -0.037660
v -0.203022 1.200440 -0.043783
v -0.188622 1.356445 0.001678
v -0.022497 1.281035 0.088285
v 0.087729 1.304690 -0.127643
v -0.056396 1.215475 -0.069480
v 0.133051 1.338460 0.044074
v -0.015831 1.312575 0.038743
v -0.058956 1.166837 -0.029736
v -0.220267 1.201240 0.017710
v -0.161896 1.334170 0.111724
v 0.010731 1.290785 0.052583
v 0.022235 1.208078 -0.170226
v -0.083407 1.192177 -0.044109
v 0.097000 1.339157 -0.088526
v 0.023984 1.274627 -0.015177
v -0.092258 1.178320 0.008308
v -0.105346 1.225861 0.152497
v -0.053738 1.363883 0.102078
v 0.005732 1.285955 0.047586
v -0.022354 1.236697 -0.184192
v -0.075948 1.170165 -0.041343
v 0.007914 1.382933 -0.100195
v 0.013091 1.135463 -0.001663
v -0.078624 1.272690 -0.004775
v 0.025291 1.335460 0.110506
v 0.097576 1.181118 0.127449
v -0.074937 1.297189 0.030022
v -0.004523 1.139529 -0.031263
v -0.038750 1.188771 -0.201987
v -0.099157 1.357009 -0.141013
v 0.010281 1.127728 -0.016309
v -0.076634 1.257383 0.005891
v 0.062319 1.337677 0.020060
v 0.141959 1.194777 0.026273
v -0.059054 1.259671 0.063270
v -0.021168 1.148896 -0.057712
v -0.136966 1.221097 -0.157772
v -0.175415 1.333955 -0.030988
v 0.007806 1.158488 -0.081264
v -0.074547 1.213259 0.052895
v 0.059130 1.288815 0.110619
v 0.120187 1.289400 -0.048501
v -0.066397 1.125885 -0.067835
v -0.169582 1.289241 0.061915
v -0.013436 1.237703 0.042159
v -0.223537 1.168163 -0.046232
v -0.095954 1.106213 -0.061797
v -0.146596 1.297029 0.120865
v 0.014773 1.221551 0.041787
v -0.254966 1.164041 0.023353
v 0.027149 1.239643 0.030533
v -0.119169 1.222968 -0.190647
v -0.078568 1.097113 -0.039182
v 0.038169 1.330112 -0.134725
v -0.078114 1.065419 0.012551
v -0.102666 1.314610 0.127665
v 0.002049 1.239914 -0.022595
v -0.174905 1.130494 0.168328
v -0.083707 1.200128 0.052380
v 0.003268 1.105798 -0.055724
v -0.085856 1.187635 -0.182096
v -0.194834 1.248587 -0.060368
v 0.010843 1.067935 -0.000248
v -0.067317 1.215932 -0.016937
v -0.016332 1.263501 0.135259
v 0.117119 1.157127 0.115287
v -0.042739 1.239282 -0.010962
v 0.151760 1.075430 0.043235
v -0.022978 1.055633 -0.011636
v 0.129891 1.264982 0.044149
v 0.009300 1.186026 0.065400
v -0.064511 1.080895 -0.076990
v -0.240222 1.134136 -0.033510
v -0.161749 1.297717 0.039441
v 0.007477 1.026666 0.003946
v -0.063656 1.205681 -0.020662
v 0.114467 1.274656 -0.055752
v 0.161511 1.094352 -0.123362
v -0.099694 1.047248 -0.034436
v -0.097075 1.251646 0.105671
v 0.026090 1.163447 0.007660
v -0.214635 1.114320 0.078819
v -0.011149 1.167101 0.071309
v 0.068733 1.183522 -0.170666
v -0.046632 1.071271 -0.079108
v 0.120020 1.262256 -0.007412
v -0.065628 1.201329 -0.010884
v 0.012841 1.017434 0.174862
v 0.001577 1.021248 -0.014705
v -0.025997 1.211278 0.179929
v -0.107541 1.158387 0.019713
v 0.033295 1.056633 -0.039680
v 0.021169 1.134438 -0.205560
v -0.114050 1.250327 -0.141452
v 0.053483 1.009883 -0.021505
v -0.092708 1.158131 -0.011829
v 0.010157 1.255466 0.138448
v 0.178861 1.128002 0.103714
v -0.076603 1.124844 0.057929
v 0.165910 1.047519 0.019503
v 0.010906 1.037803 -0.074377
v 0.099218 1.200682 0.098697
v -0.061433 0.965860 -0.023302
v -0.150701 1.225588 -0.145573
v -0.003383 1.167661 -0.005803
v -0.170661 1.019075 -0.206925
v -0.021817 1.142935 0.050240
v 0.143183 1.027962 -0.120248
v -0.030973 1.002089 -0.068792
v 0.132627 1.204157 -0.052587
v -0.102688 0.977860 -0.031546
v -0.150589 1.262192 -0.019700
v 0.033922 1.137658 -0.004271
v -0.265940 1.081481 0.035533
v 0.019286 1.155452 0.006236
v -0.067079 0.977196 -0.042239
v -0.230403 1.022007 0.066092
v -0.159788 1.218080 0.089153
v -0.118008 1.095032 0.015704
v 0.046176 0.995792 -0.046299
v 0.011732 1.063195 -0.237480
v -0.161777 1.158529 -0.172429
v 0.077544 0.999518 0.014612
v -0.110518 1.067080 -0.046240
v -0.135548 1.149586 0.151104
v 0.045290 1.048161 0.213774
v -0.083099 1.062047 0.073153
v 0.024033 1.008523 -0.095240
v -0.101351 1.126356 -0.210867
v -0.212403 1.179549 -0.036545
v -0.092834 1.131760 -0.027054
v 0.128975 1.020401 0.168036
v 0.035913 0.951745 -0.017809
v 0.072677 1.231219 0.107817
v -0.012899 0.980116 -0.123346
v -0.219056 1.092114 0.034637
v -0.029754 1.058068 0.058226
v -0.180745 1.104502 -0.163351
v -0.020404 1.131981 0.003055
v 0.195124 0.947663 -0.066821
v -0.026116 0.923247 -0.037996
v 0.181071 1.133366 0.053909
v -0.073005 1.058525 0.074245
v 0.208355 1.058105 -0.058911
v 0.016747 0.970533 -0.104364
v 0.098013 1.215996 0.053362
v -0.073205 0.892618 -0.051300
v -0.099540 1.095716 0.170283
v 0.023740 1.073019 0.000781
v -0.240895 0.958246 0.080849
v -0.029640 0.957164 -0.130453
v -0.016377 1.033310 0.060667
v 0.180010 1.078859 0.035414
v 0.149987 1.068203 -0.173280
v 0.064051 0.940564 -0.101472
v -0.162359 1.155362 -0.113128
v -0.089394 1.014388 0.037378
v 0.013445 1.103447 -0.245662
v -0.063685 1.078432 0.018684
v 0.191503 0.899205 0.087312
v 0.019601 0.882912 -0.063042
v 0.091497 1.091310 0.180154
v -0.081097 1.037102 0.042239
v 0.026725 0.911231 -0.079453
v -0.029486 1.051210 -0.236129
v -0.186564 1.119230 -0.106800
v -0.081013 1.052008 -0.039409
v 0.200573 0.997140 0.019034
v 0.031614 0.880541 -0.013519
v 0.084772 1.173401 -0.014471
v -0.019130 0.865845 -0.106452
v -0.201096 1.109994 -0.062327
v -0.017275 1.031464 0.037922
v -0.213651 0.918933 -0.185601
v -0.030631 1.010442 0.072520
v 0.184738 0.987177 -0.143912
v -0.005263 0.892912 -0.105872
v 0.147271 1.128554 0.022529
v -0.064186 0.840328 -0.052317
v -0.166600 1.110418 -0.101550
v 0.020691 1.030789 -0.005301
v -0.260820 0.912790 -0.060300
v -0.085131 1.021243 -0.068261
v 0.043087 0.868646 0.013796
v 0.192757 0.905805 -0.130129
v 0.104247 1.105411 -0.159650
v 0.068730 1.019785 0.010465
v -0.085198 0.865711 -0.054847
v -0.233445 0.942435 0.098793
v -0.111548 1.140743 0.110974
v 0.023586 0.813584 -0.068702
v 0.023726 1.112171 -0.174229
v -0.054137 1.007273 0.009517
v 0.111415 0.913479 -0.250241
v 0.045657 0.906701 0.081081
v -0.066809 0.928960 -0.109868
v -0.247362 0.997794 0.000413
v -0.105290 1.084825 0.154466
v -0.046803 1.013392 0.058177
v 0.011629 0.830490 -0.091147
v -0.095754 0.964205 -0.272275
v -0.199377 1.112850 -0.096390
v -0.120039 0.969608 -0.050184
v 0.064745 0.941063 0.204737
v 0.071763 0.867676 -0.003707
v -0.053150 1.117912 0.125873
v -0.006578 0.813093 -0.106995
v -0.205516 1.037828 -0.055247
v -0.023002 0.962778 0.049692
v -0.199517 0.856539 -0.189245
v -0.073012 1.006677 0.031053
v 0.243475 0.873006 0.034753
v 0.029810 0.808890 -0.061308
v 0.145687 1.089620 0.107838
v -0.072406 1.000419 -0.075618
v 0.033463 0.800738 0.031201
v 0.257192 0.897100 0.000774
v 0.150203 1.117337 -0.078035
v -0.058580 0.971802 -0.103485
v -0.165801 0.830696 0.197808
v 0.024782 0.799665 0.050315
v -0.166631 1.068671 0.121490
v -0.140422 0.920908 -0.046919
v 0.088381 0.836620 0.002659
v 0.177380 0.951550 -0.199619
v -0.007955 1.122470 -0.168725
v -0.021588 0.740256 0.049974
v -0.003854 0.962557 -0.073171
v 0.034296 1.078658 0.150740
v 0.004584 0.847906 0.274564
v -0.114579 0.935994 -0.005919
v 0.074453 0.811180 -0.025865
v 0.086594 0.853513 -0.246226
v -0.023463 1.052479 -0.200638
v 0.083979 0.756196 0.015078
v -0.085036 0.930972 -0.046338
v -0.067448 1.036398 0.177001
v 0.173218 0.950665 0.181883
v -0.108107 0.939912 -0.000227
v 0.065705 0.779734 -0.031278
v 0.055147 0.818374 -0.267003
v -0.129536 0.977845 -0.232314
v 0.055228 0.736941 0.017365
v 0.066568 1.052154 0.095337
v -0.066934 0.922796 -0.043328
v 0.194700 0.859043 0.151193
v -0.009831 0.974784 -0.038832
v -0.259075 0.729885 -0.056398
v -0.015792 0.729407 0.004668
v -0.242761 0.980189 -0.116694
v -0.065810 0.922173 -0.095700
v 0.031790 0.752881 0.054340
v 0.256502 0.836496 0.013307
v 0.156188 1.047515 -0.082989
v -0.010548 0.687389 0.009856
v -0.010016 0.939179 -0.026531
v -0.226818 0.962648 0.096914
v -0.210696 0.711914 0.170002
v 0.100463 0.729393 -0.019178
v 0.058230 1.071045 -0.102034
v -0.099457 0.888227 -0.006408
v 0.238869 0.883800 -0.154851
v -0.072417 0.939111 -0.054868
v -0.104409 0.716248 0.241562
v 0.039382 0.711973 0.020040
v -0.219152 0.950648 0.162310
v -0.076398 0.918508 -0.014698
v 0.048517 0.714342 -0.014520
v 0.107434 0.746528 -0.241805
v 0.001565 0.969059 -0.237395
v -0.099391 0.858572 -0.093768
v 0.001051 0.903296 0.224943
v 0.060200 0.754188 0.048412
v -0.155967 1.018295 0.075455
v 0.040955 0.672798 -0.078011
v -0.172531 0.955600 -0.181837
v -0.045911 0.890954 0.031547
v -0.008022 0.797393 -0.316676
v -0.067752 0.911472 -0.047542
v 0.072084 0.767487 0.240474
v 0.042622 0.698015 0.007418
v 0.069152 1.005237 0.157503
v 0.019034 0.879642 -0.110766
v -0.032443 0.687011 0.052506
v 0.186668 0.758466 0.186403
v 0.249638 0.924895 -0.013386
v 0.001563 0.868964 -0.122352
v -0.282921 0.715503 0.078485
v -0.020350 0.686351 0.072525
v -0.260053 0.936651 -0.084097
v 0.097664 0.683962 0.009219
v 0.051959 1.014541 -0.120355
v -0.097985 0.833388 -0.039536
v 0.232908 0.917902 0.032852
v -0.031964 0.869346 -0.102581
v -0.100164 0.809960 0.246251
v 0.011919 0.665088 0.053259
v -0.191549 0.982761 0.058962
v 0.080608 0.641372 -0.001581
v 0.102006 0.981148 -0.166447
v -0.085399 0.845715 -0.035174
v 0.287432 0.795071 -0.091955
v 0.045977 0.602597 -0.034883
v 0.062190 0.919395 -0.245282
v -0.055401 0.852337 -0.006812
v 0.143772 0.652982 -0.278580
v 0.043575 0.615983 0.061792
v -0.052435 0.823660 -0.086062
v 0.102262 0.993164 0.069257
v 0.164973 0.777038 0.239652
v -0.028688 0.845432 0.073331
v 0.008330 0.638360 -0.095862
v -0.075039 0.785498 -0.303893
v -0.024500 1.013224 -0.155235
v -0.121614 0.796776 0.036274
v 0.249258 0.774351 0.109062
v 0.080643 0.653176 -0.065374
v 0.035554 0.912712 0.218745
v -0.058697 0.584012 -0.068139
v -0.169268 0.950151 -0.110623
v 0.034534 0.825974 0.009803
v -0.236535 0.711812 -0.237389
v -0.114493 0.605460 -0.053317
v -0.107876 0.966522 0.073660
v 0.076582 0.785328 0.003875
v -0.296076 0.820800 -0.064857
v -0.020656 0.817147 0.050107
v 0.119445 0.720647 -0.276595
v 0.000242 0.593287 -0.081817
v 0.096206 0.951446 -0.139962
v -0.118681 0.590334 -0.037425
v -0.087748 0.951127 0.113814
v 0.076617 0.783948 -0.018092
v -0.306335 0.797158 0.023252
v 0.106816 0.747185 0.060648
v -0.031549 0.777700 -0.318581
v -0.101909 0.627630 -0.091081
v 0.140954 0.944535 -0.151893
v -0.019791 0.828383 -0.034049
v 0.010757 0.566655 -0.012096
v -0.150031 0.590453 0.214723
v -0.088961 0.858668 0.217410
v 0.049108 0.565200 -0.107341
v -0.229335 0.811662 -0.142983
v -0.052762 0.755218 0.042700
v -0.045910 0.730755 -0.320649
v 0.092422 0.558426 -0.003247
v -0.091347 0.757215 -0.040032
v 0.033797 0.885220 0.179516
v 0.159433 0.638580 0.243412
v -0.013954 0.810679 -0.045039
v -0.003237 0.535787 -0.007323
v -0.166386 0.498033 -0.228510
v -0.163773 0.780154 -0.278070
v -0.118435 0.750444 0.009143
v 0.254586 0.726827 0.085501
v 0.083390 0.588325 -0.058583
v 0.091441 0.942278 0.047461
v -0.075235 0.524156 -0.086700
v -0.195805 0.861434 0.069257
v 0.048504 0.737876 0.034305
v -0.321301 0.652759 -0.076173
v 0.017868 0.508798 -0.111263
v -0.026273 0.750497 0.055434
v 0.240212 0.857426 -0.024337
v 0.272655 0.626427 -0.222361
v -0.043256 0.491802 0.008882
v -0.235140 0.823271 -0.006082
v 0.021256 0.748355 -0.048424
v -0.305662 0.557107 0.039953
v -0.009935 0.534746 -0.141329
v -0.009217 0.719240 0.072818
v 0.148128 0.896234 -0.072949
v 0.115621 0.728600 -0.308383
v -0.103434 0.527450 0.072377
v 0.092908 0.882120 0.141336
v 0.069944 0.698698 -0.093541
v -0.050894 0.675134 0.314361
v -0.043948 0.757757 -0.051599
v 0.214990 0.620326 0.203173
v 0.030367 0.488815 0.008039
v 0.033122 0.855472 0.199362
v 0.068038 0.533973 -0.140390
v -0.280390 0.761505 -0.097794
v -0.066006 0.672453 0.081423
v -0.076749 0.758462 -0.317578
v 0.103767 0.522829 -0.114276
v -0.095122 0.655472 0.064957
v 0.123124 0.735677 0.253894
v 0.333327 0.642390 0.049683
v 0.005468 0.733577 0.069067
v -0.015326 0.485331 -0.082723
v -0.239066 0.612412 -0.234968
v -0.240122 0.840811 -0.036554
v -0.018743 0.653598 -0.162892
v 0.006831 0.528390 0.102432
v 0.300480 0.568294 0.095039
v 0.255239 0.796903 -0.096116
v 0.009434 0.745325 -0.065394
v -0.261838 0.558015 0.193224
v -0.015882 0.458900 0.028985
v -0.265698 0.819535 0.018703
v 0.143624 0.515582 0.023353
v -0.035332 0.689848 -0.313106
v -0.123341 0.621586 -0.041146
v 0.244575 0.709594 -0.204354
v -0.062449 0.705978 -0.092446
v -0.102842 0.545091 0.295629
v 0.044295 0.470099 0.051707
v -0.154658 0.820227 0.176241
v -0.109635 0.669657 0.039346
v 0.083361 0.478755 -0.052632
v 0.115484 0.626509 -0.294382
v -0.072258 0.831452 -0.193253
v -0.125991 0.672967 -0.042713
v 0.106614 0.555720 0.299830
v 0.101955 0.481936 0.012645
v -0.066384 0.804509 0.233386
v 0.059382 0.695141 0.005297
v -0.197505 0.513621 -0.256804
v -0.048016 0.430836 -0.025475
v -0.135628 0.795268 -0.194258
v 0.007628 0.670991 -0.115741
v -0.015342 0.453365 0.076856
v 0.098863 0.614042 0.285530
v 0.042504 0.857188 0.121356
v -0.125506 0.436475 0.048219
v 0.097281 0.616864 -0.056792
v -0.103328 0.766345 -0.233894
v -0.328502 0.678851 -0.035749
v 0.089270 0.445747 0.111078
v 0.160198 0.821062 -0.135726
v -0.078261 0.613398 -0.103003
v 0.302878 0.695458 0.131808
v -0.004642 0.671308 -0.079592
v -0.281614 0.446105 0.138876
v -0.000664 0.406279 0.051043
v -0.283259 0.722175 0.009096
v -0.068421 0.647769 -0.115943
v 0.051286 0.429484 0.083972
v 0.347661 0.506063 0.001587
v 0.234390 0.786977 -0.122757
v -0.026528 0.663903 -0.099286
v -0.251271 0.437416 0.229981
v 0.022931 0.398795 0.076073
v -0.214350 0.758770 0.176853
v 0.140321 0.417196 0.010209
v 0.029897 0.750922 -0.255841
v -0.115818 0.596928 -0.018726
v 0.273760 0.535933 -0.244606
v -0.021510 0.390181 0.114297
v 0.005602 0.591274 -0.105481
v 0.030072 0.812375 0.098201
v 0.026773 0.603538 0.325205
v -0.039957 0.665162 0.050861
v 0.029130 0.370760 -0.052888
v 0.137118 0.501109 -0.328205
v 0.037461 0.799307 -0.225093
v -0.008068 0.356400 0.100054
v 0.042010 0.785374 0.148836
v -0.005172 0.599256 -0.089803
v 0.030755 0.535802 0.345804
v 0.065609 0.640115 -0.014192
v -0.265314 0.484432 -0.201369
v -0.061836 0.370005 0.002355
v -0.059421 0.707401 -0.270153
v 0.018809 0.394763 0.150501
v 0.267356 0.695069 -0.075139
v -0.018824 0.543052 -0.133374
v 0.316742 0.494163 0.187795
v 0.025089 0.652247 0.003709
v -0.327868 0.383139 -0.092994
v -0.027886 0.336233 -0.007139
v -0.291191 0.706262 -0.037679
v 0.115409 0.342680 0.019662
v 0.109929 0.738568 -0.176340
v -0.098845 0.560464 -0.031359
v 0.341745 0.569874 -0.039439
v 0.001050 0.554354 -0.158716
v -0.302432 0.519261 0.164823
v -0.004839 0.395363 0.117448
v -0.302953 0.628339 -0.147337
v -0.059769 0.609116 -0.043641
v 0.048295 0.327610 0.030984
v 0.312930 0.381217 -0.112834
v 0.243077 0.691983 -0.113928
v -0.085565 0.578698 -0.087678
v -0.103962 0.420261 0.320407
v 0.059114 0.342234 0.053848
v -0.281809 0.625814 0.146025
v -0.097264 0.586005 0.028087
v 0.072026 0.323294 -0.034345
v 0.214983 0.510824 -0.270229
v -0.042590 0.719268 -0.244970
v -0.032508 0.597652 -0.088984
v -0.050263 0.437163 0.349400
v 0.028549 0.313873 0.062862
v 0.011299 0.741151 0.223241
v -0.109790 0.283774 -0.051985
v 0.094133 0.539355 0.027025
v -0.070226 0.726771 -0.215103
v -0.228053 0.436395 -0.326379
v 0.042227 0.598443 0.007815
v -0.347185 0.350037 -0.121650
v -0.040639 0.270097 -0.011400
v -0.275483 0.688525 -0.072046
v -0.006509 0.598695 -0.044363
v 0.010268 0.269507 0.014955
v 0.190962 0.355214 0.303508
v 0.232484 0.674726 0.171223
v 0.045823 0.230680 0.019388
v 0.272569 0.639770 -0.026117
v -0.039651 0.547518 -0.016274
v 0.360437 0.337211 0.098015
v 0.027773 0.578901 -0.034306
v -0.219439 0.308443 0.296713
v -0.026895 0.239968 0.017318
v -0.122913 0.651977 0.277606
v 0.137169 0.302254 0.060047
v 0.033959 0.515819 -0.332573
v -0.111981 0.469433 -0.055755
v 0.318578 0.477183 -0.173609
v 0.083501 0.524860 -0.078788
v -0.026022 0.389077 0.354655
v -0.061699 0.261161 0.057926
v 0.155995 0.644048 0.221292
v 0.144372 0.266479 -0.058290
v -0.121038 0.630462 -0.266461
v -0.114355 0.477856 0.040396
v 0.203576 0.497086 -0.331640
v 0.117060 0.423175 -0.146117
v -0.099907 0.329128 0.109965
v 0.081337 0.552993 0.316942
v 0.333006 0.581597 0.058061
v -0.141284 0.238964 -0.032142
v 0.111018 0.474534 0.018027
v 0.029144 0.631881 -0.282680
v -0.303120 0.512144 -0.235868
v 0.058539 0.187329 0.045634
v 0.173763 0.619320 0.186202
v -0.046877 0.491158 -0.051581
v 0.324356 0.304983 0.205059
v 0.139655 0.434781 -0.095794
v -0.335575 0.417221 -0.150140
v -0.115976 0.291982 0.069465
v -0.086423 0.617025 -0.282522
v -0.122189 0.469829 -0.089934
v 0.100065 0.252390 0.071764
v 0.365126 0.396018 -0.099001
v 0.136924 0.627027 -0.258311
v -0.003835 0.536148 -0.015033
v -0.294607 0.193156 0.190059
v -0.003603 0.188913 -0.006619
v -0.282196 0.551209 0.200024
v -0.148628 0.434560 -0.083119
v 0.122713 0.265958 0.065433
v 0.330691 0.339244 -0.196850
v 0.104602 0.604564 -0.287845
v -0.026469 0.417840 -0.167448
v -0.224911 0.471059 0.258009
v 0.012538 0.251321 0.122458
v -0.305330 0.572773 -0.066533
v -0.115961 0.481226 -0.032941
v 0.082237 0.184691 0.014431
v 0.303981 0.320680 -0.257511
v 0.028578 0.555840 -0.350607
v -0.001573 0.512928 -0.044254
v 0.065810 0.226893 0.370933
v -0.000297 0.163510 0.028061
v 0.180892 0.561743 0.279330
v -0.130690 0.167975 -0.052949
v 0.103051 0.423676 0.035553
v -0.064225 0.627652 -0.224168
v -0.215175 0.316244 -0.359798
v -0.067653 0.187860 0.129226
v 0.245497 0.568383 0.129655
v 0.057198 0.401271 -0.114470
v 0.107521 0.354591 0.382102
v 0.097384 0.464921 0.017372
v -0.384482 0.338803 -0.059223
v -0.081857 0.161326 -0.018748
v -0.214232 0.648024 0.032477
v 0.012755 0.136059 0.115269
v 0.331307 0.513702 -0.037582
v -0.015231 0.431637 -0.093752
v 0.305812 0.329294 0.283192
v 0.067990 0.375635 -0.153712
v -0.321542 0.442902 0.114013
v -0.060199 0.200447 0.109595
v -0.213471 0.552770 -0.205557
v 0.152919 0.190096 0.086606
v 0.104197 0.583575 -0.243095
v -0.124845 0.367240 -0.068477
v 0.390639 0.430525 -0.055718
v -0.118445 0.387973 -0.123229
v -0.083032 0.299013 0.391507
v 0.091546 0.175473 0.092339
v -0.268833 0.551333 0.177414
v -0.132176 0.353524 -0.121529
v 0.101985 0.195524 0.088555
v 0.364314 0.318485 -0.121780
v 0.115419 0.468016 -0.341789
v -0.057208 0.436599 -0.083160
v 0.029239 0.254662 0.400565
v 0.037293 0.111912 0.060832
v -0.001012 0.601449 0.252909
v 0.186680 0.196554 -0.042821
v -0.166937 0.480202 -0.294697
v -0.150764 0.319392 0.029798
v 0.193634 0.387813 -0.357244
v -0.038753 0.169006 0.167189
v 0.241460 0.535776 -0.004844
v 0.020713 0.318899 -0.138530
v 0.092859 0.475228 0.309916
v 0.005088 0.440453 -0.002409
v -0.144676 0.086163 -0.319872
v -0.017249 0.090969 -0.000407
v -0.223893 0.434366 -0.285161
v 0.103033 0.095427 0.074676
v 0.139066 0.581196 0.070631
v -0.087741 0.353458 -0.058427
v 0.338863 0.310240 0.196019
v -0.039116 0.362237 -0.139501
v 0.027870 0.103235 0.098236
v 0.380993 0.233106 0.096226
v 0.302202 0.407791 -0.222941
v 0.092846 0.317849 -0.161023
v -0.404571 0.287521 0.032431
v -0.075740 0.152698 0.130412
v -0.220871 0.557413 -0.168886
v 0.170329 0.161173 0.075553
v 0.026448 0.423357 -0.323655
v -0.139020 0.255805 -0.064143
v 0.345877 0.349871 -0.167061
v -0.058550 0.357004 -0.131914
v -0.146520 0.263262 0.366179
v 0.052169 0.102119 0.106783
v -0.263575 0.521823 0.115741
v -0.065060 0.395708 0.002992
v -0.066135 0.005281 -0.362660
v 0.053167 0.038043 -0.007244
v -0.222083 0.360401 -0.342248
v -0.141932 0.076758 0.060697
v 0.072929 0.497937 0.233453
v 0.103985 0.305471 -0.056965
v -0.210973 0.291500 0.338006
v -0.022878 0.042432 0.140372
v 0.150467 0.529333 0.154837
v 0.010351 0.309239 -0.114182
v 0.164309 0.228261 0.392086
v 0.109587 0.351428 -0.009139
v -0.397167 0.225127 -0.107059
v -0.086555 0.032599 -0.004608
v -0.192297 0.552993 -0.113107
v -0.154406 0.094373 -0.121749
v -0.129416 0.494566 0.206196
v 0.122609 0.210011 0.101465
v -0.415899 0.276765 0.055986
v 0.093765 0.073382 -0.154251
v -0.076906 0.234173 0.123653
v 0.231384 0.409101 0.213228
v 0.402175 0.261962 -0.086507
v 0.021664 1.598493 0.074336
v 0.014926 1.693208 -0.022854
v -0.017491 1.605914 -0.012252
v 0.020316 1.699088 0.074247
vn 0.6072 -0.0092 -0.7945
vn 0.6052 0.0085 -0.7960
vn -0.2290 -0.0282 -0.9730
vn -0.2565 -0.0010 -0.9665
vn -0.9061 -0.0140 -0.4228
vn -0.9333 0.0058 -0.3590
vn -0.8927 0.0142 0.4504
vn -0.8856 0.0110 0.4643
vn -0.1836 0.0462 0.9819
vn -0.2766 0.0249 0.9607
vn 0.6443 0.0480 0.7633
vn 0.6531 0.0263 0.7568
vn 0.9995 0.0222 -0.0221
vn 0.9998 0.0174 0.0112
vn 0.6104 0.0033 -0.7921
vn -0.2542 -0.0274 -0.9668
vn -0.9108 -0.0348 -0.4114
vn -0.8941 -0.0128 0.4478
vn -0.1960 0.0218 0.9804
vn 0.6406 0.0418 0.7667
vn 0.9994 0.0348 -0.0002
vn 0.5954 0.0155 -0.8033
vn -0.2322 -0.0130 -0.9726
vn -0.9080 -0.0297 -0.4180
vn -0.8866 -0.0209 0.4621
vn -0.2033 0.0066 0.9791
vn 0.6377 0.0312 0.7697
vn 0.9989 0.0349 -0.0324
vn 0.5967 -0.0173 -0.8023
vn -0.2401 -0.0724 -0.9681
vn -0.9033 -0.0720 -0.4230
vn -0.8906 -0.0144 0.4546
vn -0.1972 0.0589 0.9786
vn 0.6203 0.0902 0.7792
vn 0.9982 0.0575 -0.0137
vn 0.5934 0.1271 -0.7948
vn -0.2627 0.0731 -0.9621
vn -0.9040 -0.0294 -0.4265
vn -0.8883 -0.1102 0.4458
vn -0.1887 -0.1033 0.9766
vn 0.6353 -0.0168 0.7721
vn 0.9963 0.0859 0.0007
vn 0.6013 0.1124 -0.7911
vn -0.2672 0.0798 -0.9603
vn -0.9079 -0.0064 -0.4192
vn -0.8979 -0.0858 0.4317
vn -0.2118 -0.0994 0.9722
vn 0.6387 -0.0333 0.7687
vn 0.9981 0.0601 -0.0102
vn 0.6105 0.0360 -0.7912
vn -0.2175 0.1355 -0.9666
vn -0.9039 0.1378 -0.4049
vn -0.8892 0.0396 0.4558
vn -0.2093 -0.0844 0.9742
vn 0.6303 -0.1417 0.7633
vn 0.9956 -0.0866 -0.0347
vn 0.6084 0.0064 -0.7936
vn -0.2139 0.2482 -0.9448
vn -0.8666 0.3061 -0.3940
vn -0.8741 0.1364 0.4662
vn -0.2217 -0.1323 0.9661
vn 0.6065 -0.3008 0.7360
vn 0.9706 -0.2363 -0.0465
vn 0.6211 -0.0618 -0.7813
vn -0.1963 0.1521 -0.9687
vn -0.8857 0.2554 -0.3876
vn -0.8717 0.1632 0.4621
vn -0.2358 -0.0420 0.9709
vn 0.6136 -0.2216 0.7579
vn 0.9736 -0.2231 -0.0483
vn 0.6060 -0.0843 -0.7910
vn -0.2351 0.0169 -0.9718
vn -0.9046 0.1089 -0.4121
vn -0.8799 0.1196 0.4600
vn -0.2006 0.0448 0.9787
vn 0.6363 -0.0614 0.7690
vn 0.9927 -0.1190 -0.0173
vn 0.6086 -0.0692 -0.7904
vn -0.2528 -0.0102 -0.9675
vn -0.9133 0.0598 -0.4029
vn -0.8915 0.0861 0.4447
vn -0.2085 0.0521 0.9766
vn 0.6343 -0.0187 0.7728
vn 0.9972 -0.0729 -0.0174
vn 0.2748 0.2089 0.9385
vn 0.2502 0.2951 0.9221
vn 0.6545 0.1268 0.7454
vn 0.6738 0.0416 0.7377
vn 0.0472 0.6486 0.7597
vn -0.4770 0.4630 0.7471
vn 0.0862 0.7042 0.7047
vn -0.5168 0.3902 0.7620
vn -0.4516 0.7050 -0.5468
vn -0.2273 0.4494 -0.8639
vn -0.5362 0.6554 -0.5319
vn -0.1393 0.4762 -0.8682
vn -0.4214 0.7963 -0.4340
vn -0.3430 0.8540 -0.3912
vn -0.6245 0.7686 0.1389
vn -0.6811 0.7223 0.1202
vn -0.8962 0.4429 -0.0269
vn -0.8139 0.5799 -0.0345
vn -0.8120 0.3553 -0.4631
vn -0.8652 0.2098 -0.4554
vn -0.9521 0.2511 0.1744
vn -0.7876 0.4631 -0.4066
vn -0.9247 0.3203 0.2057
vn -0.7903 0.4274 -0.4390
vn -0.4693 0.8698 0.1524
vn -0.5158 0.8506 0.1020
vn -0.2033 0.8064 0.5553
vn -0.1373 0.7924 0.5943
vn -0.6314 -0.0827 0.7711
vn -0.5712 0.0432 0.8197
vn -0.9072 0.1591 0.3895
vn -0.9454 0.0486 0.3223
vn 0.0494 0.4712 0.8806
vn 0.0693 0.5747 0.8154
vn -0.5723 0.6081 0.5501
vn -0.5905 0.5459 0.5944
vn 0.2282 0.0131 0.9735
vn 0.6405 0.2798 0.7152
vn 0.1618 -0.0242 0.9865
vn 0.6799 0.3390 0.6503
vn -0.5325 0.4043 -0.7436
vn -0.8540 0.3233 -0.4077
vn -0.4854 0.4463 -0.7518
vn -0.8843 0.2803 -0.3735
vn -0.5797 0.2552 -0.7738
vn -0.6077 0.3000 -0.7353
vn -0.3543 -0.1838 -0.9169
vn -0.3154 -0.2457 -0.9166
vn -0.4831 0.8756 -0.0021
vn -0.5135 0.7138 0.4762
vn -0.5265 0.8384 -0.1413
vn -0.4049 0.6813 0.6099
vn -0.2345 0.9466 -0.2210
vn -0.1578 0.9762 -0.1491
vn -0.2126 0.7311 -0.6483
vn -0.2842 0.6522 -0.7027
vn -0.8834 -0.0314 0.4675
vn -0.4897 -0.0213 0.8716
vn -0.9215 -0.0633 0.3832
vn -0.3981 0.0320 0.9168
vn -0.8325 0.5008 0.2369
vn -0.9115 0.3789 -0.1602
vn -0.8458 0.4262 0.3209
vn -0.8632 0.4374 -0.2521
vn -0.2305 0.7928 0.5643
vn 0.1139 0.6507 0.7508
vn -0.2307 0.8418 0.4880
vn 0.1193 0.5757 0.8089
vn -0.3833 0.5577 0.7362
vn -0.3398 0.5337 0.7744
vn -0.6495 0.6644 0.3698
vn -0.6706 0.6774 0.3023
vn 0.1244 0.4364 -0.8911
vn 0.4235 0.0767 -0.9027
vn 0.0656 0.4441 -0.8936
vn 0.4703 0.0480 -0.8812
vn -0.2169 -0.2395 -0.9463
vn -0.1732 -0.1695 -0.9702
vn -0.7089 0.1453 -0.6902
vn -0.7405 0.1199 -0.6613
vn -0.4420 0.6076 -0.6598
vn -0.5383 0.5568 -0.6327
vn -0.3398 -0.0412 -0.9396
vn -0.2821 -0.0210 -0.9591
vn -0.6251 0.6083 -0.4892
vn -0.8971 0.0053 -0.4417
vn -0.5737 0.6177 -0.5379
vn -0.9116 -0.0404 -0.4091
vn -0.9851 0.1509 -0.0822
vn -0.8681 -0.2779 -0.4113
vn -0.9588 0.2807 -0.0436
vn -0.8023 -0.4308 -0.4133
vn -0.9157 0.3926 0.0858
vn -0.8537 0.5115 0.0975
vn -0.8248 0.2618 0.5012
vn -0.8611 0.1380 0.4893
vn -0.4458 0.8747 0.1900
vn -0.4491 0.8412 -0.3012
vn -0.4639 0.8395 0.2828
vn -0.3829 0.8304 -0.4048
vn -0.6145 0.6276 0.4780
vn -0.5790 0.6969 0.4231
vn -0.3564 0.3474 0.8674
vn -0.3609 0.2573 0.8964
vn -0.4833 0.0776 0.8720
vn -0.4216 0.0726 0.9038
vn -0.8612 -0.1457 0.4870
vn -0.8912 -0.1663 0.4221
vn 0.1419 0.8927 0.4276
vn 0.0469 0.9097 0.4126
vn 0.3542 0.5384 0.7646
vn 0.4355 0.4838 0.7592
vn -0.2386 0.3121 -0.9196
vn -0.6141 -0.0539 -0.7874
vn -0.1249 0.2463 -0.9611
vn -0.7079 -0.0060 -0.7063
vn -0.2258 0.6544 -0.7216
vn 0.0553 0.3280 -0.9430
vn -0.1971 0.7492 -0.6324
vn 0.0280 0.1879 -0.9818
vn -0.3865 0.8887 -0.2466
vn -0.3217 0.9124 -0.2529
vn -0.6567 0.6920 0.2997
vn -0.6820 0.6491 0.3368
vn -0.5160 0.0065 -0.8566
vn -0.5148 0.1334 -0.8469
vn -0.1872 -0.2270 -0.9557
vn -0.1692 -0.3600 -0.9175
vn -0.9489 0.1990 -0.2449
vn -0.9319 0.1321 -0.3377
vn -0.9931 -0.0420 0.1093
vn -0.9778 0.0185 0.2085
vn -0.9339 0.2463 0.2593
vn -0.7185 0.6662 -0.1998
vn -0.9184 0.2252 0.3254
vn -0.6721 0.6965 -0.2512
vn 0.2973 0.8969 -0.3275
vn 0.2246 0.8562 -0.4653
vn 0.6531 0.7551 -0.0573
vn 0.6817 0.7210 0.1245
vn 0.3107 0.8461 -0.4332
vn 0.3129 0.8851 -0.3445
vn -0.1493 0.7923 -0.5915
vn -0.1636 0.7335 -0.6597
vn 0.0114 0.9205 -0.3906
vn 0.1636 0.6254 -0.7630
vn -0.0163 0.9414 -0.3369
vn 0.1713 0.5627 -0.8087
vn -0.3579 0.1532 -0.9211
vn -0.3010 0.1809 -0.9363
vn -0.7834 0.1665 -0.5988
vn -0.8237 0.1513 -0.5465
vn -0.4836 0.2912 -0.8254
vn -0.5559 0.2613 -0.7891
vn -0.0720 0.1055 -0.9918
vn 0.0175 0.1263 -0.9918
vn -0.7223 0.2564 -0.6423
vn -0.9375 0.1331 -0.3216
vn -0.6793 0.2996 -0.6699
vn -0.9578 0.0763 -0.2771
vn -0.7562 0.5107 -0.4090
vn -0.7130 0.0576 -0.6988
vn -0.6870 0.6162 -0.3851
vn -0.7328 -0.0841 -0.6752
vn -1.0000 -0.0002 0.0022
vn -0.8876 -0.3153 0.3358
vn -0.9875 -0.0880 -0.1310
vn -0.8560 -0.2273 0.4644
vn -0.6060 0.7515 0.2610
vn -0.8231 0.5629 -0.0755
vn -0.5436 0.7860 0.2944
vn -0.8659 0.4878 -0.1103
vn -0.9188 0.2940 0.2633
vn -0.8152 -0.1258 0.5654
vn -0.8724 0.4215 0.2475
vn -0.7938 -0.2778 0.5411
vn 0.3736 0.4026 -0.8356
vn 0.3203 0.4406 -0.8386
vn 0.7856 0.3623 -0.5015
vn 0.8232 0.3285 -0.4630
vn -0.5400 0.6296 -0.5585
vn -0.4955 0.5609 -0.6632
vn -0.8933 0.3243 -0.3114
vn -0.9122 0.3623 -0.1913
vn -0.3483 0.6998 -0.6237
vn -0.3973 0.7077 -0.5842
vn -0.2359 0.2452 -0.9403
vn -0.1994 0.2031 -0.9586
vn -0.8811 0.4690 0.0603
vn -0.8294 0.5561 0.0526
vn -0.5968 0.4233 0.6816
vn -0.6160 0.3680 0.6965
vn -0.8663 0.3246 -0.3796
vn -0.6192 0.0721 -0.7819
vn -0.8997 0.3031 -0.3140
vn -0.5581 0.0721 -0.8266
vn -0.8033 0.4359 0.4059
vn -0.5797 0.1727 0.7963
vn -0.8260 0.4498 0.3399
vn -0.5243 0.1415 0.8397
vn -0.4885 0.8723 -0.0209
vn -0.5166 0.8504 0.0994
vn -0.6448 0.6214 -0.4450
vn -0.5777 0.5942 -0.5596
vn 0.5786 0.2843 -0.7644
vn 0.8414 -0.1063 -0.5298
vn 0.5541 0.4154 -0.7214
vn 0.8113 -0.2566 -0.5253
vn 0.3114 0.4731 -0.8241
vn -0.1979 0.5348 -0.8215
vn 0.3101 0.5749 -0.7572
vn -0.2055 0.4445 -0.8719
vn -0.0617 0.4484 -0.8917
vn -0.1025 0.5689 -0.8160
vn 0.4165 0.2665 -0.8692
vn 0.4507 0.1145 -0.8853
vn -0.2781 0.9145 -0.2938
vn -0.6391 0.7690 0.0122
vn -0.2236 0.9068 -0.3572
vn -0.6684 0.7368 0.1020
vn -0.4429 0.5197 -0.7306
vn -0.5236 0.4481 -0.7246
vn 0.0233 0.5525 -0.8332
vn 0.1260 0.6045 -0.7866
vn -0.4437 0.7941 -0.4153
vn -0.8010 0.5749 -0.1668
vn -0.3770 0.8203 -0.4301
vn -0.8483 0.5093 -0.1447
vn -0.6450 0.6760 -0.3563
vn -0.6334 0.7107 -0.3060
vn -0.8423 0.1171 -0.5261
vn -0.8453 0.0452 -0.5324
vn -0.7849 0.6181 -0.0444
vn -0.9892 0.1129 0.0935
vn -0.7787 0.6155 -0.1218
vn -0.9846 0.0912 0.1493
vn 0.7204 0.5269 -0.4510
vn 0.7900 0.4654 -0.3991
vn 0.5633 0.1067 -0.8193
vn 0.4959 0.1388 -0.8572
vn 0.8610 0.4178 -0.2900
vn 0.7872 0.5438 -0.2907
vn 0.9218 0.3224 0.2155
vn 0.9557 0.1869 0.2273
vn 0.2831 0.3615 -0.8883
vn 0.3490 0.3644 -0.8634
vn -0.0281 -0.1002 -0.9946
vn -0.0853 -0.1295 -0.9879
vn 0.4821 0.7225 -0.4955
vn 0.4228 0.7234 -0.5458
vn 0.8507 0.4931 -0.1822
vn 0.8802 0.4621 -0.1083
vn -0.2807 0.8631 -0.4198
vn -0.1630 0.8233 -0.5436
vn -0.6762 0.6590 -0.3294
vn -0.7601 0.6311 -0.1547
vn -0.0842 0.7695 -0.6331
vn 0.2738 0.5056 -0.8182
vn -0.1671 0.6778 -0.7160
vn 0.3538 0.5779 -0.7355
vn -0.3043 0.7332 -0.6081
vn 0.1162 0.5679 -0.8148
vn -0.2926 0.8236 -0.4859
vn 0.1152 0.4301 -0.8954
vn -0.7833 0.5869 0.2048
vn -0.6117 0.4705 0.6360
vn -0.8649 0.4967 0.0726
vn -0.4387 0.5172 0.7349
vn -0.8632 0.2897 -0.4136
vn -0.6454 0.0991 -0.7574
vn -0.8643 0.3485 -0.3626
vn -0.6146 0.0243 -0.7885
vn 0.4599 0.8491 -0.2598
vn 0.4763 0.7780 -0.4096
vn 0.6648 0.7277 0.1688
vn 0.5911 0.7319 0.3389
vn 0.8001 0.4052 -0.4423
vn 0.8442 0.3660 -0.3916
vn 0.3820 0.5863 -0.7144
vn 0.2908 0.6242 -0.7251
vn 0.5336 0.0156 -0.8456
vn 0.0425 0.0565 -0.9975
vn 0.5703 0.1087 -0.8142
vn -0.0101 -0.0262 -0.9996
vn 0.0728 0.7391 -0.6696
vn 0.0770 0.8252 -0.5595
vn 0.2976 0.3091 -0.9032
vn 0.2600 0.1559 -0.9529
vn -0.1435 -0.2341 -0.9616
vn -0.1056 -0.1357 -0.9851
vn -0.6361 0.1771 -0.7510
vn -0.6670 0.1218 -0.7350
vn -0.4440 0.6574 -0.6089
vn -0.2174 0.3810 -0.8986
vn -0.4380 0.7166 -0.5427
vn -0.2135 0.2849 -0.9345
vn -0.5561 0.7553 -0.3469
vn -0.8154 0.5788 -0.0138
vn -0.5099 0.7732 -0.3771
vn -0.8381 0.5443 0.0371
vn 0.9404 0.3166 0.1240
vn 0.9044 0.2122 -0.3702
vn 0.9110 0.3683 0.1855
vn 0.8908 0.1433 -0.4312
vn 0.6241 0.7702 0.1317
vn 0.5996 0.7955 0.0879
vn 0.6859 0.5511 0.4752
vn 0.6938 0.5044 0.5140
vn 0.5101 0.6204 -0.5957
vn 0.6074 0.5563 -0.5671
vn 0.2368 0.4642 -0.8535
vn 0.1161 0.5076 -0.8538
vn 0.1454 0.8853 -0.4417
vn 0.0840 0.4461 -0.8910
vn 0.2305 0.8606 -0.4542
vn 0.0308 0.4522 -0.8914
vn 0.6006 -0.1591 -0.7836
vn 0.8952 0.1017 -0.4340
vn 0.5767 -0.0425 -0.8159
vn 0.9167 0.0078 -0.3995
vn -0.2443 0.6653 -0.7055
vn -0.6432 0.1878 -0.7423
vn -0.1713 0.6127 -0.7715
vn -0.6985 0.2086 -0.6845
vn -0.2076 0.3545 -0.9117
vn -0.0603 -0.3166 -0.9467
vn -0.2742 0.3690 -0.8881
vn -0.0268 -0.3588 -0.9330
vn -0.5614 0.3833 -0.7334
vn -0.5262 0.5255 -0.6686
vn -0.1925 0.2523 -0.9483
vn -0.2040 0.0910 -0.9747
vn 0.4502 0.8929 0.0048
vn 0.5509 0.8274 -0.1091
vn 0.6031 0.7226 0.3378
vn 0.4804 0.7524 0.4507
vn 0.4040 0.9147 -0.0018
vn 0.2597 0.9651 0.0331
vn 0.5094 0.7529 -0.4166
vn 0.6317 0.6377 -0.4409
vn 0.4678 0.8838 -0.0103
vn 0.4065 0.9136 -0.0055
vn 0.7063 0.6494 0.2820
vn 0.7497 0.5979 0.2836
vn 0.7312 0.4301 -0.5294
vn 0.6497 -0.0035 -0.7601
vn 0.6864 0.5341 -0.4935
vn 0.6554 -0.1440 -0.7414
vn 0.2014 0.9364 -0.2874
vn 0.5582 0.8236 0.1002
vn 0.1689 0.8729 -0.4578
vn 0.5398 0.7846 0.3049
vn 0.2739 0.1941 -0.9419
vn -0.2136 0.5346 -0.8177
vn 0.3381 0.1538 -0.9284
vn -0.2733 0.5864 -0.7625
vn -0.2350 0.7811 -0.5785
vn -0.4025 0.3741 -0.8355
vn -0.2458 0.8510 -0.4641
vn -0.3487 0.2416 -0.9056
vn -0.7134 0.4720 -0.5180
vn -0.1782 0.7189 -0.6719
vn -0.7080 0.5624 -0.4273
vn -0.1713 0.6497 -0.7407
vn -0.2086 0.9370 -0.2803
vn -0.1778 0.8889 -0.4223
vn -0.5539 0.8323 -0.0219
vn -0.5570 0.8172 0.1480
vn 0.5796 0.7915 0.1938
vn 0.5974 0.4945 0.6313
vn 0.5237 0.8370 0.1586
vn 0.6225 0.4232 0.6583
vn 0.7466 0.4683 -0.4726
vn 0.3205 0.5852 -0.7448
vn 0.7474 0.5312 -0.3991
vn 0.2969 0.5234 -0.7987
vn 0.6383 0.7583 -0.1327
vn 0.6467 0.7172 -0.2595
vn 0.6444 0.6266 0.4384
vn 0.5507 0.6124 0.5672
vn 0.3785 0.1469 -0.9139
vn -0.0045 -0.2149 -0.9766
vn 0.4682 0.1393 -0.8726
vn -0.1068 -0.2115 -0.9715
vn 0.2944 0.6333 -0.7157
vn 0.6875 0.3420 -0.6406
vn 0.2383 0.6305 -0.7387
vn 0.7302 0.3142 -0.6067
vn -0.3011 0.8011 -0.5173
vn -0.6783 0.4428 -0.5864
vn -0.2161 0.7750 -0.5939
vn -0.7464 0.4379 -0.5011
vn 0.1007 0.1974 -0.9751
vn 0.3228 -0.3660 -0.8729
vn 0.0467 0.2216 -0.9740
vn 0.3442 -0.4179 -0.8408
vn 0.4964 0.6231 0.6044
vn 0.4250 0.7507 0.5058
vn 0.2612 0.3183 0.9113
vn 0.3024 0.1312 0.9441
vn -0.3647 0.6711 -0.6455
vn -0.4322 0.6614 -0.6130
vn -0.3291 0.2228 -0.9176
vn -0.2754 0.2099 -0.9381
vn 0.9456 0.2049 0.2526
vn 0.7191 0.1182 0.6848
vn 0.9106 0.3473 0.2242
vn 0.7136 -0.0269 0.7000
vn 0.3770 0.9245 -0.0570
vn 0.2651 0.9593 -0.0976
vn 0.2955 0.6221 -0.7250
vn 0.3623 0.6045 -0.7094
vn 0.6939 0.5497 -0.4651
vn 0.6426 0.6208 -0.4491
vn 0.8174 0.5714 0.0729
vn 0.8527 0.5172 0.0743
vn 0.5372 0.7808 -0.3189
vn 0.7985 0.3462 -0.4925
vn 0.4662 0.8352 -0.2917
vn 0.8471 0.2392 -0.4745
vn 0.2723 0.6834 -0.6774
vn 0.6979 0.4536 -0.5542
vn 0.1943 0.7460 -0.6370
vn 0.7510 0.3427 -0.5644
vn 0.3309 0.5819 -0.7429
vn 0.0532 0.2892 -0.9558
vn 0.4317 0.5096 -0.7443
vn -0.0505 0.3420 -0.9383
vn 0.1408 0.4461 0.8838
vn 0.1161 0.5905 0.7987
vn -0.3288 0.2466 0.9116
vn -0.3086 0.0850 0.9474
vn 0.5530 0.6719 0.4927
vn 0.8852 0.1476 0.4412
vn 0.4874 0.7191 0.4953
vn 0.8985 0.0478 0.4364
vn 0.1456 0.7914 0.5937
vn 0.1938 0.8121 0.5504
vn 0.4573 0.3039 0.8358
vn 0.4418 0.2682 0.8561
vn 0.9883 0.0384 0.1477
vn 0.9724 0.0169 0.2327
vn 0.9072 -0.3125 -0.2815
vn 0.8826 -0.3016 -0.3606
vn 0.6255 0.7482 0.2212
vn 0.4753 0.8566 0.2007
vn 0.7658 0.3917 0.5100
vn 0.8538 0.1984 0.4814
vn 0.6873 0.6138 -0.3883
vn 0.7747 0.5492 -0.3136
vn 0.2714 0.6041 -0.7492
vn 0.1151 0.6314 -0.7669
vn 0.6682 0.7221 -0.1790
vn 0.6180 0.7518 -0.2300
vn 0.6296 0.7066 0.3230
vn 0.6527 0.6569 0.3774
vn -0.4516 -0.0064 0.8922
vn -0.7325 -0.3228 0.5993
vn -0.4024 0.0360 0.9147
vn -0.7551 -0.3675 0.5429
vn -0.5086 0.1361 0.8502
vn -0.0160 0.2693 0.9629
vn -0.5581 0.1830 0.8094
vn 0.0468 0.2310 0.9718
vn 0.0006 0.6368 0.7710
vn 0.0250 0.6978 0.7159
vn -0.3085 0.2900 0.9059
vn -0.3208 0.1940 0.9271
vn 0.3497 0.2010 0.9150
vn 0.3042 0.0667 0.9503
vn 0.7426 0.1756 0.6463
vn 0.7665 0.2996 0.5681
vn 0.4035 0.5408 0.7380
vn 0.3398 -0.0424 0.9395
vn 0.5148 0.5030 0.6942
vn 0.2505 -0.0270 0.9677
vn 0.5769 0.4755 0.6641
vn 0.8259 0.5142 0.2312
vn 0.5135 0.5077 0.6917
vn 0.8632 0.4715 0.1803
vn 0.8830 0.4544 0.1176
vn 0.8097 0.5817 0.0776
vn 0.7403 0.4159 0.5282
vn 0.7807 0.2732 0.5620
vn 0.6359 0.7544 -0.1629
vn 0.7655 0.4600 -0.4499
vn 0.6151 0.7800 -0.1147
vn 0.7661 0.4129 -0.4925
vn 0.7848 0.5392 -0.3056
vn 0.7809 0.6081 0.1429
vn 0.8059 0.4426 -0.3933
vn 0.6915 0.6793 0.2459
vn 0.9072 0.3303 -0.2604
vn 0.8810 -0.0967 -0.4631
vn 0.8555 0.4524 -0.2517
vn 0.8669 -0.2520 -0.4300
vn -0.2308 0.7158 0.6591
vn -0.1768 0.6068 0.7749
vn -0.6574 0.6458 0.3883
vn -0.6785 0.7016 0.2177
vn -0.0491 0.6882 0.7239
vn 0.3898 0.5602 0.7309
vn -0.0860 0.7727 0.6290
vn 0.4236 0.4403 0.7916
vn 0.0646 0.3574 0.9317
vn -0.5720 0.2656 0.7761
vn 0.0840 0.4297 0.8991
vn -0.6016 0.2182 0.7684
vn 0.7007 0.4735 0.5336
vn 0.8560 0.5134 -0.0602
vn 0.6458 0.5899 0.4847
vn 0.9039 0.4269 -0.0271
vn 0.4221 0.4217 0.8025
vn -0.0421 0.3895 0.9201
vn 0.4162 0.5133 0.7505
vn -0.0496 0.3005 0.9525
vn 0.9132 0.3480 0.2119
vn 0.7499 0.1344 0.6478
vn 0.9221 0.3578 0.1470
vn 0.7092 0.1011 0.6978
vn 0.8844 0.0942 -0.4570
vn 0.9054 0.1197 -0.4074
vn 0.7039 -0.3210 -0.6336
vn 0.6621 -0.3583 -0.6582
vn 0.9307 0.3106 -0.1933
vn 0.9072 0.3584 -0.2204
vn 0.9828 -0.1682 -0.0764
vn 0.9704 -0.2340 -0.0604
vn 0.3120 0.8201 -0.4796
vn 0.0192 0.6235 -0.7816
vn 0.3833 0.8107 -0.4425
vn -0.0667 0.6035 -0.7945
vn 0.4632 0.1742 -0.8689
vn 0.7867 0.0412 -0.6159
vn 0.3821 0.0757 -0.9210
vn 0.8422 0.1374 -0.5213
vn -0.0553 0.3432 -0.9376
vn 0.4300 0.2891 -0.8553
vn -0.0835 0.3909 -0.9166
vn 0.4663 0.2514 -0.8482
vn -0.7578 0.2674 -0.5952
vn -0.9684 0.0621 -0.2416
vn -0.7204 0.3104 -0.6202
vn -0.9804 0.0157 -0.1962
vn -0.3155 0.4996 -0.8067
vn 0.1390 0.2764 -0.9510
vn -0.4490 0.4285 -0.7841
vn 0.2912 0.3193 -0.9018
vn -0.5757 0.8004 0.1671
vn -0.8143 0.3901 0.4298
vn -0.5527 0.8267 0.1051
vn -0.8174 0.3299 0.4721
vn -0.9716 -0.0597 -0.2289
vn -0.9690 -0.2007 -0.1443
vn -0.7800 0.1333 -0.6115
vn -0.6922 0.2970 -0.6578
vn 0.6801 0.6449 -0.3487
vn 0.5676 0.7867 0.2429
vn 0.6468 0.6510 -0.3973
vn 0.5485 0.7798 0.3017
vn 0.7314 0.6097 -0.3055
vn 0.7275 0.6399 -0.2477
vn 0.7357 0.1893 -0.6503
vn 0.7230 0.1191 -0.6805
vn 0.6573 -0.0744 -0.7499
vn 0.6044 -0.0862 -0.7920
vn 0.9405 -0.0681 -0.3328
vn 0.9632 -0.0517 -0.2638
vn 0.2385 0.5348 -0.8106
vn 0.1953 0.0228 -0.9805
vn 0.1763 0.6377 -0.7498
vn 0.2594 -0.1218 -0.9581
vn -0.1201 0.4974 -0.8591
vn 0.4145 0.3808 -0.8266
vn -0.1527 0.5938 -0.7899
vn 0.4492 0.2703 -0.8515
vn -0.2216 0.4774 -0.8503
vn -0.1557 0.5873 -0.7943
vn -0.6943 0.4514 -0.5606
vn -0.7458 0.3332 -0.5769
vn -0.3731 -0.0824 -0.9241
vn 0.0228 -0.2046 -0.9786
vn -0.4298 -0.1218 -0.8947
vn 0.0884 -0.1647 -0.9824
vn -0.6967 0.5774 -0.4257
vn -0.6536 0.5386 -0.5316
vn -0.9611 0.2568 -0.1014
vn -0.9633 0.2677 0.0215
vn -0.7060 0.7048 -0.0701
vn -0.8996 0.2642 -0.3478
vn -0.7228 0.6909 0.0148
vn -0.8749 0.2501 -0.4147
vn 0.9304 0.1148 -0.3480
vn 0.4700 0.4517 -0.7584
vn 0.9111 0.2387 -0.3360
vn 0.4999 0.3807 -0.7780
vn 0.5649 0.8030 -0.1900
vn 0.4594 0.7546 0.4686
vn 0.4965 0.8444 -0.2013
vn 0.4844 0.7228 0.4929
vn 0.2467 0.8639 -0.4392
vn 0.2379 0.9107 -0.3377
vn -0.2237 0.8150 -0.5346
vn -0.2250 0.7539 -0.6172
vn 0.3906 0.4692 -0.7920
vn 0.3296 0.4578 -0.8257
vn 0.7599 0.4285 -0.4888
vn 0.7995 0.4340 -0.4153
vn -0.1594 0.9108 0.3809
vn -0.0832 0.8727 0.4810
vn -0.3931 0.4888 0.7788
vn -0.4545 0.5280 0.7174
vn 0.2779 0.2455 0.9287
vn 0.6735 0.4565 0.5814
vn 0.2370 0.3153 0.9189
vn 0.7075 0.4125 0.5738
vn 0.2614 0.8967 0.3572
vn -0.2582 0.8210 0.5092
vn 0.2944 0.9031 0.3125
vn -0.3155 0.7935 0.5204
vn 0.7417 0.5540 0.3782
vn 0.9602 0.2435 0.1365
vn 0.7019 0.5825 0.4099
vn 0.9766 0.1894 0.1022
vn 0.7480 0.6338 0.1969
vn 0.7168 0.6820 0.1452
vn 0.6861 0.3385 0.6440
vn 0.6780 0.2695 0.6839
vn 0.7047 0.7054 -0.0763
vn 0.7443 0.4539 -0.4899
vn 0.5911 0.8047 -0.0547
vn 0.8128 0.3061 -0.4957
vn -0.8066 0.3370 0.4856
vn -0.6362 -0.0959 0.7655
vn -0.8814 0.2467 0.4028
vn -0.5548 -0.0267 0.8315
vn -0.8715 0.3609 0.3321
vn -0.8352 0.4246 0.3496
vn -0.9817 -0.1336 0.1359
vn -0.9689 -0.2176 0.1180
vn -0.1784 0.6027 0.7777
vn -0.1618 0.6813 0.7139
vn 0.4076 0.6273 0.6636
vn 0.4043 0.5759 0.7105
vn -0.3254 0.6149 0.7183
vn -0.6880 0.4367 0.5796
vn -0.2714 0.6314 0.7264
vn -0.7338 0.4093 0.5422
vn 0.1208 0.4477 0.8860
vn 0.5304 0.3588 0.7681
vn 0.0610 0.4344 0.8987
vn 0.5848 0.3601 0.7269
vn 0.0768 0.6852 0.7243
vn 0.1155 0.7163 0.6882
vn -0.1817 0.3401 0.9226
vn -0.2099 0.2759 0.9380
vn 0.5008 0.4896 0.7137
vn 0.8042 0.0457 0.5927
vn 0.4372 0.6025 0.6677
vn 0.7990 -0.1186 0.5896
vn 0.4573 0.7807 0.4258
vn 0.4314 0.4678 0.7714
vn 0.5267 0.7552 0.3903
vn 0.3676 0.4728 0.8008
vn 0.9835 -0.0239 0.1792
vn 0.9834 0.1110 0.1436
vn 0.9398 -0.2196 -0.2617
vn 0.9082 -0.3466 -0.2344
vn 0.9759 0.1671 0.1400
vn 0.9746 0.2047 0.0914
vn 0.8073 0.0907 0.5832
vn 0.7766 0.0570 0.6274
vn -0.9228 0.2889 0.2549
vn -0.9944 -0.0832 -0.0657
vn -0.9043 0.2191 0.3664
vn -0.9836 -0.0284 -0.1780
vn -0.8207 0.3516 0.4504
vn -0.3050 0.6099 0.7314
vn -0.7911 0.4582 0.4053
vn -0.3290 0.5442 0.7717
vn -0.1788 0.8636 0.4713
vn -0.6025 0.5608 0.5679
vn -0.1151 0.8734 0.4731
vn -0.6502 0.5107 0.5625
vn -0.4585 -0.0065 0.8887
vn 0.0381 -0.1318 0.9905
vn -0.4915 0.1059 0.8644
vn 0.0890 -0.2408 0.9665
vn 0.2865 0.4141 0.8640
vn -0.2599 0.4430 0.8580
vn 0.2646 0.5181 0.8133
vn -0.2499 0.3601 0.8988
vn 0.0840 0.8596 0.5041
vn 0.5362 0.8042 0.2565
vn 0.0238 0.8685 0.4951
vn 0.5875 0.7751 0.2324
vn 0.4747 0.3444 0.8100
vn 0.4830 0.4401 0.7570
vn 0.1270 0.0658 0.9897
vn 0.1027 -0.0554 0.9932
vn 0.5118 0.7073 0.4877
vn 0.7581 0.6461 0.0885
vn 0.5251 0.5864 0.6168
vn 0.6928 0.7172 -0.0754
vn 0.8272 0.4762 0.2984
vn 0.8499 0.4771 0.2237
vn 0.4256 0.4725 0.7717
vn 0.3426 0.4699 0.8135
vn 0.9413 0.2733 0.1982
vn 0.9723 -0.2205 -0.0773
vn 0.9089 0.3524 0.2228
vn 0.9426 -0.3211 -0.0918
vn -0.7970 0.4116 0.4421
vn -0.7302 0.5448 0.4123
vn -0.6696 0.1478 0.7278
vn -0.6932 -0.0183 0.7205
vn -0.5361 0.0490 0.8427
vn -0.0443 -0.1046 0.9935
vn -0.5694 0.1332 0.8112
vn 0.0100 -0.1857 0.9826
vn -0.6138 0.1892 0.7665
vn -0.5371 0.0401 0.8426
vn -0.9014 0.2168 0.3748
vn -0.9037 0.3612 0.2299
vn 0.0648 0.1830 0.9810
vn -0.3779 0.2144 0.9007
vn 0.1379 0.0918 0.9862
vn -0.4486 0.3055 0.8399
vn 0.7221 0.0037 0.6918
vn 0.9111 -0.2563 0.3229
vn 0.6706 -0.0094 0.7418
vn 0.9344 -0.2495 0.2545
vn 0.3916 0.8600 0.3271
vn -0.1685 0.8433 0.5103
vn 0.4631 0.8373 0.2907
vn -0.2666 0.8234 0.5010
vn 0.8636 -0.3984 0.3090
vn 0.7850 -0.5895 -0.1904
vn 0.9157 -0.2643 0.3026
vn 0.6937 -0.6924 -0.1985
vn 0.6337 0.7290 0.2589
vn 0.4146 0.5979 0.6860
vn 0.6980 0.6925 0.1825
vn 0.3051 0.6009 0.7388
vn -0.4312 0.9017 0.0308
vn -0.3316 0.9434 0.0033
vn -0.5322 0.6509 -0.5414
vn -0.5973 0.6010 -0.5311
vn -0.6386 0.5539 0.5342
vn -0.6403 0.5939 0.4871
vn -0.0918 0.6222 0.7775
vn -0.0603 0.5975 0.7996
vn -0.4589 0.0839 0.8845
vn -0.6983 -0.2776 0.6598
vn -0.4252 0.1786 0.8873
vn -0.6894 -0.3882 0.6116
vn -0.1654 0.8605 0.4819
vn -0.0396 0.5764 0.8162
vn -0.2057 0.8738 0.4407
vn -0.0041 0.5352 0.8447
vn 0.3552 0.6982 0.6216
vn 0.2913 0.8065 0.5145
vn -0.1337 0.5521 0.8230
vn -0.0889 0.4285 0.8992
vn 0.3746 0.0953 0.9223
vn 0.7584 -0.1084 0.6427
vn 0.2955 -0.0491 0.9541
vn 0.8173 0.0243 0.5757
vn 0.3923 0.8178 0.4211
vn 0.2825 0.9100 0.3036
vn 0.2006 0.5340 0.8214
vn 0.2853 0.3661 0.8857
vn 0.4650 0.8251 0.3209
vn 0.7692 0.6352 0.0702
vn 0.4150 0.7726 0.4805
vn 0.7683 0.6279 -0.1241
vn 0.6957 0.6033 0.3899
vn 0.7928 0.5055 0.3405
vn 0.3556 0.6248 0.6951
vn 0.1981 0.6874 0.6987
vn 0.9885 -0.0242 -0.1493
vn 0.8065 -0.4081 -0.4277
vn 0.9957 -0.0165 -0.0914
vn 0.7719 -0.4304 -0.4679
vn -0.7325 0.5530 0.3970
vn -0.7572 0.5566 0.3418
vn -0.7655 0.0530 0.6413
vn -0.7406 0.0204 0.6716
vn -0.6455 0.6838 0.3402
vn -0.8429 0.5336 -0.0700
vn -0.5551 0.7691 0.3169
vn -0.9039 0.4237 -0.0594
vn -0.2611 0.0265 0.9649
vn 0.0204 -0.2868 0.9578
vn -0.2928 0.0731 0.9534
vn 0.0547 -0.3379 0.9396
vn -0.2928 0.5629 0.7730
vn -0.6113 0.6958 0.3770
vn -0.2396 0.5130 0.8243
vn -0.6292 0.7283 0.2713
vn 0.2579 0.7914 0.5543
vn 0.6845 0.5549 0.4728
vn 0.1245 0.7443 0.6561
vn 0.7836 0.5399 0.3074
vn 0.0359 0.7677 0.6397
vn -0.2206 0.4700 0.8547
vn 0.1749 0.7151 0.6768
vn -0.3580 0.4935 0.7926
vn 0.5446 0.8087 0.2223
vn 0.8542 0.5118 -0.0920
vn 0.5265 0.7914 0.3107
vn 0.8507 0.4939 -0.1801
vn 0.2252 0.9136 0.3385
vn 0.3617 0.8656 0.3463
vn -0.1185 0.7165 0.6874
vn -0.2627 0.7105 0.6529
vn 0.9432 0.3322 0.0069
vn 0.9641 -0.0785 -0.2538
vn 0.9560 0.2727 0.1083
vn 0.9373 -0.0350 -0.3467
vn 0.3358 0.9188 0.2074
vn 0.3240 0.6804 0.6573
vn 0.4020 0.9057 0.1346
vn 0.2452 0.6539 0.7157
vn -0.6796 0.7197 0.1419
vn -0.8597 0.4302 -0.2755
vn -0.6643 0.6892 0.2895
vn -0.8019 0.4118 -0.4328
vn -0.9553 -0.0024 0.2957
vn -0.7189 -0.1813 0.6710
vn -0.9600 0.1295 0.2485
vn -0.6524 -0.3204 0.6868
vn -0.3490 0.2791 0.8946
vn -0.6262 -0.1917 0.7557
vn -0.2428 0.2320 0.9419
vn -0.7086 -0.1633 0.6864
vn 0.1213 0.7368 0.6651
vn 0.2206 0.6369 0.7388
vn -0.3414 0.7609 0.5519
vn -0.4388 0.8036 0.4021
vn 0.1054 0.8089 0.5784
vn 0.3467 0.4247 0.8363
vn 0.0987 0.8677 0.4872
vn 0.3269 0.3118 0.8921
vn 0.0773 0.9237 0.3751
vn -0.1550 0.6878 0.7091
vn 0.1594 0.9215 0.3541
vn -0.2376 0.6577 0.7149
vn 0.6282 0.6168 0.4743
vn 0.8675 0.4975 0.0024
vn 0.5482 0.7260 0.4152
vn 0.9232 0.3824 0.0397
vn -0.9439 -0.3010 0.1358
vn -0.7245 -0.3669 0.5835
vn -0.9425 -0.3279 0.0651
vn -0.6891 -0.3320 0.6441
vn -0.6652 0.6888 -0.2881
vn -0.6157 0.3778 -0.6916
vn -0.7705 0.6082 -0.1910
vn -0.4810 0.4229 -0.7679
vn -0.7619 0.5320 0.3695
vn -0.9662 0.0657 0.2493
vn -0.7460 0.4652 0.4766
vn -0.9809 0.1153 0.1566
vn -0.3556 0.2912 0.8881
vn -0.0810 0.0157 0.9966
vn -0.4584 0.2341 0.8573
vn 0.0338 0.0651 0.9973
vn 0.0455 0.8144 -0.5785
vn 0.2081 0.3815 -0.9006
vn 0.0788 0.8877 -0.4536
vn 0.1434 0.2331 -0.9618
vn -0.0836 0.8207 -0.5652
vn -0.0535 0.8669 -0.4956
vn -0.4954 0.6554 -0.5701
vn -0.5221 0.5859 -0.6198
vn -0.8650 0.3812 0.3264
vn -0.9919 -0.0129 0.1263
vn -0.7759 0.4033 0.4852
vn -0.9958 -0.0549 -0.0734
vt 0.442533 -0.196949
vt 0.442533 -2.543806
vt 0.471105 -0.196949
vt 0.471105 -2.543806
vt 0.499676 -0.196949
vt 0.499676 -2.543806
vt 0.528248 -0.196949
vt 0.528248 -2.543806
vt 0.556819 -0.196949
vt 0.556819 -2.543806
vt 0.585391 -0.196949
vt 0.585391 -2.543806
vt 0.613962 -0.196949
vt 0.613962 -2.543806
vt 0.642533 -0.196949
vt 0.642533 -2.543806
vt 0.442533 0.547016
vt 0.471105 0.547016
vt 0.499676 0.547016
vt 0.528248 0.547016
vt 0.556819 0.547016
vt 0.585391 0.547016
vt 0.613962 0.547016
vt 0.642533 0.547016
vt 0.442533 1.527309
vt 0.471105 1.527309
vt 0.499676 1.527309
vt 0.528248 1.527309
vt 0.556819 1.527309
vt 0.585391 1.527309
vt 0.613962 1.527309
vt 0.642533 1.527309
vt 0.442533 2.411335
vt 0.471105 2.411335
vt 0.499676 2.411335
vt 0.528248 2.411335
vt 0.556819 2.411335
vt 0.585391 2.411335
vt 0.613962 2.411335
vt 0.642533 2.411335
vt 0.442533 2.668278
vt 0.471105 2.668278
vt 0.499676 2.668278
vt 0.528248 2.668278
vt 0.556819 2.668278
vt 0.585391 2.668278
vt 0.613962 2.668278
vt 0.642533 2.668278
vt 0.442533 5.336704
vt 0.471105 5.336704
vt 0.499676 5.336704
vt 0.528248 5.336704
vt 0.556819 5.336704
vt 0.585391 5.336704
vt 0.613962 5.336704
vt 0.642533 5.336704
vt 0.442533 6.127426
vt 0.471105 6.127426
vt 0.499676 6.127426
vt 0.528248 6.127426
vt 0.556819 6.127426
vt 0.585391 6.127426
vt 0.613962 6.127426
vt 0.642533 6.127426
vt 0.442533 6.525280
vt 0.471105 6.525280
vt 0.499676 6.525280
vt 0.528248 6.525280
vt 0.556819 6.525280
vt 0.585391 6.525280
vt 0.613962 6.525280
vt 0.642533 6.525280
vt 0.442533 7.312565
vt 0.471105 7.312565
vt 0.499676 7.312565
vt 0.528248 7.312565
vt 0.556819 7.312565
vt 0.585391 7.312565
vt 0.613962 7.312565
vt 0.642533 7.312565
vt 0.442533 8.298538
vt 0.471105 8.298538
vt 0.499676 8.298538
vt 0.528248 8.298538
vt 0.556819 8.298538
vt 0.585391 8.298538
vt 0.613962 8.298538
vt 0.642533 8.298538
vt 0.442533 9.900715
vt 0.471105 9.900715
vt 0.499676 9.900715
vt 0.528248 9.900715
vt 0.556819 9.900715
vt 0.585391 9.900715
vt 0.613962 9.900715
vt 0.642533 9.900715
vt 0.030369 0.000000
vt 1.000000 0.000000
vt 1.000000 0.980477
vt 0.000000 0.986985
s 1
usemtl Bark
f 1/1/1 2/2/2 3/3/3
f 4/4/4 3/3/3 2/2/2
f 3/3/3 4/4/4 5/5/5
f 6/6/6 5/5/5 4/4/4
f 5/5/5 6/6/6 7/7/7
f 8/8/8 7/7/7 6/6/6
f 7/7/7 8/8/8 9/9/9
f 10/10/10 9/9/9 8/8/8
f 9/9/9 10/10/10 11/11/11
f 12/12/12 11/11/11 10/10/10
f 11/11/11 12/12/12 13/13/13
f 14/14/14 13/13/13 12/12/12
f 13/13/13 14/14/14 1/15/1
f 2/16/2 1/15/1 14/14/14
f 15/17/15 1/1/1 16/18/16
f 3/3/3 16/18/16 1/1/1
f 16/18/16 3/3/3 17/19/17
f 5/5/5 17/19/17 3/3/3
f 17/19/17 5/5/5 18/20/18
f 7/7/7 18/20/18 5/5/5
f 18/20/18 7/7/7 19/21/19
f 9/9/9 19/21/19 7/7/7
f 19/21/19 9/9/9 20/22/20
f 11/11/11 20/22/20 9/9/9
f 20/22/20 11/11/11 21/23/21
f 13/13/13 21/23/21 11/11/11
f 21/23/21 13/13/13 15/24/15
f 1/15/1 15/24/15 13/13/13
f 22/25/22 15/17/15 23/26/23
f 16/18/16 23/26/23 15/17/15
f 23/26/23 16/18/16 24/27/24
f 17/19/17 24/27/24 16/18/16
f 24/27/24 17/19/17 25/28/25
f 18/20/18 25/28/25 17/19/17
f 25/28/25 18/20/18 26/29/26
f 19/21/19 26/29/26 18/20/18
f 26/29/26 19/21/19 27/30/27
f 20/22/20 27/30/27 19/21/19
f 27/30/27 20/22/20 28/31/28
f 21/23/21 28/31/28 20/22/20
f 28/31/28 21/23/21 22/32/22
f 15/24/15 22/32/22 21/23/21
f 29/33/29 22/25/22 30/34/30
f 23/26/23 30/34/30 22/25/22
f 30/34/30 23/26/23 31/35/31
f 24/27/24 31/35/31 23/26/23
f 31/35/31 24/27/24 32/36/32
f 25/28/25 32/36/32 24/27/24
f 32/36/32 25/28/25 33/37/33
f 26/29/26 33/37/33 25/28/25
f 33/37/33 26/29/26 34/38/34
f 27/30/27 34/38/34 26/29/26
f 34/38/34 27/30/27 35/39/35
f 28/31/28 35/39/35 27/30/27
f 35/39/35 28/31/28 29/40/29
f 22/32/22 29/40/29 28/31/28
f 36/41/36 29/33/29 37/42/37
f 30/34/30 37/42/37 29/33/29
f 37/42/37 30/34/30 38/43/38
f 31/35/31 38/43/38 30/34/30
f 38/43/38 31/35/31 39/44/39
f 32/36/32 39/44/39 31/35/31
f 39/44/39 32/36/32 40/45/40
f 33/37/33 40/45/40 32/36/32
f 40/45/40 33/37/33 41/46/41
f 34/38/34 41/46/41 33/37/33
f 41/46/41 34/38/34 42/47/42
f 35/39/35 42/47/42 34/38/34
f 42/47/42 35/39/35 36/48/36
f 29/40/29 36/48/36 35/39/35
f 43/49/43 36/41/36 44/50/44
f 37/42/37 44/50/44 36/41/36
f 44/50/44 37/42/37 45/51/45
f 38/43/38 45/51/45 37/42/37
f 45/51/45 38/43/38 46/52/46
f 39/44/39 46/52/46 38/43/38
f 46/52/46 39/44/39 47/53/47
f 40/45/40 47/53/47 39/44/39
f 47/53/47 40/45/40 48/54/48
f 41/46/41 48/54/48 40/45/40
f 48/54/48 41/46/41 49/55/49
f 42/47/42 49/55/49 41/46/41
f 49/55/49 42/47/42 43/56/43
f 36/48/36 43/56/43 42/47/42
f 50/57/50 43/49/43 51/58/51
f 44/50/44 51/58/51 43/49/43
f 51/58/51 44/50/44 52/59/52
f 45/51/45 52/59/52 44/50/44
f 52/59/52 45/51/45 53/60/53
f 46/52/46 53/60/53 45/51/45
f 53/60/53 46/52/46 54/61/54
f 47/53/47 54/61/54 46/52/46
f 54/61/54 47/53/47 55/62/55
f 48/54/48 55/62/55 47/53/47
f 55/62/55 48/54/48 56/63/56
f 49/55/49 56/63/56 48/54/48
f 56/63/56 49/55/49 50/64/50
f 43/56/43 50/64/50 49/55/49
f 57/65/57 50/57/50 58/66/58
f 51/58/51 58/66/58 50/57/50
f 58/66/58 51/58/51 59/67/59
f 52/59/52 59/67/59 51/58/51
f 59/67/59 52/59/52 60/68/60
f 53/60/53 60/68/60 52/59/52
f 60/68/60 53/60/53 61/69/61
f 54/61/54 61/69/61 53/60/53
f 61/69/61 54/61/54 62/70/62
f 55/62/55 62/70/62 54/61/54
f 62/70/62 55/62/55 63/71/63
f 56/63/56 63/71/63 55/62/55
f 63/71/63 56/63/56 57/72/57
f 50/64/50 57/72/57 56/63/56
f 64/73/64 57/65/57 65/74/65
f 58/66/58 65/74/65 57/65/57
f 65/74/65 58/66/58 66/75/66
f 59/67/59 66/75/66 58/66/58
f 66/75/66 59/67/59 67/76/67
f 60/68/60 67/76/67 59/67/59
f 67/76/67 60/68/60 68/77/68
f 61/69/61 68/77/68 60/68/60
f 68/77/68 61/69/61 69/78/69
f 62/70/62 69/78/69 61/69/61
f 69/78/69 62/70/62 70/79/70
f 63/71/63 70/79/70 62/70/62
f 70/79/70 63/71/63 64/80/64
f 57/72/57 64/80/64 63/71/63
f 71/81/71 64/73/64 72/82/72
f 65/74/65 72/82/72 64/73/64
f 72/82/72 65/74/65 73/83/73
f 66/75/66 73/83/73 65/74/65
f 73/83/73 66/75/66 74/84/74
f 67/76/67 74/84/74 66/75/66
f 74/84/74 67/76/67 75/85/75
f 68/77/68 75/85/75 67/76/67
f 75/85/75 68/77/68 76/86/76
f 69/78/69 76/86/76 68/77/68
f 76/86/76 69/78/69 77/87/77
f 70/79/70 77/87/77 69/78/69
f 77/87/77 70/79/70 71/88/71
f 64/80/64 71/88/71 70/79/70
f 78/89/78 71/81/71 79/90/79
f 72/82/72 79/90/79 71/81/71
f 79/90/79 72/82/72 80/91/80
f 73/83/73 80/91/80 72/82/72
f 80/91/80 73/83/73 81/92/81
f 74/84/74 81/92/81 73/83/73
f 81/92/81 74/84/74 82/93/82
f 75/85/75 82/93/82 74/84/74
f 82/93/82 75/85/75 83/94/83
f 76/86/76 83/94/83 75/85/75
f 83/94/83 76/86/76 84/95/84
f 77/87/77 84/95/84 76/86/76
f 84/95/84 77/87/77 78/96/78
f 71/88/71 78/96/78 77/87/77
usemtl Leaf
f 85/97/85 86/98/86 87/99/87
f 85/97/85 87/99/87 88/100/88
f 89/97/89 90/99/90 91/98/91
f 89/97/89 92/100/92 90/99/90
f 93/97/93 94/99/94 95/98/95
f 93/97/93 96/100/96 94/99/94
f 97/97/97 98/98/98 99/99/99
f 97/97/97 99/99/99 100/100/100
f 101/97/101 102/98/102 103/99/103
f 101/97/101 103/99/103 104/100/104
f 105/97/105 106/99/106 107/98/107
f 105/97/105 108/100/108 106/99/106
f 109/97/109 110/98/110 111/99/111
f 109/97/109 111/99/111 112/100/112
f 113/97/113 114/98/114 115/99/115
f 113/97/113 115/99/115 116/100/116
f 117/97/117 118/98/118 119/99/119
f 117/97/117 119/99/119 120/100/120
f 121/97/121 122/99/122 123/98/123
f 121/97/121 124/100/124 122/99/122
f 125/97/125 126/99/126 127/98/127
f 125/97/125 128/100/128 126/99/126
f 129/97/129 130/98/130 131/99/131
f 129/97/129 131/99/131 132/100/132
f 133/97/133 134/99/134 135/98/135
f 133/97/133 136/100/136 134/99/134
f 137/97/137 138/98/138 139/99/139
f 137/97/137 139/99/139 140/100/140
f 141/97/141 142/99/142 143/98/143
f 141/97/141 144/100/144 142/99/142
f 145/97/145 146/99/146 147/98/147
f 145/97/145 148/100/148 146/99/146
f 149/97/149 150/99/150 151/98/151
f 149/97/149 152/100/152 150/99/150
f 153/97/153 154/98/154 155/99/155
f 153/97/153 155/99/155 156/100/156
f 157/97/157 158/99/158 159/98/159
f 157/97/157 160/100/160 158/99/158
f 161/97/161 162/98/162 163/99/163
f 161/97/161 163/99/163 164/100/164
f 165/97/165 166/98/166 167/99/167
f 165/97/165 167/99/167 168/100/168
f 169/97/169 170/99/170 171/98/171
f 169/97/169 172/100/172 170/99/170
f 173/97/173 174/99/174 175/98/175
f 173/97/173 176/100/176 174/99/174
f 177/97/177 178/98/178 179/99/179
f 177/97/177 179/99/179 180/100/180
f 181/97/181 182/99/182 183/98/183
f 181/97/181 184/100/184 182/99/182
f 185/97/185 186/98/186 187/99/187
f 185/97/185 187/99/187 188/100/188
f 189/97/189 190/98/190 191/99/191
f 189/97/189 191/99/191 192/100/192
f 193/97/193 194/98/194 195/99/195
f 193/97/193 195/99/195 196/100/196
f 197/97/197 198/99/198 199/98/199
f 197/97/197 200/100/200 198/99/198
f 201/97/201 202/99/202 203/98/203
f 201/97/201 204/100/204 202/99/202
f 205/97/205 206/98/206 207/99/207
f 205/97/205 207/99/207 208/100/208
f 209/97/209 210/98/210 211/99/211
f 209/97/209 211/99/211 212/100/212
f 213/97/213 214/98/214 215/99/215
f 213/97/213 215/99/215 216/100/216
f 217/97/217 218/99/218 219/98/219
f 217/97/217 220/100/220 218/99/218
f 221/97/221 222/98/222 223/99/223
f 221/97/221 223/99/223 224/100/224
f 225/97/225 226/98/226 227/99/227
f 225/97/225 227/99/227 228/100/228
f 229/97/229 230/99/230 231/98/231
f 229/97/229 232/100/232 230/99/230
f 233/97/233 234/98/234 235/99/235
f 233/97/233 235/99/235 236/100/236
f 237/97/237 238/98/238 239/99/239
f 237/97/237 239/99/239 240/100/240
f 241/97/241 242/99/242 243/98/243
f 241/97/241 244/100/244 242/99/242
f 245/97/245 246/99/246 247/98/247
f 245/97/245 248/100/248 246/99/246
f 249/97/249 250/99/250 251/98/251
f 249/97/249 252/100/252 250/99/250
f 253/97/253 254/99/254 255/98/255
f 253/97/253 256/100/256 254/99/254
f 257/97/257 258/99/258 259/98/259
f 257/97/257 260/100/260 258/99/258
f 261/97/261 262/98/262 263/99/263
f 261/97/261 263/99/263 264/100/264
f 265/97/265 266/98/266 267/99/267
f 265/97/265 267/99/267 268/100/268
f 269/97/269 270/98/270 271/99/271
f 269/97/269 271/99/271 272/100/272
f 273/97/273 274/98/274 275/99/275
f 273/97/273 275/99/275 276/100/276
f 277/97/277 278/99/278 279/98/279
f 277/97/277 280/100/280 278/99/278
f 281/97/281 282/99/282 283/98/283
f 281/97/281 284/100/284 282/99/282
f 285/97/285 286/98/286 287/99/287
f 285/97/285 287/99/287 288/100/288
f 289/97/289 290/99/290 291/98/291
f 289/97/289 292/100/292 290/99/290
f 293/97/293 294/99/294 295/98/295
f 293/97/293 296/100/296 294/99/294
f 297/97/297 298/98/298 299/99/299
f 297/97/297 299/99/299 300/100/300
f 301/97/301 302/99/302 303/98/303
f 301/97/301 304/100/304 302/99/302
f 305/97/305 306/98/306 307/99/307
f 305/97/305 307/99/307 308/100/308
f 309/97/309 310/99/310 311/98/311
f 309/97/309 312/100/312 310/99/310
f 313/97/313 314/98/314 315/99/315
f 313/97/313 315/99/315 316/100/316
f 317/97/317 318/99/318 319/98/319
f 317/97/317 320/100/320 318/99/318
f 321/97/321 322/98/322 323/99/323
f 321/97/321 323/99/323 324/100/324
f 325/97/325 326/98/326 327/99/327
f 325/97/325 327/99/327 328/100/328
f 329/97/329 330/98/330 331/99/331
f 329/97/329 331/99/331 332/100/332
f 333/97/333 334/98/334 335/99/335
f 333/97/333 335/99/335 336/100/336
f 337/97/337 338/98/338 339/99/339
f 337/97/337 339/99/339 340/100/340
f 341/97/341 342/99/342 343/98/343
f 341/97/341 344/100/344 342/99/342
f 345/97/345 346/99/346 347/98/347
f 345/97/345 348/100/348 346/99/346
f 349/97/349 350/99/350 351/98/351
f 349/97/349 352/100/352 350/99/350
f 353/97/353 354/99/354 355/98/355
f 353/97/353 356/100/356 354/99/354
f 357/97/357 358/98/358 359/99/359
f 357/97/357 359/99/359 360/100/360
f 361/97/361 362/98/362 363/99/363
f 361/97/361 363/99/363 364/100/364
f 365/97/365 366/99/366 367/98/367
f 365/97/365 368/100/368 366/99/366
f 369/97/369 370/98/370 371/99/371
f 369/97/369 371/99/371 372/100/372
f 373/97/373 374/98/374 375/99/375
f 373/97/373 375/99/375 376/100/376
f 377/97/377 378/99/378 379/98/379
f 377/97/377 380/100/380 378/99/378
f 381/97/381 382/99/382 383/98/383
f 381/97/381 384/100/384 382/99/382
f 385/97/385 386/99/386 387/98/387
f 385/97/385 388/100/388 386/99/386
f 389/97/389 390/98/390 391/99/391
f 389/97/389 391/99/391 392/100/392
f 393/97/393 394/98/394 395/99/395
f 393/97/393 395/99/395 396/100/396
f 397/97/397 398/99/398 399/98/399
f 397/97/397 400/100/400 398/99/398
f 401/97/401 402/99/402 403/98/403
f 401/97/401 404/100/404 402/99/402
f 405/97/405 406/99/406 407/98/407
f 405/97/405 408/100/408 406/99/406
f 409/97/409 410/99/410 411/98/411
f 409/97/409 412/100/412 410/99/410
f 413/97/413 414/98/414 415/99/415
f 413/97/413 415/99/415 416/100/416
f 417/97/417 418/98/418 419/99/419
f 417/97/417 419/99/419 420/100/420
f 421/97/421 422/98/422 423/99/423
f 421/97/421 423/99/423 424/100/424
f 425/97/425 426/98/426 427/99/427
f 425/97/425 427/99/427 428/100/428
f 429/97/429 430/99/430 431/98/431
f 429/97/429 432/100/432 430/99/430
f 433/97/433 434/99/434 435/98/435
f 433/97/433 436/100/436 434/99/434
f 437/97/437 438/99/438 439/98/439
f 437/97/437 440/100/440 438/99/438
f 441/97/441 442/99/442 443/98/443
f 441/97/441 444/100/444 442/99/442
f 445/97/445 446/99/446 447/98/447
f 445/97/445 448/100/448 446/99/446
f 449/97/449 450/98/450 451/99/451
f 449/97/449 451/99/451 452/100/452
f 453/97/453 454/99/454 455/98/455
f 453/97/453 456/100/456 454/99/454
f 457/97/457 458/99/458 459/98/459
f 457/97/457 460/100/460 458/99/458
f 461/97/461 462/98/462 463/99/463
f 461/97/461 463/99/463 464/100/464
f 465/97/465 466/99/466 467/98/467
f 465/97/465 468/100/468 466/99/466
f 469/97/469 470/99/470 471/98/471
f 469/97/469 472/100/472 470/99/470
f 473/97/473 474/99/474 475/98/475
f 473/97/473 476/100/476 474/99/474
f 477/97/477 478/99/478 479/98/479
f 477/97/477 480/100/480 478/99/478
f 481/97/481 482/98/482 483/99/483
f 481/97/481 483/99/483 484/100/484
f 485/97/485 486/98/486 487/99/487
f 485/97/485 487/99/487 488/100/488
f 489/97/489 490/99/490 491/98/491
f 489/97/489 492/100/492 490/99/490
f 493/97/493 494/98/494 495/99/495
f 493/97/493 495/99/495 496/100/496
f 497/97/497 498/98/498 499/99/499
f 497/97/497 499/99/499 500/100/500
f 501/97/501 502/99/502 503/98/503
f 501/97/501 504/100/504 502/99/502
f 505/97/505 506/99/506 507/98/507
f 505/97/505 508/100/508 506/99/506
f 509/97/509 510/99/510 511/98/511
f 509/97/509 512/100/512 510/99/510
f 513/97/513 514/98/514 515/99/515
f 513/97/513 515/99/515 516/100/516
f 517/97/517 518/99/518 519/98/519
f 517/97/517 520/100/520 518/99/518
f 521/97/521 522/98/522 523/99/523
f 521/97/521 523/99/523 524/100/524
f 525/97/525 526/98/526 527/99/527
f 525/97/525 527/99/527 528/100/528
f 529/97/529 530/98/530 531/99/531
f 529/97/529 531/99/531 532/100/532
f 533/97/533 534/98/534 535/99/535
f 533/97/533 535/99/535 536/100/536
f 537/97/537 538/98/538 539/99/539
f 537/97/537 539/99/539 540/100/540
f 541/97/541 542/99/542 543/98/543
f 541/97/541 544/100/544 542/99/542
f 545/97/545 546/99/546 547/98/547
f 545/97/545 548/100/548 546/99/546
f 549/97/549 550/98/550 551/99/551
f 549/97/549 551/99/551 552/100/552
f 553/97/553 554/98/554 555/99/555
f 553/97/553 555/99/555 556/100/556
f 557/97/557 558/99/558 559/98/559
f 557/97/557 560/100/560 558/99/558
f 561/97/561 562/99/562 563/98/563
f 561/97/561 564/100/564 562/99/562
f 565/97/565 566/98/566 567/99/567
f 565/97/565 567/99/567 568/100/568
f 569/97/569 570/99/570 571/98/571
f 569/97/569 572/100/572 570/99/570
f 573/97/573 574/99/574 575/98/575
f 573/97/573 576/100/576 574/99/574
f 577/97/577 578/99/578 579/98/579
f 577/97/577 580/100/580 578/99/578
f 581/97/581 582/98/582 583/99/583
f 581/97/581 583/99/583 584/100/584
f 585/97/585 586/99/586 587/98/587
f 585/97/585 588/100/588 586/99/586
f 589/97/589 590/99/590 591/98/591
f 589/97/589 592/100/592 590/99/590
f 593/97/593 594/99/594 595/98/595
f 593/97/593 596/100/596 594/99/594
f 597/97/597 598/99/598 599/98/599
f 597/97/597 600/100/600 598/99/598
f 601/97/601 602/99/602 603/98/603
f 601/97/601 604/100/604 602/99/602
f 605/97/605 606/98/606 607/99/607
f 605/97/605 607/99/607 608/100/608
f 609/97/609 610/98/610 611/99/611
f 609/97/609 611/99/611 612/100/612
f 613/97/613 614/99/614 615/98/615
f 613/97/613 616/100/616 614/99/614
f 617/97/617 618/99/618 619/98/619
f 617/97/617 620/100/620 618/99/618
f 621/97/621 622/99/622 623/98/623
f 621/97/621 624/100/624 622/99/622
f 625/97/625 626/99/626 627/98/627
f 625/97/625 628/100/628 626/99/626
f 629/97/629 630/99/630 631/98/631
f 629/97/629 632/100/632 630/99/630
f 633/97/633 634/99/634 635/98/635
f 633/97/633 636/100/636 634/99/634
f 637/97/637 638/98/638 639/99/639
f 637/97/637 639/99/639 640/100/640
f 641/97/641 642/99/642 643/98/643
f 641/97/641 644/100/644 642/99/642
f 645/97/645 646/98/646 647/99/647
f 645/97/645 647/99/647 648/100/648
f 649/97/649 650/98/650 651/99/651
f 649/97/649 651/99/651 652/100/652
f 653/97/653 654/99/654 655/98/655
f 653/97/653 656/100/656 654/99/654
f 657/97/657 658/99/658 659/98/659
f 657/97/657 660/100/660 658/99/658
f 661/97/661 662/98/662 663/99/663
f 661/97/661 663/99/663 664/100/664
f 665/97/665 666/99/666 667/98/667
f 665/97/665 668/100/668 666/99/666
f 669/97/669 670/98/670 671/99/671
f 669/97/669 671/99/671 672/100/672
f 673/97/673 674/99/674 675/98/675
f 673/97/673 676/100/676 674/99/674
f 677/97/677 678/99/678 679/98/679
f 677/97/677 680/100/680 678/99/678
f 681/97/681 682/99/682 683/98/683
f 681/97/681 684/100/684 682/99/682
f 685/97/685 686/98/686 687/99/687
f 685/97/685 687/99/687 688/100/688
f 689/97/689 690/98/690 691/99/691
f 689/97/689 691/99/691 692/100/692
f 693/97/693 694/98/694 695/99/695
f 693/97/693 695/99/695 696/100/696
f 697/97/697 698/99/698 699/98/699
f 697/97/697 700/100/700 698/99/698
f 701/97/701 702/99/702 703/98/703
f 701/97/701 704/100/704 702/99/702
f 705/97/705 706/99/706 707/98/707
f 705/97/705 708/100/708 706/99/706
f 709/97/709 710/98/710 711/99/711
f 709/97/709 711/99/711 712/100/712
f 713/97/713 714/99/714 715/98/715
f 713/97/713 716/100/716 714/99/714
f 717/97/717 718/99/718 719/98/719
f 717/97/717 720/100/720 718/99/718
f 721/97/721 722/98/722 723/99/723
f 721/97/721 723/99/723 724/100/724
f 725/97/725 726/98/726 727/99/727
f 725/97/725 727/99/727 728/100/728
f 729/97/729 730/99/730 731/98/731
f 729/97/729 732/100/732 730/99/730
f 733/97/733 734/99/734 735/98/735
f 733/97/733 736/100/736 734/99/734
f 737/97/737 738/98/738 739/99/739
f 737/97/737 739/99/739 740/100/740
f 741/97/741 742/99/742 743/98/743
f 741/97/741 744/100/744 742/99/742
f 745/97/745 746/99/746 747/98/747
f 745/97/745 748/100/748 746/99/746
f 749/97/749 750/98/750 751/99/751
f 749/97/749 751/99/751 752/100/752
f 753/97/753 754/98/754 755/99/755
f 753/97/753 755/99/755 756/100/756
f 757/97/757 758/99/758 759/98/759
f 757/97/757 760/100/760 758/99/758
f 761/97/761 762/99/762 763/98/763
f 761/97/761 764/100/764 762/99/762
f 765/97/765 766/99/766 767/98/767
f 765/97/765 768/100/768 766/99/766
f 769/97/769 770/99/770 771/98/771
f 769/97/769 772/100/772 770/99/770
f 773/97/773 774/99/774 775/98/775
f 773/97/773 776/100/776 774/99/774
f 777/97/777 778/99/778 779/98/779
f 777/97/777 780/100/780 778/99/778
f 781/97/781 782/98/782 783/99/783
f 781/97/781 783/99/783 784/100/784
f 785/97/785 786/99/786 787/98/787
f 785/97/785 788/100/788 786/99/786
f 789/97/789 790/98/790 791/99/791
f 789/97/789 791/99/791 792/100/792
f 793/97/793 794/99/794 795/98/795
f 793/97/793 796/100/796 794/99/794
f 797/97/797 798/98/798 799/99/799
f 797/97/797 799/99/799 800/100/800
f 801/97/801 802/99/802 803/98/803
f 801/97/801 804/100/804 802/99/802
f 805/97/805 806/98/806 807/99/807
f 805/97/805 807/99/807 808/100/808
f 809/97/809 810/99/810 811/98/811
f 809/97/809 812/100/812 810/99/810
f 813/97/813 814/99/814 815/98/815
f 813/97/813 816/100/816 814/99/814
f 817/97/817 818/99/818 819/98/819
f 817/97/817 820/100/820 818/99/818
f 821/97/821 822/99/822 823/98/823
f 821/97/821 824/100/824 822/99/822
f 825/97/825 826/99/826 827/98/827
f 825/97/825 828/100/828 826/99/826
f 829/97/829 830/98/830 831/99/831
f 829/97/829 831/99/831 832/100/832
f 833/97/833 834/98/834 835/99/835
f 833/97/833 835/99/835 836/100/836
f 837/97/837 838/99/838 839/98/839
f 837/97/837 840/100/840 838/99/838
f 841/97/841 842/99/842 843/98/843
f 841/97/841 844/100/844 842/99/842
f 845/97/845 846/98/846 847/99/847
f 845/97/845 847/99/847 848/100/848
f 849/97/849 850/99/850 851/98/851
f 849/97/849 852/100/852 850/99/850
f 853/97/853 854/98/854 855/99/855
f 853/97/853 855/99/855 856/100/856
f 857/97/857 858/99/858 859/98/859
f 857/97/857 860/100/860 858/99/858
f 861/97/861 862/98/862 863/99/863
f 861/97/861 863/99/863 864/100/864
f 865/97/865 866/99/866 867/98/867
f 865/97/865 868/100/868 866/99/866
f 869/97/869 870/98/870 871/99/871
f 869/97/869 871/99/871 872/100/872
f 873/97/873 874/99/874 875/98/875
f 873/97/873 876/100/876 874/99/874
f 877/97/877 878/99/878 879/98/879
f 877/97/877 880/100/880 878/99/878
f 881/97/881 882/99/882 883/98/883
f 881/97/881 884/100/884 882/99/882
f 885/97/885 886/99/886 887/98/887
f 885/97/885 888/100/888 886/99/886
f 889/97/889 890/99/890 891/98/891
f 889/97/889 892/100/892 890/99/890
f 893/97/893 894/99/894 895/98/895
f 893/97/893 896/100/896 894/99/894
f 897/97/897 898/98/898 899/99/899
f 897/97/897 899/99/899 900/100/900
f 901/97/901 902/99/902 903/98/903
f 901/97/901 904/100/904 902/99/902
f 905/97/905 906/99/906 907/98/907
f 905/97/905 908/100/908 906/99/906
f 909/97/909 910/99/910 911/98/911
f 909/97/909 912/100/912 910/99/910
f 913/97/913 914/99/914 915/98/915
f 913/97/913 916/100/916 914/99/914
f 917/97/917 918/99/918 919/98/919
f 917/97/917 920/100/920 918/99/918
f 921/97/921 922/98/922 923/99/923
f 921/97/921 923/99/923 924/100/924
f 925/97/925 926/99/926 927/98/927
f 925/97/925 928/100/928 926/99/926
f 929/97/929 930/99/930 931/98/931
f 929/97/929 932/100/932 930/99/930
f 933/97/933 934/99/934 935/98/935
f 933/97/933 936/100/936 934/99/934
f 937/97/937 938/99/938 939/98/939
f 937/97/937 940/100/940 938/99/938
f 941/97/941 942/99/942 943/98/943
f 941/97/941 944/100/944 942/99/942
f 945/97/945 946/99/946 947/98/947
f 945/97/945 948/100/948 946/99/946
f 949/97/949 950/99/950 951/98/951
f 949/97/949 952/100/952 950/99/950
f 953/97/953 954/99/954 955/98/955
f 953/97/953 956/100/956 954/99/954
f 957/97/957 958/98/958 959/99/959
f 957/97/957 959/99/959 960/100/960
f 961/97/961 962/99/962 963/98/963
f 961/97/961 964/100/964 962/99/962
