# Blender 5.0.1
# www.blender.org
mtllib Tree2.mtl
o Tree-2
v 0.001923 0.722296 -0.002920
v 0.010443 0.000161 -0.013669
v -0.002585 0.722856 -0.004639
v 0.000390 0.000161 -0.016230
v -0.007133 0.723634 -0.003152
v -0.008508 0.000100 -0.012322
v -0.009995 0.724312 0.000645
v -0.015485 0.000015 -0.005446
v -0.010191 0.724660 0.005467
v -0.015451 -0.000084 0.004612
v -0.007419 0.724510 0.009462
v -0.011225 -0.000173 0.014693
v -0.002880 0.723947 0.011214
v -0.000321 -0.000133 0.013376
v 0.001776 0.723159 0.009807
v 0.008121 -0.000096 0.011761
v 0.004587 0.722479 0.005875
v 0.015162 -0.000015 0.005333
v 0.004658 0.722150 0.001054
v 0.015711 0.000086 -0.004690
v 0.017723 0.826096 -0.004917
v 0.013606 0.826672 -0.006553
v 0.009370 0.827021 -0.005127
v 0.006831 0.827017 -0.001546
v 0.006602 0.826700 0.002808
v 0.009012 0.826149 0.006495
v 0.013198 0.825578 0.007976
v 0.017395 0.825232 0.006565
v 0.020105 0.825210 0.003085
v 0.020199 0.825545 -0.001316
v 0.049524 1.157323 0.008032
v 0.046014 1.157656 0.006891
v 0.042415 1.158127 0.007763
v 0.040227 1.158570 0.010788
v 0.040194 1.158807 0.014495
v 0.042308 1.158754 0.017517
v 0.045757 1.158439 0.018845
v 0.049238 1.157964 0.017689
v 0.051574 1.157515 0.014848
v 0.051630 1.157274 0.011117
v 0.054293 1.216546 0.001503
v 0.050956 1.216468 0.000245
v 0.047467 1.216785 0.001170
v 0.045335 1.217389 0.004042
v 0.045332 1.218015 0.007569
v 0.047439 1.218418 0.010362
v 0.050721 1.218497 0.011616
v 0.054077 1.218167 0.010580
v 0.056314 1.217591 0.007886
v 0.056501 1.216950 0.004322
v 0.055857 1.278543 -0.005725
v 0.052480 1.278514 -0.006794
v 0.049177 1.278418 -0.005717
v 0.047144 1.278292 -0.002961
v 0.046944 1.278177 0.000479
v 0.048841 1.278117 0.003452
v 0.052204 1.278140 0.004673
v 0.055496 1.278241 0.003436
v 0.057506 1.278367 0.000688
v 0.057673 1.278480 -0.002717
v 0.046631 1.492892 0.005449
v 0.043757 1.492388 0.004516
v 0.040930 1.491993 0.005466
v 0.039104 1.491830 0.007826
v 0.038976 1.491971 0.010829
v 0.040558 1.492361 0.013440
v 0.043469 1.492866 0.014279
v 0.046276 1.493259 0.013347
v 0.048084 1.493419 0.011003
v 0.048206 1.493279 0.008025
v 0.035574 1.538629 0.003818
v 0.032915 1.537806 0.002903
v 0.030284 1.537046 0.003818
v 0.028629 1.536620 0.006104
v 0.028460 1.536657 0.008978
v 0.030055 1.537206 0.011332
v 0.032659 1.538012 0.012194
v 0.035208 1.538747 0.011289
v 0.036881 1.539181 0.009102
v 0.037012 1.539134 0.006282
v 0.021409 1.583241 0.002741
v 0.018943 1.582437 0.001958
v 0.016510 1.581691 0.002751
v 0.014849 1.581227 0.004829
v 0.014828 1.581303 0.007546
v 0.016183 1.581804 0.009893
v 0.018702 1.582627 0.010727
v 0.021230 1.583403 0.009945
v 0.022774 1.583825 0.007719
v 0.022806 1.583753 0.005015
v -0.007185 1.630167 0.012711
v 0.125821 1.597660 -0.006401
v 0.039580 1.543590 0.002918
v 0.075314 1.680653 0.026764
v 0.004581 1.603655 -0.021300
v -0.035910 1.539996 0.067680
v 0.035927 1.546825 0.028739
v -0.050547 1.619648 0.046679
v -0.011499 1.601265 0.000900
v 0.050040 1.546971 0.011694
v 0.103215 1.599704 -0.023244
v 0.041136 1.657926 -0.029833
v 0.035988 1.525141 0.036882
v 0.018085 1.584036 -0.017667
v -0.024532 1.623832 0.042004
v -0.009718 1.559082 0.095264
v -0.028632 1.586685 0.001875
v 0.070639 1.537661 0.011282
v 0.093482 1.556111 -0.094459
v 0.016870 1.640008 -0.092839
v -0.013773 1.569544 -0.005478
v 0.061334 1.570593 0.097860
v 0.065393 1.533088 0.017306
v -0.013083 1.618956 0.071109
v -0.007250 1.574351 0.015792
v 0.060074 1.528573 0.000377
v 0.063450 1.577161 -0.071367
v -0.020831 1.593357 -0.060392
v 0.048971 1.503035 0.042113
v 0.020080 1.565617 -0.020638
v 0.073923 1.631087 0.018363
v 0.130754 1.560742 0.048369
v 0.092866 1.505673 0.005070
v -0.009767 1.538563 0.010725
v 0.023726 1.623916 0.070043
v 0.127393 1.582223 0.070725
v 0.024898 1.504141 -0.038860
v -0.045152 1.575441 0.053746
v 0.044993 1.545813 0.044956
v -0.049007 1.576167 -0.043886
v 0.069482 1.457649 0.013572
v 0.116638 1.608470 0.011883
v 0.015042 1.556684 0.007868
v 0.169774 1.504479 0.002155
v 0.040666 1.476751 0.044837
v 0.036880 1.540008 -0.021344
v -0.018899 1.589764 0.035346
v -0.023387 1.515325 0.094380
v 0.029948 1.454213 0.036700
v 0.053961 1.540076 -0.011643
v 0.024908 1.595727 0.064931
v 0.030137 1.511273 0.125130
v 0.059894 1.428963 -0.011324
v 0.090793 1.574258 -0.077821
v 0.029825 1.538142 0.025719
v 0.074010 1.459072 -0.121675
v -0.011845 1.523721 0.000280
v 0.107656 1.515661 0.119802
v 0.089027 1.462714 0.016373
v 0.018032 1.594871 0.094302
v 0.054219 1.429725 -0.032242
v 0.006236 1.583622 -0.056126
v 0.035254 1.518528 0.042244
v -0.000879 1.479615 -0.119730
v 0.109759 1.452003 0.015993
v -0.008998 1.499032 0.002917
v 0.006458 1.573387 0.105980
v 0.136701 1.560120 0.092666
v 0.064091 1.506685 -0.024974
v -0.065550 1.455128 0.013375
v 0.028708 1.434481 0.036993
v -0.033715 1.548524 -0.018879
v 0.026634 1.515431 -0.042733
v 0.059377 1.426874 0.049187
v 0.165830 1.501767 0.078488
v 0.135427 1.584663 -0.025542
v 0.028294 1.422372 0.051392
v 0.059357 1.482617 -0.026467
v -0.033155 1.524911 -0.034375
v -0.052809 1.493410 0.064556
v 0.054767 1.395999 -0.011890
v 0.144701 1.521084 0.005377
v 0.036258 1.498970 0.020484
v 0.160035 1.416534 -0.035449
v 0.021255 1.481079 -0.034250
v 0.046271 1.489873 0.121649
v 0.064673 1.405678 0.039965
v -0.024357 1.545764 0.043790
v -0.000840 1.487796 -0.005713
v 0.082989 1.401429 0.016406
v 0.162335 1.472601 -0.050693
v 0.063262 1.542241 -0.089751
v 0.003014 1.477427 -0.005210
v 0.078449 1.413445 0.129856
v 0.082854 1.393767 0.015661
v 0.026423 1.519685 0.107183
v 0.021732 1.494069 0.028590
v 0.068084 1.380035 -0.011851
v 0.064656 1.420234 -0.134042
v 0.030331 1.542392 -0.092696
v 0.085086 1.362670 0.029570
v 0.017529 1.462466 -0.014769
v 0.105111 1.535905 0.051791
v 0.141689 1.426055 0.118811
v 0.025346 1.465203 -0.006244
v 0.173364 1.398842 0.010590
v 0.064621 1.358665 0.014943
v 0.131696 1.508510 -0.011412
v 0.039413 1.336141 0.009561
v -0.054158 1.463539 -0.073778
v 0.052032 1.463119 0.006684
v -0.075301 1.336540 -0.041562
v 0.018402 1.428527 -0.052406
v 0.072243 1.365558 0.052081
v 0.193200 1.383130 0.004581
v 0.142674 1.470069 -0.088473
v 0.019114 1.337625 0.053129
v 0.070714 1.436731 -0.036167
v -0.059479 1.493201 -0.052852
v -0.105195 1.418888 0.065278
v 0.015226 1.444428 -0.013406
v 0.075332 1.330177 0.018477
v 0.162491 1.345405 -0.079858
v 0.128023 1.477197 -0.087165
v 0.066738 1.312073 0.029575
v 0.034568 1.438078 -0.016296
v 0.006986 1.479622 0.110739
v 0.056799 1.356599 0.161151
v 0.103018 1.343826 -0.027141
v -0.004803 1.466247 -0.073840
v 0.003666 1.389608 0.027788
v 0.074480 1.387797 -0.135290
v 0.016592 1.392823 0.050463
v 0.075362 1.328659 -0.035749
v -0.014251 1.355487 -0.116055
v -0.074513 1.421911 -0.026882
v 0.110617 1.319593 0.004675
v -0.000304 1.386279 0.000851
v 0.035861 1.454104 0.105051
v 0.154673 1.393318 0.103487
v 0.045475 1.294992 -0.050109
v -0.070883 1.415227 0.029384
v 0.053016 1.383222 0.044839
v -0.063679 1.367557 -0.094331
v 0.081084 1.286121 -0.024201
v 0.024226 1.392628 0.023204
v 0.140751 1.453348 0.016291
v 0.198749 1.337081 -0.017717
v 0.028556 1.257839 0.019404
v 0.066864 1.395321 -0.014645
v -0.063935 1.444744 0.030711
v -0.065577 1.330267 0.127120
v 0.108202 1.294113 0.015602
v 0.065207 1.433237 -0.099246
v 0.004785 1.369899 -0.006651
v 0.180249 1.392153 -0.046485
v 0.018922 1.376848 -0.047969
v -0.025421 1.300401 0.138634
v 0.078603 1.280481 0.042327
v -0.036246 1.437844 0.085753
v -0.004521 1.367197 -0.000371
v 0.118208 1.279466 0.144055
v 0.099094 1.262876 0.000760
v 0.031170 1.403063 0.140555
v 0.084684 1.265490 -0.047986
v 0.005983 1.436771 -0.049603
v 0.025027 1.344239 0.039790
v 0.105015 1.381140 -0.122913
v 0.105864 1.246540 -0.020020
v 0.008578 1.339993 0.014846
v 0.085709 1.387792 0.117638
v 0.198030 1.317800 0.063455
v 0.002802 1.340632 0.051616
v 0.090984 1.260029 -0.042166
v 0.020012 1.317830 -0.162317
v -0.056079 1.417305 -0.068726
v -0.002923 1.336181 0.042871
v 0.218469 1.333033 0.004944
v 0.096619 1.241787 -0.034813
v 0.115267 1.446364 0.057688
v -0.000579 1.342652 -0.010025
v 0.097252 1.219218 0.010975
v 0.204744 1.281832 -0.083561
v 0.133550 1.426404 -0.061560
v 0.058366 1.218984 0.054366
v 0.045674 1.313590 -0.046470
v -0.049251 1.381306 0.033974
v -0.043163 1.274345 0.129856
v -0.024033 1.287426 -0.027802
v 0.113049 1.237985 0.023498
v 0.178708 1.322979 -0.092864
v 0.032781 1.347260 -0.154778
v 0.032367 1.343186 -0.013085
v 0.032724 1.208371 0.162442
v 0.069680 1.194216 0.013089
v 0.018076 1.366791 0.143087
v 0.118982 1.205903 -0.022145
v -0.018773 1.342169 -0.112881
v -0.000633 1.285397 0.022746
v 0.121313 1.289786 -0.151629
v 0.072274 1.184404 0.048746
v 0.038661 1.302196 -0.036369
v 0.110228 1.388918 0.061367
v 0.134387 1.266191 0.151902
v 0.102571 1.293838 -0.038521
v -0.085210 1.177137 -0.087819
v 0.007981 1.192301 0.039261
v -0.034897 1.324749 -0.133834
v 0.011581 1.185301 0.066673
v 0.181895 1.332780 0.080568
v 0.085240 1.273542 -0.049223
v 0.132917 1.196837 0.170360
v 0.006258 1.139135 0.010342
v 0.086277 1.293512 0.006369
v -0.067205 1.372354 0.018177
v -0.149127 1.212545 0.021747
v 0.006065 1.174904 0.081085
v 0.086462 1.244413 -0.052980
v -0.054474 1.348524 -0.069121
v -0.143651 1.239915 0.039529
v 0.124746 1.166857 0.034764
v 0.088287 1.361809 -0.098157
v -0.008673 1.256698 -0.013346
v 0.227052 1.292830 -0.022325
v 0.051682 1.119460 0.064430
v 0.044571 1.268563 -0.040253
v -0.015985 1.363122 0.108775
v -0.027819 1.201019 0.205057
v 0.100697 1.240898 -0.058013
v 0.009298 1.141604 0.063335
v 0.071143 1.268583 0.191011
v 0.203736 1.319679 0.066824
v -0.027454 1.134791 -0.023519
v 0.112133 1.229223 0.036004
v 0.126428 1.298691 -0.134230
v 0.006108 1.170735 -0.193694
v 0.099006 1.237928 -0.046540
v 0.007595 1.126377 0.056140
v 0.073599 1.218609 0.198718
v 0.189625 1.305306 0.085497
v 0.029986 1.081369 -0.013678
v 0.059158 1.256410 0.033199
v -0.091620 1.309049 -0.051473
v -0.143664 1.128514 -0.067088
v 0.026544 1.235410 -0.051490
v 0.063234 1.109842 0.061577
v 0.217923 1.186055 0.092411
v 0.181609 1.309704 -0.031456
v 0.066705 1.051787 0.039533
v 0.224392 1.265076 0.021778
v 0.027284 1.232578 -0.013334
v 0.252267 1.067495 0.003095
v 0.054473 1.204996 -0.079356
v -0.122860 1.210819 0.125138
v 0.037976 1.111516 0.086951
v -0.106134 1.304729 -0.048167
v 0.112477 1.173053 0.080884
v 0.085998 1.214819 -0.172427
v -0.008732 1.109475 -0.042950
v 0.227104 1.237825 -0.044544
v -0.060905 1.121944 -0.004694
v 0.092736 1.223424 0.205737
v 0.128191 1.166713 0.022893
v -0.094703 1.263098 0.146748
v -0.039900 1.081005 -0.039066
v 0.112415 1.167175 0.052997
v 0.153362 1.261763 -0.122564
v 0.019196 1.138880 -0.217140
v 0.122249 1.176785 -0.009073
v -0.101537 1.122712 -0.129750
v -0.022696 1.071598 0.027923
v -0.008189 1.283678 -0.113761
v 0.043831 1.025935 0.052130
v 0.147073 1.255516 0.103041
v 0.035043 1.191938 -0.017295
v 0.100846 1.113749 0.210908
v -0.040421 1.065849 0.053553
v 0.106770 1.131651 -0.026122
v 0.004622 1.224971 -0.142479
v -0.146135 1.182072 -0.044000
v 0.050288 1.179217 -0.061617
v 0.031137 1.050411 0.074578
v 0.200412 1.082065 0.137931
v 0.203187 1.246625 0.036996
v 0.016364 1.153217 -0.082283
v -0.114929 1.141124 0.166914
v 0.056985 1.039257 0.082935
v -0.176406 1.182582 -0.033302
v 0.071754 1.001857 0.037841
v 0.194835 1.223990 0.000431
v 0.014125 1.170668 -0.010702
v 0.245843 1.039421 0.014918
v -0.042118 1.031203 0.048532
v 0.080056 1.261925 0.102387
v 0.106582 1.122054 -0.018314
v -0.100690 1.203633 0.125031
v 0.125608 1.120380 -0.030687
v -0.032710 1.027226 0.042044
v 0.013452 1.089584 0.224680
v 0.168290 1.197870 0.148411
v 0.051926 0.988813 0.084365
v 0.109544 1.238473 0.066565
v 0.026048 1.109801 -0.054261
v 0.179250 1.088503 0.167220
v 0.108576 1.138903 -0.004741
v -0.162456 1.114345 -0.062240
v -0.021463 0.989481 0.018362
v -0.011475 1.246552 -0.113711
v 0.050002 1.013625 0.105668
v 0.205167 1.096858 -0.093509
v 0.022620 1.065227 -0.071153
v 0.223975 1.104888 0.096329
v 0.097466 1.110226 -0.048471
v -0.157664 1.130142 0.039565
v -0.016074 0.988600 0.049724
v -0.043997 1.229080 -0.093063
v 0.053059 1.134408 0.058575
v 0.196351 0.966665 -0.137051
v 0.019316 0.949719 -0.028974
v 0.220399 1.166509 -0.066024
v 0.044108 1.127920 0.060633
v 0.026534 0.952795 -0.028453
v -0.173928 0.982529 -0.033548
v -0.150373 1.149872 0.081363
v 0.019588 0.939280 -0.066800
v 0.040049 1.089242 0.066815
v 0.123040 1.205122 -0.076018
v 0.097897 1.052170 -0.215219
v -0.055217 0.968639 -0.042951
v 0.103160 1.038462 0.047661
v 0.167445 1.118590 -0.118441
v -0.018949 1.108786 -0.190765
v 0.043629 0.910362 0.046225
v -0.001807 1.156843 0.161027
v 0.028460 1.091011 -0.025028
v 0.032682 0.971009 0.231252
v 0.111854 1.049071 -0.060550
v -0.189025 1.006491 -0.075596
v -0.036364 0.957174 0.062593
v -0.054364 1.153510 -0.165997
v 0.053391 0.905262 0.056883
v 0.131545 1.171126 0.089113
v 0.011862 1.074317 -0.033730
v 0.089547 1.030395 0.225487
v 0.085903 0.928921 0.093437
v 0.136606 1.181087 -0.071478
v -0.019063 1.037882 -0.059272
v 0.223774 1.099003 0.114051
v -0.041085 0.904120 -0.060029
v -0.087546 1.104968 0.166779
v 0.084696 1.027226 0.063027
v -0.217944 1.022324 0.009134
v 0.014201 0.883805 -0.072340
v 0.037441 1.050127 0.067251
v 0.234105 1.094602 -0.007709
v 0.167655 1.007670 -0.201558
v 0.004223 0.861999 0.068317
v -0.074299 1.159246 0.089373
v 0.048238 1.041591 -0.043009
v -0.174478 0.973422 0.155363
v 0.103069 1.029548 0.057726
v 0.026736 0.996901 -0.217248
v -0.035873 0.909969 -0.036880
v 0.189432 1.089797 -0.113673
v 0.014458 0.846144 0.064315
v -0.000202 1.137499 0.148467
v 0.041294 1.031492 -0.043105
v 0.010315 0.941288 0.255962
v -0.051215 0.865503 -0.003459
v 0.089396 1.016180 0.012008
v 0.037295 1.079232 -0.180577
v -0.098906 0.915129 -0.196632
v -0.022551 0.851458 0.066321
v 0.167566 1.071979 0.129476
v 0.063470 1.008404 -0.045650
v 0.084769 0.902690 0.239708
v 0.099893 1.036461 -0.016008
v -0.184037 0.940248 -0.138828
v -0.032304 0.851716 0.018083
v -0.029669 1.115033 -0.186612
v -0.025197 0.998170 0.091980
v 0.267261 0.925640 -0.001790
v 0.062560 0.869896 -0.066576
v 0.179374 1.078866 0.143413
v -0.041124 0.847375 -0.071035
v -0.106834 1.116756 0.097486
v 0.076540 0.992322 0.059306
v -0.200645 1.024603 -0.094863
v 0.046772 0.801264 -0.051480
v 0.002670 1.004112 0.052271
v 0.220876 1.074103 0.018584
v 0.235819 0.919237 -0.160718
v 0.064355 1.024242 -0.015489
v -0.011575 0.825136 0.022468
v -0.214784 0.908037 -0.010382
v -0.127060 1.114928 -0.011441
v 0.109718 0.967961 0.047556
v -0.050816 0.850831 -0.032161
v -0.175115 0.902987 0.134425
v -0.054029 1.083961 0.158249
v 0.027409 0.779385 -0.075395
v 0.012664 0.979404 0.066814
v -0.127245 1.090761 -0.099407
v -0.135289 0.876734 -0.234695
v -0.024685 0.774507 0.051294
v 0.046768 1.077868 0.187101
v 0.049050 0.986915 -0.035292
v -0.031481 0.859309 0.276232
v 0.121039 0.957824 -0.037186
v -0.177840 0.841296 -0.177635
v -0.066107 0.816585 0.035931
v -0.040743 1.048082 -0.217762
v -0.067321 0.785736 -0.068428
v -0.074368 1.119383 0.011386
v 0.083517 0.925864 0.065749
v -0.244181 0.949173 -0.075205
v 0.093557 0.809778 -0.075190
v -0.044570 0.913406 0.063046
v 0.124190 1.068098 0.081860
v 0.270025 0.909678 0.000487
v -0.069480 0.789178 -0.065567
v -0.079269 1.005666 0.179927
v 0.084280 0.913826 0.052156
v -0.240815 0.921038 0.029378
v 0.039665 0.749821 -0.073786
v -0.000898 0.936288 0.068581
v 0.196033 1.041250 -0.037540
v 0.252525 0.822214 -0.137888
v 0.071360 0.966509 -0.011481
v -0.038962 0.746538 0.006918
v -0.138895 0.803654 0.218986
v -0.122769 1.044587 0.148021
v -0.024410 0.768468 -0.103756
v 0.042230 0.903038 0.084947
v 0.133433 1.065283 -0.066527
v 0.068198 0.921328 -0.259343
v 0.097160 0.920960 -0.030118
v -0.055299 0.758226 0.026269
v 0.013886 0.763148 0.244586
v 0.082817 0.984824 0.207738
v -0.052983 0.741589 -0.077465
v 0.068819 0.898462 0.063691
v -0.005768 1.078317 -0.092910
v -0.085630 0.900671 -0.254103
v 0.018560 0.723704 0.104961
v 0.196274 1.023888 0.015793
v 0.006260 0.892490 -0.082970
v 0.176361 0.884750 0.234425
v 0.070952 0.937675 -0.038882
v -0.253282 0.820958 -0.060752
v -0.036284 0.724629 0.034322
v -0.114775 1.006203 -0.178106
v 0.044805 0.938708 0.035559
v -0.017669 0.700893 -0.026428
v -0.178010 0.812216 -0.203486
v -0.158143 1.038282 -0.069127
v -0.099922 0.726694 -0.071847
v -0.080585 0.941134 0.238069
v 0.096350 0.847240 0.061468
v -0.284918 0.828076 0.093659
v -0.002328 0.665660 -0.090725
v 0.011065 0.876448 0.075372
v 0.178652 1.003269 -0.087860
v 0.085916 0.845187 -0.292790
v -0.106545 0.700096 0.030119
v -0.042211 1.048832 0.088851
v 0.100406 0.848041 -0.018202
v -0.214667 0.866230 0.186313
v 0.043393 0.904853 0.012647
v -0.072639 0.685128 -0.253509
v -0.032513 0.661578 -0.005273
v -0.102049 0.941537 -0.214219
v 0.009460 0.633463 0.013594
v -0.109001 0.889156 0.217780
v 0.005009 0.879251 -0.006232
v -0.077792 0.637115 0.243614
v -0.060703 0.642907 0.017148
v 0.051744 0.856221 -0.007295
v -0.126017 0.928258 -0.157669
v -0.231170 0.701309 -0.142229
v 0.057735 0.880952 -0.059842
v -0.046321 0.662071 0.056042
v 0.120857 0.680301 0.260236
v 0.136717 0.948963 0.207770
v 0.057635 0.885677 -0.016201
v -0.300496 0.753346 0.034688
v -0.043953 0.631491 0.011549
v -0.187155 0.997983 -0.059474
v -0.001006 0.671737 0.126381
v 0.213668 0.940658 0.003242
v 0.005356 0.799420 -0.101432
v 0.235169 0.752387 0.197452
v -0.094669 0.650600 -0.054331
v -0.084213 0.876385 0.224526
v 0.072891 0.809531 0.045986
v -0.276820 0.792476 0.075655
v 0.062175 0.761878 0.124841
v 0.164212 0.752343 -0.219662
v -0.051896 0.715299 -0.095641
v 0.223769 0.920915 -0.034667
v 0.111178 0.800391 0.007710
v -0.096732 0.662282 -0.001015
v -0.148909 0.714372 0.234485
v 0.023837 0.903608 0.227447
v 0.070896 0.805904 0.094343
v 0.089999 0.734555 -0.268212
v -0.061745 0.652107 -0.070124
v 0.224124 0.895864 -0.098510
v 0.035119 0.830992 -0.090174
v -0.039718 0.616454 0.079246
v -0.064698 0.814281 0.289009
v 0.077517 1.007744 0.118895
v -0.099347 0.639630 -0.075805
v 0.075878 0.767950 0.067173
v 0.116268 0.938094 -0.121677
v -0.126813 0.880982 -0.212181
v -0.024576 0.546615 0.035153
v 0.098873 0.854734 0.255969
v 0.016309 0.823212 -0.023452
v 0.107103 0.559580 0.282920
v 0.119860 0.773984 -0.039390
v -0.232052 0.717458 -0.183919
v -0.102558 0.642397 0.039047
v -0.069816 0.940184 -0.186925
v 0.046106 0.792605 -0.080303
v -0.285176 0.695517 0.032846
v -0.043132 0.603643 0.074018
v -0.187854 0.867772 -0.149500
v 0.102063 0.584660 0.069192
v 0.100785 0.854895 -0.218807
v -0.086539 0.749946 -0.048650
v 0.304277 0.755468 -0.047458
v 0.010262 0.785312 -0.091421
v -0.249872 0.660578 0.151730
v -0.009482 0.591292 0.087642
v -0.196937 0.905340 0.049163
v 0.098491 0.770676 0.044305
v -0.032454 0.621426 -0.299689
v -0.086561 0.574930 -0.031137
v 0.129070 0.848468 -0.227007
v 0.060122 0.804723 -0.037748
v -0.054013 0.544558 0.035625
v -0.248645 0.694329 0.206304
v -0.088357 0.949108 0.159926
v 0.038633 0.787074 0.039518
v -0.070592 0.610670 -0.280327
v -0.035403 0.538656 -0.026554
v -0.119318 0.863658 -0.189714
v 0.006165 0.795684 -0.071497
v -0.011215 0.534071 0.063251
v 0.008627 0.661079 0.326477
v -0.062264 0.925794 0.198701
v -0.125962 0.534057 0.010455
v 0.098165 0.724162 -0.003303
v 0.018442 0.808235 -0.271901
v -0.262954 0.743143 -0.191523
v -0.061560 0.627157 0.153243
v 0.304851 0.735327 -0.014141
v 0.043476 0.654852 -0.119127
v 0.159433 0.841472 0.225206
v -0.008980 0.718890 -0.119970
v 0.004895 0.548658 0.099334
v 0.228888 0.693154 0.191943
v 0.219930 0.857299 -0.043848
v 0.000282 0.727782 -0.103400
v -0.249530 0.651807 0.186709
v -0.004164 0.521237 0.090764
v -0.268214 0.790643 -0.072865
v 0.000588 0.780459 0.024869
v -0.001114 0.479275 -0.004607
v 0.292621 0.476714 -0.059095
v 0.308326 0.776821 0.021531
v -0.101227 0.474431 -0.004912
v -0.052559 0.802705 0.243618
v 0.070683 0.708878 0.003081
v -0.293260 0.647272 0.165635
v 0.062720 0.742831 0.042809
v 0.046090 0.510873 -0.294758
v -0.056434 0.491466 -0.030397
v 0.097724 0.797669 -0.248787
v -0.092144 0.489327 0.096724
v 0.152198 0.813593 0.180935
v 0.073223 0.666822 -0.074174
v 0.020345 0.589297 0.345909
v 0.061153 0.726297 -0.047447
v -0.059211 0.463055 0.046047
v 0.076449 0.485397 0.312664
v 0.106472 0.791143 0.262172
v -0.137625 0.502131 0.062226
v 0.107524 0.636505 -0.046042
v -0.078224 0.810946 -0.214087
v -0.318561 0.633694 -0.127110
v -0.008567 0.712295 -0.050901
v 0.004334 0.446847 0.042160
v 0.228494 0.547946 0.207424
v 0.250621 0.772554 0.019773
v 0.111176 0.604788 -0.113443
v -0.308069 0.677165 -0.066590
v -0.094614 0.532240 0.094670
v -0.084387 0.864208 -0.165676
v 0.098389 0.424966 0.054573
v 0.187710 0.814751 -0.093776
v -0.083206 0.655336 -0.039611
v 0.345999 0.536757 -0.078525
v 0.033890 0.700343 -0.043613
v -0.284250 0.520704 0.142843
v -0.031498 0.432189 0.038671
v -0.157634 0.781656 0.190103
v -0.120052 0.433230 -0.010800
v -0.005911 0.716308 0.272961
v 0.091735 0.633869 0.012111
v -0.261011 0.566080 0.221413
v 0.119586 0.635308 0.004335
v -0.155992 0.559542 -0.276588
v -0.097777 0.441401 0.000558
v 0.130778 0.658784 -0.281055
v 0.037942 0.641681 -0.080032
v -0.323782 0.437605 0.014416
v -0.033401 0.390958 0.065925
v -0.259871 0.724515 -0.074275
v 0.002308 0.608535 -0.134400
v -0.005988 0.427684 0.115331
v 0.290945 0.478584 0.169995
v 0.284855 0.718044 -0.037346
v 0.013004 0.635026 -0.099713
v -0.297782 0.473646 0.184485
v -0.014017 0.378917 0.084141
v -0.215759 0.776064 0.102501
v 0.128244 0.410551 0.081543
v 0.120393 0.772649 -0.150846
v -0.106476 0.562032 -0.058849
v 0.346056 0.549043 -0.081351
v 0.162099 0.500339 0.074078
v -0.134465 0.458058 -0.054145
v -0.273929 0.579523 0.214764
v 0.022653 0.702150 0.309483
v -0.166813 0.442270 0.028153
v 0.173450 0.574004 0.266331
v 0.129190 0.501862 -0.020603
v -0.135321 0.616629 0.293976
v 0.042317 0.623007 0.087360
v -0.030087 0.490719 -0.354751
v -0.045457 0.347262 -0.066273
v -0.082394 0.781453 -0.197690
v 0.045378 0.631230 -0.017813
v -0.228737 0.332010 -0.244642
v -0.042680 0.319415 0.020400
v -0.250239 0.661728 -0.199082
v 0.066016 0.277071 0.051078
v 0.195604 0.709385 0.166549
v -0.055488 0.578525 -0.040209
v 0.350196 0.393579 0.163098
v 0.127991 0.515913 -0.084771
v -0.305530 0.574871 -0.079883
v -0.106700 0.387909 0.072076
v -0.061772 0.697555 -0.247690
v -0.075187 0.529436 -0.139137
v 0.057860 0.359302 0.117261
v 0.359003 0.484255 0.050833
v 0.218046 0.696685 -0.181708
v -0.002761 0.553663 -0.141601
v -0.201418 0.570613 0.285559
v -0.006410 0.329683 0.112671
v -0.261729 0.728523 -0.023818
v -0.067394 0.272972 -0.061838
v 0.056115 0.540195 0.055408
v 0.126959 0.628824 -0.247897
v 0.034319 0.332331 -0.353931
v -0.109605 0.288041 -0.094743
v 0.085216 0.506825 0.080354
v 0.110625 0.711060 -0.190126
v -0.159467 0.542983 -0.336821
v 0.095814 0.514685 -0.108077
v -0.080776 0.324564 0.090820
v -0.005678 0.515855 0.344552
v 0.152404 0.728986 0.136845
v 0.049090 0.576205 -0.033315
v -0.354250 0.326958 -0.114079
v -0.043246 0.250468 0.030799
v -0.221378 0.639199 -0.226429
v 0.079476 0.504756 -0.126512
v -0.066213 0.309454 0.105325
v 0.100067 0.471389 0.348711
v 0.232165 0.689002 0.113109
v 0.021332 0.296197 0.168185
v 0.269262 0.647893 -0.041090
v -0.015873 0.444539 -0.139737
v 0.343094 0.399917 0.206271
v 0.004616 0.525719 -0.112924
v -0.318486 0.344606 0.208135
v -0.008393 0.246761 0.088375
v -0.290516 0.650584 0.030826
v 0.080935 0.273845 0.130071
v 0.217602 0.626972 -0.119426
v -0.067607 0.458225 -0.096771
v 0.370147 0.388274 0.069525
v -0.149643 0.249821 0.036268
v 0.025086 0.664350 0.217081
v 0.120455 0.447261 -0.024609
v -0.301516 0.564595 0.156058
v 0.122796 0.440701 0.126004
v 0.058014 0.494909 -0.350476
v -0.101466 0.298137 -0.099171
v 0.319918 0.575145 -0.113865
v 0.065020 0.513441 -0.039532
v -0.056814 0.215572 0.035047
v -0.173118 0.373353 0.318241
v 0.057678 0.622470 0.260854
v -0.044130 0.208407 -0.108829
v 0.032466 0.464132 0.091276
v 0.016727 0.677015 -0.162651
v -0.181531 0.452151 -0.326015
v -0.034554 0.219054 0.150129
v 0.143582 0.675196 0.092265
v 0.018246 0.435413 -0.116713
v 0.036190 0.482555 0.373420
v 0.042605 0.511063 -0.011560
v -0.267023 0.240755 -0.217105
v -0.039254 0.195678 0.013318
v -0.173972 0.564416 -0.244605
v -0.033340 0.441336 -0.154490
v 0.021905 0.240217 0.134394
v 0.347716 0.365098 0.171125
v 0.265138 0.634223 -0.062113
v 0.090630 0.433397 -0.128540
v -0.378258 0.372245 0.021152
v -0.075542 0.244470 0.112581
v -0.207818 0.633643 -0.152577
v -0.012720 0.498170 -0.065750
v 0.012641 0.165583 0.064072
v 0.344777 0.136420 -0.043466
v 0.354632 0.500106 -0.092068
v 0.051713 0.423812 -0.138190
v -0.329011 0.401834 0.146283
v -0.042988 0.224850 0.118033
v -0.230223 0.603758 -0.120895
v 0.000701 0.109658 -0.055346
v 0.005416 0.454635 0.049865
v 0.021291 0.554009 -0.303696
v 0.044312 0.194618 -0.402066
v -0.161609 0.196905 0.047359
v 0.030637 0.592957 0.259825
v 0.128850 0.385985 -0.035591
v -0.164711 0.301715 0.381455
v -0.128191 0.192645 -0.108320
v 0.094735 0.375348 0.089326
v 0.198623 0.549871 -0.192769
v -0.030249 0.358471 -0.395875
v -0.042536 0.128561 0.113175
v 0.042752 0.621766 0.210005
v 0.024900 0.420528 -0.088225
v -0.033624 0.321873 0.417541
v 0.113204 0.424549 -0.027836
v -0.343565 0.330559 -0.142999
v -0.093437 0.157050 0.024441
v -0.109791 0.582905 -0.227493
v -0.002274 0.157675 0.149583
v 0.244071 0.557907 0.017791
v -0.004591 0.375258 -0.115008
v 0.175279 0.410627 0.328623
v 0.119433 0.301097 -0.151312
v -0.336241 0.470936 -0.022757
v -0.100964 0.218711 0.118622
v -0.130384 0.478824 -0.332201
v -0.026736 0.149713 0.157155
v 0.346396 0.438068 -0.021101
v 0.017771 0.364880 -0.120598
v 0.276037 0.291783 0.304313
v -0.124164 0.127256 -0.108548
v -0.193914 0.477392 0.286881
v 0.099878 0.347180 0.094258
v -0.416918 0.380623 -0.008470
v 0.018616 0.112308 -0.141061
v -0.014988 0.358958 0.120010
v 0.303223 0.502143 0.039290
v 0.272552 0.355200 -0.297678
v -0.083799 0.069606 0.035860
v -0.170593 0.518826 0.191871
v 0.062350 0.377224 -0.029220
v -0.278318 0.188908 0.285846
v -0.140877 0.151631 0.126362
v 0.195152 0.519752 0.190820
v 0.112241 0.289014 -0.100188
v 0.005488 0.280506 0.420384
v 0.033814 0.427288 -0.012289
v -0.178945 0.087647 -0.333365
v -0.024248 0.064616 0.011364
v -0.043665 0.443846 -0.364045
v 0.138723 0.363611 -0.054550
v -0.374545 0.281358 -0.183401
v -0.105447 0.083764 0.037138
v -0.077123 0.497365 -0.335049
v 0.008621 0.274763 -0.186159
v -0.012517 0.157129 0.155859
v 0.310240 0.284098 0.232589
v 0.283896 0.503968 -0.064893
v 0.035693 0.394520 -0.051223
v -0.384657 0.110151 0.056039
v -0.029361 0.051061 0.050642
v -0.303732 0.462811 0.138373
v 0.046481 0.370125 0.099945
v 0.283898 0.061360 -0.279578
v -0.037091 0.041959 -0.075994
v 0.254041 0.448337 -0.253594
v -0.151419 0.112807 -0.124675
v -0.145097 0.462779 0.290497
v 0.121315 0.253091 0.104898
v -0.425323 0.319490 0.050853
v -0.105733 0.005412 -0.004464
v -0.149258 0.456357 0.248638
v 0.074787 0.325465 -0.001815
v -0.361367 0.144352 0.219581
v -0.088433 0.002232 -0.073009
v 0.073522 0.299963 0.060024
v -0.011845 0.469098 -0.262144
v -0.108561 0.134129 -0.407292
v -0.015102 1.594905 -0.016410
v 0.039068 1.632553 0.071440
v 0.047733 1.574086 0.023180
v -0.009057 1.666756 0.018836
vn 0.6181 0.0029 -0.7861
vn 0.6016 0.0190 -0.7986
vn 0.0273 0.0113 -0.9996
vn -0.0709 0.0157 -0.9974
vn -0.5779 0.0196 -0.8159
vn -0.5620 0.0116 -0.8271
vn -0.9411 0.0270 -0.3371
vn -0.9252 0.0102 -0.3792
vn -0.9597 0.0262 0.2798
vn -0.9783 0.0069 0.2070
vn -0.6165 0.0229 0.7870
vn -0.5012 0.0089 0.8653
vn -0.0364 0.0071 0.9993
vn 0.1498 0.0035 0.9887
vn 0.5814 -0.0014 0.8136
vn 0.4609 0.0064 0.8874
vn 0.9497 -0.0048 0.3132
vn 0.9079 0.0130 0.4190
vn 0.9571 -0.0040 -0.2898
vn 0.9704 0.0168 -0.2409
vn 0.6162 -0.0477 -0.7861
vn 0.0278 0.0234 -0.9993
vn -0.5891 0.0873 -0.8033
vn -0.9393 0.1162 -0.3229
vn -0.9568 0.1054 0.2709
vn -0.6100 0.0552 0.7905
vn -0.0102 -0.0164 0.9998
vn 0.5734 -0.0774 0.8156
vn 0.9380 -0.1081 0.3294
vn 0.9511 -0.0959 -0.2937
vn 0.5988 -0.0429 -0.7998
vn 0.0393 0.0137 -0.9991
vn -0.5500 0.0672 -0.8324
vn -0.9422 0.0975 -0.3206
vn -0.9521 0.0907 0.2920
vn -0.6130 0.0523 0.7883
vn -0.0255 -0.0068 0.9997
vn 0.5588 -0.0606 0.8271
vn 0.9328 -0.0903 0.3490
vn 0.9549 -0.0844 -0.2848
vn 0.5949 -0.1213 -0.7946
vn 0.0444 -0.1147 -0.9924
vn -0.5656 -0.0604 -0.8225
vn -0.9475 0.0182 -0.3193
vn -0.9493 0.0891 0.3015
vn -0.6029 0.1258 0.7878
vn -0.0282 0.1190 0.9925
vn 0.5612 0.0685 0.8248
vn 0.9323 -0.0034 0.3618
vn 0.9540 -0.0805 -0.2889
vn 0.6175 0.0284 -0.7861
vn -0.0015 0.0155 -0.9999
vn -0.5834 -0.0012 -0.8122
vn -0.9405 -0.0167 -0.3395
vn -0.9666 -0.0254 0.2550
vn -0.6234 -0.0245 0.7815
vn 0.0026 -0.0096 1.0000
vn 0.6006 0.0090 0.7995
vn 0.9422 0.0243 0.3342
vn 0.9682 0.0324 -0.2480
vn 0.6081 0.0764 -0.7902
vn -0.0089 0.0367 -0.9993
vn -0.5786 -0.0122 -0.8155
vn -0.9381 -0.0552 -0.3419
vn -0.9633 -0.0774 0.2570
vn -0.5992 -0.0677 0.7978
vn 0.0206 -0.0274 0.9994
vn 0.5772 0.0203 0.8163
vn 0.9381 0.0632 0.3406
vn 0.9619 0.0852 -0.2598
vn 0.6014 0.1443 -0.7858
vn 0.0078 -0.0262 -0.9996
vn -0.5572 -0.1763 -0.8115
vn -0.9049 -0.2569 -0.3393
vn -0.9291 -0.2408 0.2806
vn -0.5774 -0.1254 0.8068
vn -0.0033 0.0386 0.9992
vn 0.5475 0.1829 0.8166
vn 0.9005 0.2647 0.3449
vn 0.9326 0.2533 -0.2571
vn 0.5772 0.1639 -0.8000
vn 0.0042 -0.0199 -0.9998
vn -0.5277 -0.1826 -0.8295
vn -0.8966 -0.2866 -0.3376
vn -0.9222 -0.2728 0.2740
vn -0.5935 -0.1591 0.7890
vn -0.0189 0.0270 0.9995
vn 0.5451 0.1951 0.8154
vn 0.9038 0.2952 0.3099
vn 0.9159 0.2835 -0.2843
vn 0.1439 0.2235 -0.9640
vn -0.3238 0.1579 -0.9329
vn 0.2318 0.1941 -0.9532
vn -0.4196 0.1927 -0.8870
vn 0.3098 0.7411 0.5956
vn 0.7443 0.2526 0.6183
vn 0.2733 0.6949 0.6651
vn 0.7726 0.2676 0.5757
vn 0.3290 0.5079 0.7961
vn 0.3397 0.5586 0.7567
vn 0.0553 0.1917 0.9799
vn 0.0340 0.1263 0.9914
vn 0.6554 0.5956 0.4644
vn 0.5905 0.6533 0.4738
vn 0.9302 0.3401 0.1380
vn 0.9612 0.2510 0.1147
vn 0.4188 0.8854 0.2017
vn 0.4260 0.8947 0.1345
vn 0.5991 0.5104 0.6169
vn 0.5951 0.4578 0.6605
vn 0.4941 0.8514 -0.1760
vn 0.5507 0.5912 -0.5893
vn 0.4056 0.9023 -0.1459
vn 0.6160 0.5028 -0.6063
vn 0.6141 0.7881 0.0420
vn 0.5186 0.8550 0.0069
vn 0.1380 0.7789 0.6118
vn 0.1906 0.7456 0.6386
vn 0.7195 -0.3004 -0.6261
vn 0.7512 -0.2607 -0.6064
vn 0.2728 -0.1678 -0.9473
vn 0.2240 -0.1706 -0.9595
vn 0.1953 0.7384 -0.6455
vn 0.2231 0.7705 -0.5972
vn 0.1570 0.3307 -0.9306
vn 0.1383 0.2696 -0.9530
vn 0.2959 0.8445 -0.4464
vn 0.6430 0.7645 -0.0459
vn 0.2343 0.8251 -0.5141
vn 0.6677 0.7413 0.0681
vn 0.1703 0.2318 0.9577
vn -0.1015 -0.2308 0.9677
vn 0.2737 0.1240 0.9538
vn -0.1940 -0.1428 0.9705
vn 0.5511 0.6044 0.5754
vn 0.4841 0.6612 0.5730
vn 0.8996 0.2340 0.3687
vn 0.9259 0.1372 0.3519
vn 0.9025 0.0696 0.4251
vn 0.8463 -0.0214 0.5322
vn 0.9959 -0.0493 -0.0757
vn 0.9772 0.0479 -0.2071
vn 0.9664 0.2232 0.1278
vn 0.8273 -0.3341 0.4516
vn 0.9667 0.2481 0.0624
vn 0.7863 -0.3910 0.4784
vn 0.5326 0.7851 -0.3161
vn 0.5751 0.4201 -0.7020
vn 0.5240 0.8134 -0.2527
vn 0.5669 0.3561 -0.7428
vn 0.7982 0.4743 -0.3712
vn 0.9888 0.0019 -0.1489
vn 0.7559 0.5131 -0.4066
vn 0.9905 -0.0698 -0.1181
vn 0.3714 0.7394 -0.5615
vn 0.3518 0.7823 -0.5140
vn -0.0499 0.5711 -0.8193
vn -0.0556 0.5259 -0.8488
vn -0.1246 0.6381 0.7598
vn 0.2358 0.2742 0.9323
vn -0.1401 0.7250 0.6743
vn 0.2414 0.1364 0.9608
vn -0.2824 0.6367 0.7176
vn -0.2233 0.6621 0.7154
vn -0.7128 0.4438 0.5431
vn -0.7596 0.4038 0.5099
vn 0.2507 0.7406 0.6234
vn 0.1799 0.7141 0.6766
vn 0.6603 0.6563 0.3649
vn 0.7087 0.6537 0.2653
vn 0.4187 -0.2575 0.8709
vn 0.0238 -0.3168 0.9482
vn 0.4599 -0.1335 0.8779
vn -0.0326 -0.4343 0.9002
vn 0.7930 0.5958 0.1272
vn 0.7885 0.4304 -0.4393
vn 0.7653 0.6138 0.1939
vn 0.7566 0.4022 -0.5155
vn 0.5007 0.6442 0.5783
vn 0.5491 0.6535 0.5209
vn -0.0006 0.5187 0.8550
vn -0.0822 0.4925 0.8664
vn 0.7506 0.6606 -0.0124
vn 0.8510 0.3623 -0.3802
vn 0.6918 0.7216 0.0263
vn 0.8761 0.2601 -0.4061
vn 0.9274 0.3636 -0.0881
vn 0.8884 0.4454 -0.1112
vn 0.9276 0.1897 0.3219
vn 0.9335 0.0956 0.3457
vn 0.7574 0.3342 -0.5609
vn 0.8315 0.2836 -0.4776
vn 0.6206 -0.3295 -0.7115
vn 0.5662 -0.3075 -0.7648
vn 0.2681 -0.0811 -0.9600
vn -0.2152 -0.2688 -0.9388
vn 0.3383 -0.0711 -0.9384
vn -0.2923 -0.2723 -0.9167
vn 0.2699 -0.1292 -0.9542
vn 0.6936 -0.2400 -0.6792
vn 0.1997 0.0404 -0.9790
vn 0.7195 -0.4041 -0.5649
vn 0.2244 0.8527 0.4717
vn 0.2246 0.9069 0.3565
vn -0.1881 0.6989 0.6900
vn -0.1932 0.5978 0.7780
vn 0.0894 0.6118 0.7860
vn 0.0522 0.6797 0.7316
vn 0.5459 0.6272 0.5555
vn 0.5820 0.5645 0.5854
vn 0.6442 0.4954 0.5828
vn 0.6714 0.5111 0.5367
vn 0.4670 0.1676 0.8683
vn 0.4311 0.1246 0.8936
vn 0.8891 0.3579 0.2853
vn 0.8747 0.3264 0.3583
vn 0.9377 0.2679 -0.2211
vn 0.9097 0.2853 -0.3018
vn 0.4965 0.8566 0.1404
vn 0.7850 0.4785 0.3935
vn 0.4398 0.8924 0.1009
vn 0.8267 0.3918 0.4038
vn 0.3364 0.8521 -0.4009
vn 0.2944 0.8501 -0.4366
vn 0.6329 0.7616 -0.1394
vn 0.6638 0.7424 -0.0909
vn 0.4634 0.7628 -0.4509
vn 0.4898 0.7734 -0.4025
vn 0.2900 0.5682 -0.7701
vn 0.2502 0.5377 -0.8051
vn 0.2375 0.6859 -0.6878
vn 0.6158 0.7581 -0.2145
vn 0.1702 0.7292 -0.6628
vn 0.6627 0.7200 -0.2060
vn 0.0347 0.4338 -0.9003
vn 0.0933 0.4366 -0.8948
vn -0.2955 0.1060 -0.9494
vn -0.3474 0.0824 -0.9341
vn 0.4041 0.0643 0.9125
vn 0.3620 0.1717 0.9162
vn 0.7662 0.4525 0.4563
vn 0.7992 0.3928 0.4549
vn 0.3074 0.7240 0.6176
vn -0.1223 0.5550 0.8228
vn 0.4464 0.6602 0.6040
vn -0.2849 0.5700 0.7707
vn 0.5832 0.6899 0.4289
vn 0.9114 0.2317 0.3402
vn 0.5031 0.7653 0.4016
vn 0.9289 0.0942 0.3582
vn 0.7485 0.6618 -0.0430
vn 0.7070 0.5461 -0.4493
vn 0.6673 0.7448 -0.0002
vn 0.7591 0.4326 -0.4865
vn 0.8669 0.4593 0.1934
vn 0.6582 0.2698 0.7028
vn 0.8626 0.4895 0.1279
vn 0.6084 0.2375 0.7572
vn 0.4733 0.7201 -0.5073
vn 0.5423 0.6989 -0.4664
vn 0.0247 0.6230 -0.7818
vn -0.0687 0.6142 -0.7862
vn 0.5585 0.8134 -0.1625
vn 0.5222 0.8232 -0.2226
vn 0.8509 0.5082 0.1334
vn 0.8637 0.4657 0.1927
vn -0.0565 0.6287 -0.7756
vn -0.2273 0.1887 -0.9554
vn 0.0346 0.6281 -0.7774
vn -0.3048 0.1682 -0.9375
vn 0.4886 0.4375 0.7549
vn 0.4434 0.5521 0.7061
vn 0.2889 0.0452 0.9563
vn 0.3140 -0.1023 0.9439
vn 0.5240 0.6251 0.5785
vn 0.4538 0.7051 0.5450
vn 0.8502 0.3966 0.3463
vn 0.8901 0.2818 0.3582
vn 0.1928 0.9255 0.3260
vn 0.2532 0.9280 0.2734
vn -0.1677 0.7264 0.6664
vn -0.2473 0.6820 0.6882
vn 0.9005 0.2580 0.3500
vn 0.9921 0.1049 -0.0685
vn 0.8652 0.3150 0.3901
vn 0.9925 0.0344 -0.1175
vn 0.5377 0.8315 0.1397
vn 0.4569 0.6729 0.5817
vn 0.6137 0.7873 0.0587
vn 0.3467 0.6767 0.6495
vn 0.9407 0.1185 -0.3179
vn 0.9779 0.0551 -0.2015
vn 0.7261 -0.3716 -0.5785
vn 0.6678 -0.3260 -0.6692
vn -0.5565 0.7459 0.3660
vn -0.4924 0.4291 0.7572
vn -0.5422 0.7872 0.2938
vn -0.4948 0.3326 0.8028
vn -0.3821 0.8088 0.4470
vn -0.8127 0.5064 0.2884
vn -0.2686 0.8698 0.4138
vn -0.8804 0.3630 0.3052
vn -0.1195 0.1682 0.9785
vn -0.2263 0.0620 0.9721
vn 0.2525 -0.1878 0.9492
vn 0.3550 -0.0968 0.9298
vn 0.1575 0.8547 0.4946
vn 0.0867 0.8438 0.5296
vn 0.3457 0.4594 0.8182
vn 0.3980 0.4530 0.7978
vn 0.1083 0.6613 0.7423
vn -0.2042 0.4350 0.8770
vn 0.2211 0.6247 0.7489
vn -0.3243 0.4482 0.8330
vn 0.8111 0.3259 0.4857
vn 0.7631 0.4302 0.4823
vn 0.9866 0.0522 0.1543
vn 0.9873 -0.0743 0.1406
vn -0.6355 0.7679 0.0807
vn -0.6452 0.7395 0.1920
vn -0.6523 0.6517 -0.3870
vn -0.5787 0.6392 -0.5065
vn -0.5790 0.8134 -0.0554
vn -0.4924 0.8656 -0.0907
vn -0.7446 0.5946 0.3035
vn -0.8068 0.4900 0.3302
vn -0.6132 0.7556 0.2302
vn -0.5968 0.7370 0.3172
vn -0.7315 0.6287 -0.2637
vn -0.6989 0.6156 -0.3642
vn -0.6255 -0.0570 0.7782
vn -0.6810 -0.1277 0.7211
vn -0.1772 -0.0676 0.9818
vn -0.0944 0.0122 0.9955
vn -0.2046 0.6381 0.7423
vn -0.1384 0.6226 0.7702
vn -0.5701 0.4791 0.6674
vn -0.6298 0.4789 0.6116
vn 0.1858 0.2785 0.9423
vn -0.1901 -0.1085 0.9757
vn 0.2349 0.3563 0.9044
vn -0.2309 -0.2235 0.9470
vn 0.3446 0.8044 0.4840
vn 0.7071 0.5922 0.3864
vn 0.2896 0.8205 0.4928
vn 0.7508 0.5545 0.3588
vn -0.3667 0.9299 -0.0300
vn -0.5308 0.7455 0.4032
vn -0.3942 0.9033 -0.1691
vn -0.4568 0.7048 0.5428
vn -0.0867 0.9327 -0.3500
vn 0.2714 0.7722 -0.5745
vn -0.2508 0.9064 -0.3400
vn 0.4514 0.7170 -0.5311
vn -0.5217 0.8531 -0.0104
vn -0.4402 0.8973 -0.0329
vn -0.7337 0.6157 0.2875
vn -0.7976 0.5240 0.2988
vn -0.3891 0.7560 0.5264
vn -0.5759 0.2221 0.7868
vn -0.4448 0.7538 0.4837
vn -0.5486 0.2022 0.8112
vn -0.7443 0.2925 0.6003
vn -0.9347 0.3335 0.1228
vn -0.7027 0.1688 0.6912
vn -0.8961 0.4437 -0.0125
vn -0.1326 0.8132 0.5666
vn -0.0740 0.8863 0.4571
vn 0.3314 0.6571 0.6771
vn 0.2840 0.5751 0.7672
vn -0.2485 0.6626 0.7066
vn -0.1805 0.7815 0.5973
vn -0.7013 0.4293 0.5690
vn -0.7364 0.2581 0.6254
vn 0.2241 0.8468 0.4825
vn 0.5468 0.8372 0.0126
vn 0.1708 0.8072 0.5651
vn 0.5564 0.8223 -0.1191
vn 0.2117 0.3580 0.9094
vn -0.2300 -0.0331 0.9726
vn 0.2847 0.3335 0.8987
vn -0.2939 -0.0404 0.9550
vn -0.6408 0.4682 -0.6084
vn -0.1397 0.3107 -0.9402
vn -0.5478 0.5859 -0.5972
vn -0.2084 0.2166 -0.9537
vn -0.4640 0.8853 0.0296
vn -0.4935 0.8611 0.1223
vn -0.6704 0.6565 -0.3457
vn -0.6262 0.6476 -0.4342
vn -0.6547 0.4747 0.5882
vn -0.8561 -0.0452 0.5149
vn -0.6084 0.5681 0.5542
vn -0.8332 -0.1768 0.5240
vn -0.4529 0.5334 0.7144
vn 0.0275 0.3437 0.9387
vn -0.5268 0.5302 0.6644
vn 0.1309 0.3308 0.9346
vn -0.0789 0.9325 0.3525
vn -0.5025 0.8626 -0.0589
vn -0.0228 0.9748 0.2220
vn -0.5532 0.8319 0.0433
vn 0.0891 0.6390 0.7640
vn 0.5251 0.3590 0.7716
vn -0.0588 0.5945 0.8019
vn 0.6590 0.3624 0.6591
vn -0.3424 0.4934 -0.7996
vn -0.7298 0.2643 -0.6305
vn -0.2898 0.4113 -0.8642
vn -0.7708 0.3254 -0.5478
vn -0.1826 0.5187 -0.8353
vn -0.2669 0.3968 -0.8783
vn 0.2471 0.4800 -0.8418
vn 0.3375 0.5777 -0.7432
vn -0.8002 0.4824 -0.3563
vn -0.7814 0.4429 -0.4396
vn -0.9758 0.1947 -0.0991
vn -0.9756 0.2191 -0.0105
vn -0.5263 0.8352 0.1593
vn -0.4140 0.8989 0.1433
vn -0.2277 0.7100 0.6663
vn -0.3106 0.6588 0.6852
vn -0.9828 -0.1018 0.1542
vn -0.9419 -0.2088 -0.2632
vn -0.9833 0.0653 0.1697
vn -0.8840 -0.3736 -0.2810
vn -0.1950 0.8757 0.4417
vn -0.0841 0.5796 0.8106
vn -0.2140 0.8973 0.3862
vn -0.0739 0.5202 0.8509
vn -0.8020 0.0944 0.5898
vn -0.9329 0.3581 0.0372
vn -0.7755 0.1581 0.6112
vn -0.9437 0.3306 0.0069
vn -0.3843 0.6579 0.6477
vn -0.7320 0.3752 0.5686
vn -0.2864 0.6226 0.7282
vn -0.8070 0.3819 0.4505
vn -0.1655 0.7263 -0.6672
vn 0.3557 0.7296 -0.5841
vn -0.1500 0.8170 -0.5568
vn 0.3485 0.6485 -0.6767
vn -0.4020 0.6374 -0.6573
vn -0.3476 0.6118 -0.7106
vn -0.6573 0.7462 -0.1059
vn -0.6604 0.7508 -0.0092
vn -0.8329 -0.1819 -0.5227
vn -0.3997 -0.0363 -0.9159
vn -0.8506 -0.0559 -0.5228
vn -0.3751 -0.1310 -0.9177
vn -0.5750 0.7901 -0.2124
vn -0.5846 0.7292 0.3555
vn -0.5092 0.8260 -0.2417
vn -0.6147 0.6827 0.3951
vn -0.9894 0.1177 0.0845
vn -0.9434 -0.1607 -0.2900
vn -0.9600 0.2660 0.0878
vn -0.9028 -0.3210 -0.2864
vn -0.7466 0.6550 0.1161
vn -0.7172 0.6952 0.0476
vn -0.6485 0.4933 0.5798
vn -0.6475 0.4187 0.6367
vn -0.6233 0.6423 0.4460
vn -0.8688 0.4875 0.0872
vn -0.5678 0.6704 0.4776
vn -0.9014 0.4308 0.0446
vn -0.6160 0.6103 0.4981
vn -0.3125 0.4470 0.8381
vn -0.7259 0.5230 0.4468
vn -0.1636 0.5014 0.8496
vn 0.1216 0.8040 -0.5821
vn -0.2032 0.6073 -0.7681
vn 0.1728 0.8101 -0.5602
vn -0.2542 0.5767 -0.7764
vn 0.2255 0.6030 -0.7652
vn 0.6357 0.4847 -0.6008
vn 0.1240 0.5444 -0.8296
vn 0.7156 0.5145 -0.4725
vn -0.2408 0.3539 -0.9038
vn -0.1863 0.4574 -0.8696
vn -0.6553 0.5848 -0.4781
vn -0.6999 0.5141 -0.4958
vn -0.2459 -0.0680 -0.9669
vn -0.3280 -0.0786 -0.9414
vn 0.2967 -0.1266 -0.9465
vn 0.3877 -0.0950 -0.9169
vn -0.3013 0.7962 -0.5248
vn -0.3536 0.7968 -0.4900
vn -0.3935 0.3481 -0.8509
vn -0.3634 0.3227 -0.8740
vn -0.9215 -0.2637 0.2850
vn -0.9457 -0.2358 0.2236
vn -0.5982 -0.4146 0.6857
vn -0.5348 -0.4291 0.7279
vn -0.9097 0.4122 0.0504
vn -0.9430 0.1397 -0.3021
vn -0.9422 0.3067 0.1350
vn -0.8937 0.2300 -0.3851
vn -0.5124 0.8032 0.3039
vn -0.4914 0.4699 0.7333
vn -0.5064 0.8295 0.2357
vn -0.4894 0.3956 0.7771
vn 0.2522 0.4467 -0.8584
vn 0.5034 -0.0237 -0.8637
vn 0.2630 0.5696 -0.7787
vn 0.4517 -0.1803 -0.8737
vn -0.1210 0.7692 -0.6274
vn -0.0320 0.7517 -0.6587
vn -0.1810 0.2338 -0.9553
vn -0.2397 0.2378 -0.9413
vn -0.1395 0.8165 -0.5602
vn 0.2511 0.6523 -0.7152
vn -0.2566 0.7615 -0.5952
vn 0.3743 0.6679 -0.6433
vn -0.2648 0.5012 -0.8238
vn -0.2058 0.6112 -0.7642
vn -0.6678 0.1863 -0.7206
vn -0.6897 0.0314 -0.7234
vn -0.8406 0.2938 -0.4551
vn -0.7860 0.4512 -0.4226
vn -0.6619 -0.1191 -0.7401
vn -0.6414 -0.3069 -0.7032
vn -0.7158 0.6805 -0.1565
vn -0.7114 0.6435 -0.2826
vn -0.9705 0.2283 0.0775
vn -0.9525 0.2354 0.1931
vn -0.6946 0.6989 0.1704
vn -0.6652 0.7138 0.2191
vn -0.9566 0.2780 -0.0875
vn -0.9678 0.2211 -0.1205
vn -0.8678 0.3729 0.3285
vn -0.8616 0.4182 0.2877
vn -0.8562 -0.0937 0.5081
vn -0.8382 -0.1600 0.5214
vn -0.5548 0.6000 0.5764
vn -0.8536 0.4745 0.2147
vn -0.5019 0.6268 0.5960
vn -0.8834 0.4366 0.1705
vn -0.5306 0.4752 0.7019
vn 0.0573 0.5547 0.8300
vn -0.5522 0.5297 0.6439
vn 0.0981 0.5119 0.8534
vn 0.4491 0.1013 -0.8877
vn 0.4066 0.1379 -0.9031
vn 0.8280 0.2581 -0.4978
vn 0.8554 0.2477 -0.4549
vn -0.2581 0.8676 -0.4250
vn 0.0809 0.7344 -0.6739
vn -0.2810 0.8866 -0.3673
vn 0.1107 0.6884 -0.7168
vn -0.7610 0.4407 -0.4761
vn -0.7231 0.4434 -0.5296
vn -0.8849 0.4637 0.0444
vn -0.8788 0.4618 0.1205
vn -0.5387 0.4875 -0.6871
vn -0.4680 -0.0395 -0.8829
vn -0.5202 0.5634 -0.6419
vn -0.4713 -0.1469 -0.8697
vn -0.9533 0.2443 0.1775
vn -0.8506 -0.1528 0.5032
vn -0.9365 0.3251 0.1314
vn -0.8137 -0.2612 0.5193
vn -0.9765 -0.0704 -0.2035
vn -0.8037 -0.1325 -0.5801
vn -0.9892 0.0076 -0.1463
vn -0.7502 -0.2161 -0.6250
vn -0.6577 0.4619 0.5951
vn -0.7215 0.3992 0.5658
vn -0.4132 0.2020 0.8879
vn -0.3427 0.2458 0.9067
vn -0.6724 0.5378 0.5086
vn -0.6017 0.6119 0.5133
vn -0.9565 0.1277 0.2622
vn -0.9700 0.0053 0.2432
vn -0.1671 0.2184 0.9614
vn 0.2830 0.1991 0.9382
vn -0.2596 0.1590 0.9525
vn 0.3834 0.2623 0.8856
vn -0.3500 0.7893 0.5045
vn -0.6939 0.5092 0.5090
vn -0.2799 0.8702 0.4056
vn -0.7264 0.3626 0.5839
vn -0.3569 0.7746 -0.5220
vn 0.1643 0.7316 -0.6616
vn -0.4526 0.7293 -0.5131
vn 0.2808 0.7344 -0.6179
vn -0.2660 0.9629 -0.0462
vn -0.7541 0.5699 -0.3264
vn -0.2205 0.9696 -0.1065
vn -0.7836 0.5394 -0.3083
vn -0.5562 0.8086 -0.1920
vn -0.5245 0.8410 -0.1324
vn -0.5937 0.5340 -0.6019
vn -0.6095 0.4611 -0.6449
vn -0.4998 0.8000 -0.3318
vn -0.7634 0.6456 -0.0175
vn -0.4650 0.7975 -0.3844
vn -0.7797 0.6244 0.0460
vn -0.9509 0.3014 0.0706
vn -0.9062 0.4219 0.0287
vn -0.8169 0.2704 -0.5094
vn -0.8591 0.1755 -0.4808
vn -0.7340 0.5858 0.3435
vn -0.7001 0.6461 0.3039
vn -0.3672 0.4136 0.8331
vn -0.3571 0.3617 0.8612
vn -0.7992 0.2343 0.5535
vn -0.9872 -0.0289 0.1570
vn -0.7614 0.2430 0.6010
vn -0.9932 -0.0635 0.0980
vn -0.3093 0.8083 0.5010
vn -0.4466 0.3243 0.8339
vn -0.3248 0.8339 0.4462
vn -0.4482 0.2598 0.8554
vn -0.2053 0.6372 0.7429
vn 0.3214 0.6429 0.6953
vn -0.2186 0.7124 0.6669
vn 0.3425 0.5709 0.7461
vn 0.2464 0.7467 0.6179
vn -0.2559 0.6712 0.6957
vn 0.3085 0.7455 0.5908
vn -0.3305 0.6514 0.6830
vn 0.2969 0.5648 0.7699
vn 0.6706 0.2167 0.7095
vn 0.2626 0.7021 0.6619
vn 0.6590 0.0272 0.7516
vn -0.6959 0.6942 -0.1841
vn -0.8159 0.5337 0.2222
vn -0.6451 0.7310 -0.2226
vn -0.8424 0.4701 0.2633
vn -0.8291 0.1987 -0.5226
vn -0.8404 0.2558 -0.4777
vn -0.4130 0.1376 -0.9002
vn -0.3647 0.0993 -0.9258
vn -0.9448 0.2407 0.2224
vn -0.8367 -0.3486 0.4223
vn -0.9612 0.2314 0.1499
vn -0.8079 -0.3659 0.4620
vn -0.9910 0.1039 0.0844
vn -0.9818 0.1390 0.1291
vn -0.9369 -0.3217 -0.1368
vn -0.9135 -0.3696 -0.1701
vn -0.5854 0.6872 0.4302
vn -0.5755 0.7338 0.3610
vn 0.0609 0.7494 0.6593
vn 0.0818 0.7174 0.6919
vn -0.3386 0.9389 -0.0625
vn -0.4097 0.7268 -0.5512
vn -0.3162 0.9487 0.0051
vn -0.3899 0.6749 -0.6265
vn -0.3996 0.7336 0.5496
vn -0.3349 0.7106 0.6188
vn -0.7445 0.5176 0.4216
vn -0.7916 0.5161 0.3272
vn 0.1856 0.6440 0.7422
vn 0.5909 0.7503 0.2965
vn 0.1376 0.7009 0.6999
vn 0.6283 0.7136 0.3099
vn 0.3086 -0.1713 0.9356
vn 0.3465 -0.0151 0.9379
vn -0.1164 -0.1851 0.9758
vn -0.1652 -0.3357 0.9274
vn -0.6284 0.5636 -0.5361
vn -0.1867 0.5917 -0.7842
vn -0.7307 0.4654 -0.4995
vn -0.0314 0.6542 -0.7556
vn -0.7923 0.4780 -0.3793
vn -0.9855 0.1693 0.0095
vn -0.7545 0.4934 -0.4327
vn -0.9902 0.1228 0.0664
vn -0.6484 0.7401 0.1785
vn -0.8975 0.4138 -0.1528
vn -0.5834 0.7845 0.2101
vn -0.9297 0.3228 -0.1776
vn -0.7894 0.4564 0.4105
vn -0.7275 0.5369 0.4272
vn -0.9866 0.1389 0.0851
vn -0.9981 0.0211 0.0586
vn -0.2263 0.8318 0.5069
vn -0.2685 0.8491 0.4549
vn -0.0525 0.4629 0.8849
vn -0.0188 0.4049 0.9142
vn -0.2783 0.3208 0.9054
vn -0.2114 0.2962 0.9314
vn -0.6823 0.5172 0.5167
vn -0.7148 0.5489 0.4334
vn 0.2957 0.8075 0.5105
vn 0.0503 0.3515 0.9348
vn 0.1943 0.8210 0.5369
vn 0.1126 0.3478 0.9308
vn 0.2572 0.5480 0.7959
vn 0.0755 0.0602 0.9953
vn 0.3141 0.5480 0.7753
vn 0.0346 0.0299 0.9990
vn 0.4677 0.1780 0.8658
vn 0.5696 -0.4468 0.6899
vn 0.3971 0.1575 0.9042
vn 0.6048 -0.4524 0.6554
vn -0.6110 0.7074 -0.3553
vn -0.2786 0.6890 -0.6691
vn -0.6490 0.6964 -0.3064
vn -0.2129 0.6832 -0.6986
vn -0.6552 0.7551 0.0216
vn -0.2761 0.8495 0.4496
vn -0.6775 0.7344 -0.0408
vn -0.1991 0.8467 0.4934
vn -0.1502 0.5573 0.8166
vn 0.1747 0.2179 0.9602
vn -0.2284 0.5100 0.8293
vn 0.2473 0.2430 0.9379
vn -0.1557 0.7886 0.5949
vn -0.1041 0.8213 0.5609
vn -0.5267 0.5608 0.6389
vn -0.5673 0.4937 0.6591
vn 0.4338 0.5090 0.7435
vn 0.6562 -0.0027 0.7546
vn 0.3746 0.5019 0.7796
vn 0.6923 -0.0211 0.7213
vn 0.0595 0.7771 0.6265
vn 0.0495 0.2511 0.9667
vn 0.1642 0.7497 0.6410
vn -0.0222 0.2648 0.9640
vn 0.0585 0.9471 -0.3154
vn -0.0640 0.9534 -0.2948
vn -0.1056 0.6688 -0.7360
vn -0.0049 0.6540 -0.7565
vn -0.1408 0.9787 -0.1495
vn 0.0014 0.8044 -0.5941
vn -0.2874 0.9547 -0.0769
vn 0.1678 0.7498 -0.6401
vn -0.9718 0.2306 0.0492
vn -0.9285 -0.2761 0.2484
vn -0.9427 0.3309 0.0419
vn -0.8901 -0.3947 0.2279
vn -0.7739 0.2754 0.5703
vn -0.5466 -0.1506 0.8237
vn -0.7978 0.3046 0.5203
vn -0.5042 -0.2095 0.8378
vn -0.3023 0.1579 0.9400
vn -0.5992 -0.3338 0.7277
vn -0.2417 0.1979 0.9500
vn -0.6195 -0.3966 0.6775
vn -0.0563 0.8118 0.5812
vn 0.2609 0.5680 0.7805
vn -0.0925 0.8355 0.5416
vn 0.3026 0.5223 0.7973
vn -0.0222 0.8216 0.5696
vn 0.0288 0.8458 0.5327
vn -0.4028 0.5451 0.7352
vn -0.4464 0.4872 0.7506
vn 0.5737 0.6439 0.5062
vn 0.8592 0.4983 0.1162
vn 0.5104 0.6041 0.6120
vn 0.8631 0.5037 -0.0369
vn -0.8043 0.4843 -0.3443
vn -0.7460 0.5497 -0.3760
vn -0.9510 0.3076 0.0324
vn -0.9746 0.2123 0.0721
vn -0.8147 0.5244 0.2473
vn -0.8058 0.5565 0.2023
vn -0.6153 0.4321 0.6593
vn -0.5931 0.3987 0.6995
vn -0.7538 0.6560 -0.0377
vn -0.7268 0.6869 0.0066
vn -0.8822 0.3347 -0.3311
vn -0.8849 0.2823 -0.3705
vn -0.6245 0.3024 0.7201
vn -0.1436 0.4185 0.8968
vn -0.6588 0.3340 0.6742
vn -0.0896 0.3963 0.9137
vn -0.6280 0.7463 0.2206
vn -0.5907 0.7569 0.2798
vn -0.8901 0.4501 -0.0720
vn -0.9011 0.4117 -0.1358
vn -0.2718 0.8119 0.5166
vn -0.6272 0.4924 0.6034
vn -0.2118 0.9060 0.3666
vn -0.6355 0.3070 0.7085
vn 0.3061 0.5891 0.7479
vn 0.6483 0.2907 0.7037
vn 0.2353 0.5190 0.8218
vn 0.7094 0.3413 0.6167
vn -0.0205 0.8174 0.5757
vn -0.3441 0.3470 0.8725
vn 0.0902 0.7528 0.6520
vn -0.4333 0.3874 0.8138
vn -0.5501 0.4815 -0.6823
vn 0.0964 0.4235 -0.9008
vn -0.5186 0.5678 -0.6393
vn 0.0929 0.3682 -0.9251
vn -0.4555 0.8829 -0.1141
vn -0.5650 0.7005 0.4359
vn -0.4047 0.9002 -0.1610
vn -0.5741 0.6540 0.4926
vn -0.9395 0.3344 -0.0743
vn -0.9176 0.3965 -0.0272
vn -0.6039 0.4967 -0.6234
vn -0.5901 0.4638 -0.6608
vn -0.9736 0.1484 0.1733
vn -0.9724 0.1935 0.1307
vn -0.7239 0.1823 0.6654
vn -0.6916 0.1582 0.7047
vn -0.8341 0.5190 0.1867
vn -0.9637 0.1941 -0.1834
vn -0.8199 0.4864 0.3019
vn -0.9305 0.2039 -0.3043
vn -0.8447 0.2336 0.4816
vn -0.4531 0.2345 0.8601
vn -0.8635 0.2800 0.4195
vn -0.3999 0.1891 0.8968
vn -0.2463 0.7317 0.6356
vn -0.2223 0.8176 0.5312
vn -0.6031 0.4529 0.6567
vn -0.6037 0.3227 0.7290
vn -0.0142 0.7537 0.6571
vn 0.3281 0.3990 0.8563
vn -0.0147 0.8280 0.5605
vn 0.3157 0.2753 0.9080
vn 0.4396 0.3035 0.8454
vn 0.4828 0.4017 0.7782
vn -0.0515 0.1693 0.9842
vn -0.1128 0.0465 0.9925
vn 0.2021 0.7080 0.6767
vn 0.6553 0.5008 0.5655
vn 0.1708 0.7725 0.6116
vn 0.6800 0.4206 0.6006
vn -0.9514 0.0561 -0.3027
vn -0.9253 0.1666 -0.3406
vn -0.9886 -0.0653 0.1359
vn -0.9660 -0.1827 0.1828
vn -0.5636 0.7891 -0.2441
vn -0.8145 0.2888 -0.5032
vn -0.5837 0.7902 -0.1869
vn -0.8066 0.2556 -0.5329
vn -0.5596 0.8288 0.0017
vn -0.6364 0.7617 -0.1218
vn -0.8098 0.5010 0.3054
vn -0.7277 0.5419 0.4204
vn -0.9373 0.3381 0.0852
vn -0.9720 0.0235 -0.2339
vn -0.9434 0.2791 0.1790
vn -0.9429 0.0690 -0.3258
vn -0.4984 0.5159 0.6967
vn -0.0951 0.4114 0.9065
vn -0.5291 0.5403 0.6543
vn -0.0431 0.3822 0.9231
vn -0.6010 0.6395 0.4793
vn -0.8814 0.4697 0.0490
vn -0.5507 0.6149 0.5644
vn -0.8820 0.4664 -0.0681
vn 0.2363 0.9012 0.3632
vn 0.5840 0.6582 0.4752
vn 0.0782 0.8929 0.4435
vn 0.7214 0.5978 0.3497
vn -0.2574 0.8080 0.5300
vn -0.5749 0.7748 0.2630
vn -0.2256 0.7603 0.6091
vn -0.5888 0.7933 0.1549
vn -0.1345 0.6971 -0.7042
vn 0.4485 0.7399 -0.5015
vn -0.1287 0.7804 -0.6120
vn 0.4508 0.6852 -0.5721
vn -0.3957 0.6080 -0.6883
vn -0.3276 0.6954 -0.6395
vn -0.7611 0.6337 -0.1385
vn -0.8093 0.5660 -0.1570
vn -0.7965 0.3107 -0.5188
vn -0.5586 -0.1079 -0.8224
vn -0.8496 0.2672 -0.4547
vn -0.4958 -0.0897 -0.8638
vn -0.4724 0.8810 -0.0262
vn -0.8875 0.4046 -0.2206
vn -0.4611 0.8859 0.0503
vn -0.8950 0.3612 -0.2618
vn -0.9808 0.1810 0.0733
vn -0.7705 0.3437 0.5368
vn -0.9904 0.1379 0.0046
vn -0.7059 0.3921 0.5898
vn -0.4636 0.6937 0.5513
vn -0.0800 0.5824 0.8090
vn -0.6112 0.5936 0.5235
vn 0.1108 0.6289 0.7696
vn -0.3461 0.8716 0.3473
vn -0.2906 0.9286 0.2308
vn -0.7223 0.5523 0.4163
vn -0.7392 0.4322 0.5165
vn 0.0926 0.2357 0.9674
vn 0.3727 -0.2807 0.8845
vn 0.0482 0.3094 0.9497
vn 0.3818 -0.3820 0.8416
vn -0.5055 0.5388 -0.6739
vn -0.8263 -0.0880 -0.5564
vn -0.4571 0.4746 -0.7522
vn -0.8588 -0.0597 -0.5089
vn -0.0108 0.8402 -0.5422
vn 0.3106 0.6339 -0.7083
vn -0.0185 0.8804 -0.4739
vn 0.3164 0.5675 -0.7602
vn -0.6877 0.4808 -0.5440
vn -0.3502 0.2430 -0.9046
vn -0.7884 0.3603 -0.4987
vn -0.2214 0.3326 -0.9167
vn -0.8977 0.4284 0.1029
vn -0.8809 0.4699 0.0567
vn -0.9052 0.0776 0.4178
vn -0.8937 0.0082 0.4487
vn 0.6101 0.5871 -0.5321
vn 0.7475 0.2109 -0.6299
vn 0.4956 0.6511 -0.5748
vn 0.8317 0.1146 -0.5433
vt 0.266107 2.382706
vt 0.266107 -2.723398
vt 0.306107 2.382706
vt 0.306107 -2.723398
vt 0.346107 2.382706
vt 0.346107 -2.723398
vt 0.386107 2.382706
vt 0.386107 -2.723398
vt 0.426107 2.382706
vt 0.426107 -2.723398
vt 0.466107 2.382706
vt 0.466107 -2.723398
vt 0.506107 2.382706
vt 0.506107 -2.723398
vt 0.546107 2.382706
vt 0.546107 -2.723398
vt 0.586107 2.382706
vt 0.586107 -2.723398
vt 0.626107 2.382706
vt 0.626107 -2.723398
vt 0.666107 2.382706
vt 0.666107 -2.723398
vt 0.266107 3.268913
vt 0.306107 3.268913
vt 0.346107 3.268913
vt 0.386107 3.268913
vt 0.426107 3.268913
vt 0.466107 3.268913
vt 0.506107 3.268913
vt 0.546107 3.268913
vt 0.586107 3.268913
vt 0.626107 3.268913
vt 0.666107 3.268913
vt 0.266107 6.459629
vt 0.306107 6.459629
vt 0.346107 6.459629
vt 0.386107 6.459629
vt 0.426107 6.459629
vt 0.466107 6.459629
vt 0.506107 6.459629
vt 0.546107 6.459629
vt 0.586107 6.459629
vt 0.626107 6.459629
vt 0.666107 6.459629
vt 0.266107 7.104427
vt 0.306107 7.104427
vt 0.346107 7.104427
vt 0.386107 7.104427
vt 0.426107 7.104427
vt 0.466107 7.104427
vt 0.506107 7.104427
vt 0.546107 7.104427
vt 0.586107 7.104427
vt 0.626107 7.104427
vt 0.666107 7.104427
vt 0.266107 7.790695
vt 0.306107 7.790695
vt 0.346107 7.790695
vt 0.386107 7.790695
vt 0.426107 7.790695
vt 0.466107 7.790695
vt 0.506107 7.790695
vt 0.546107 7.790695
vt 0.586107 7.790695
vt 0.626107 7.790695
vt 0.666107 7.790695
vt 0.266107 10.431805
vt 0.306107 10.431805
vt 0.346107 10.431805
vt 0.386107 10.431805
vt 0.426107 10.431805
vt 0.466107 10.431805
vt 0.506107 10.431805
vt 0.546107 10.431805
vt 0.586107 10.431805
vt 0.626107 10.431805
vt 0.666107 10.431805
vt 0.266107 11.062817
vt 0.306107 11.062817
vt 0.346107 11.062817
vt 0.386107 11.062817
vt 0.426107 11.062817
vt 0.466107 11.062817
vt 0.506107 11.062817
vt 0.546107 11.062817
vt 0.586107 11.062817
vt 0.626107 11.062817
vt 0.666107 11.062817
vt 0.266107 11.720219
vt 0.306107 11.720219
vt 0.346107 11.720219
vt 0.386107 11.720219
vt 0.426107 11.720219
vt 0.466107 11.720219
vt 0.506107 11.720219
vt 0.546107 11.720219
vt 0.586107 11.720219
vt 0.626107 11.720219
vt 0.666107 11.720219
vt 0.030369 0.000000
vt 1.000000 0.980477
vt 1.000000 0.000000
vt 0.000000 0.986985
s 1
usemtl Bark
f 1/1/1 2/2/2 3/3/3
f 4/4/4 3/3/3 2/2/2
f 3/3/3 4/4/4 5/5/5
f 6/6/6 5/5/5 4/4/4
f 5/5/5 6/6/6 7/7/7
f 8/8/8 7/7/7 6/6/6
f 7/7/7 8/8/8 9/9/9
f 10/10/10 9/9/9 8/8/8
f 9/9/9 10/10/10 11/11/11
f 12/12/12 11/11/11 10/10/10
f 11/11/11 12/12/12 13/13/13
f 14/14/14 13/13/13 12/12/12
f 13/13/13 14/14/14 15/15/15
f 16/16/16 15/15/15 14/14/14
f 15/15/15 16/16/16 17/17/17
f 18/18/18 17/17/17 16/16/16
f 17/17/17 18/18/18 19/19/19
f 20/20/20 19/19/19 18/18/18
f 19/19/19 20/20/20 1/21/1
f 2/22/2 1/21/1 20/20/20
f 21/23/21 1/1/1 22/24/22
f 3/3/3 22/24/22 1/1/1
f 22/24/22 3/3/3 23/25/23
f 5/5/5 23/25/23 3/3/3
f 23/25/23 5/5/5 24/26/24
f 7/7/7 24/26/24 5/5/5
f 24/26/24 7/7/7 25/27/25
f 9/9/9 25/27/25 7/7/7
f 25/27/25 9/9/9 26/28/26
f 11/11/11 26/28/26 9/9/9
f 26/28/26 11/11/11 27/29/27
f 13/13/13 27/29/27 11/11/11
f 27/29/27 13/13/13 28/30/28
f 15/15/15 28/30/28 13/13/13
f 28/30/28 15/15/15 29/31/29
f 17/17/17 29/31/29 15/15/15
f 29/31/29 17/17/17 30/32/30
f 19/19/19 30/32/30 17/17/17
f 30/32/30 19/19/19 21/33/21
f 1/21/1 21/33/21 19/19/19
f 31/34/31 21/23/21 32/35/32
f 22/24/22 32/35/32 21/23/21
f 32/35/32 22/24/22 33/36/33
f 23/25/23 33/36/33 22/24/22
f 33/36/33 23/25/23 34/37/34
f 24/26/24 34/37/34 23/25/23
f 34/37/34 24/26/24 35/38/35
f 25/27/25 35/38/35 24/26/24
f 35/38/35 25/27/25 36/39/36
f 26/28/26 36/39/36 25/27/25
f 36/39/36 26/28/26 37/40/37
f 27/29/27 37/40/37 26/28/26
f 37/40/37 27/29/27 38/41/38
f 28/30/28 38/41/38 27/29/27
f 38/41/38 28/30/28 39/42/39
f 29/31/29 39/42/39 28/30/28
f 39/42/39 29/31/29 40/43/40
f 30/32/30 40/43/40 29/31/29
f 40/43/40 30/32/30 31/44/31
f 21/33/21 31/44/31 30/32/30
f 41/45/41 31/34/31 42/46/42
f 32/35/32 42/46/42 31/34/31
f 42/46/42 32/35/32 43/47/43
f 33/36/33 43/47/43 32/35/32
f 43/47/43 33/36/33 44/48/44
f 34/37/34 44/48/44 33/36/33
f 44/48/44 34/37/34 45/49/45
f 35/38/35 45/49/45 34/37/34
f 45/49/45 35/38/35 46/50/46
f 36/39/36 46/50/46 35/38/35
f 46/50/46 36/39/36 47/51/47
f 37/40/37 47/51/47 36/39/36
f 47/51/47 37/40/37 48/52/48
f 38/41/38 48/52/48 37/40/37
f 48/52/48 38/41/38 49/53/49
f 39/42/39 49/53/49 38/41/38
f 49/53/49 39/42/39 50/54/50
f 40/43/40 50/54/50 39/42/39
f 50/54/50 40/43/40 41/55/41
f 31/44/31 41/55/41 40/43/40
f 51/56/51 41/45/41 52/57/52
f 42/46/42 52/57/52 41/45/41
f 52/57/52 42/46/42 53/58/53
f 43/47/43 53/58/53 42/46/42
f 53/58/53 43/47/43 54/59/54
f 44/48/44 54/59/54 43/47/43
f 54/59/54 44/48/44 55/60/55
f 45/49/45 55/60/55 44/48/44
f 55/60/55 45/49/45 56/61/56
f 46/50/46 56/61/56 45/49/45
f 56/61/56 46/50/46 57/62/57
f 47/51/47 57/62/57 46/50/46
f 57/62/57 47/51/47 58/63/58
f 48/52/48 58/63/58 47/51/47
f 58/63/58 48/52/48 59/64/59
f 49/53/49 59/64/59 48/52/48
f 59/64/59 49/53/49 60/65/60
f 50/54/50 60/65/60 49/53/49
f 60/65/60 50/54/50 51/66/51
f 41/55/41 51/66/51 50/54/50
f 61/67/61 51/56/51 62/68/62
f 52/57/52 62/68/62 51/56/51
f 62/68/62 52/57/52 63/69/63
f 53/58/53 63/69/63 52/57/52
f 63/69/63 53/58/53 64/70/64
f 54/59/54 64/70/64 53/58/53
f 64/70/64 54/59/54 65/71/65
f 55/60/55 65/71/65 54/59/54
f 65/71/65 55/60/55 66/72/66
f 56/61/56 66/72/66 55/60/55
f 66/72/66 56/61/56 67/73/67
f 57/62/57 67/73/67 56/61/56
f 67/73/67 57/62/57 68/74/68
f 58/63/58 68/74/68 57/62/57
f 68/74/68 58/63/58 69/75/69
f 59/64/59 69/75/69 58/63/58
f 69/75/69 59/64/59 70/76/70
f 60/65/60 70/76/70 59/64/59
f 70/76/70 60/65/60 61/77/61
f 51/66/51 61/77/61 60/65/60
f 71/78/71 61/67/61 72/79/72
f 62/68/62 72/79/72 61/67/61
f 72/79/72 62/68/62 73/80/73
f 63/69/63 73/80/73 62/68/62
f 73/80/73 63/69/63 74/81/74
f 64/70/64 74/81/74 63/69/63
f 74/81/74 64/70/64 75/82/75
f 65/71/65 75/82/75 64/70/64
f 75/82/75 65/71/65 76/83/76
f 66/72/66 76/83/76 65/71/65
f 76/83/76 66/72/66 77/84/77
f 67/73/67 77/84/77 66/72/66
f 77/84/77 67/73/67 78/85/78
f 68/74/68 78/85/78 67/73/67
f 78/85/78 68/74/68 79/86/79
f 69/75/69 79/86/79 68/74/68
f 79/86/79 69/75/69 80/87/80
f 70/76/70 80/87/80 69/75/69
f 80/87/80 70/76/70 71/88/71
f 61/77/61 71/88/71 70/76/70
f 81/89/81 71/78/71 82/90/82
f 72/79/72 82/90/82 71/78/71
f 82/90/82 72/79/72 83/91/83
f 73/80/73 83/91/83 72/79/72
f 83/91/83 73/80/73 84/92/84
f 74/81/74 84/92/84 73/80/73
f 84/92/84 74/81/74 85/93/85
f 75/82/75 85/93/85 74/81/74
f 85/93/85 75/82/75 86/94/86
f 76/83/76 86/94/86 75/82/75
f 86/94/86 76/83/76 87/95/87
f 77/84/77 87/95/87 76/83/76
f 87/95/87 77/84/77 88/96/88
f 78/85/78 88/96/88 77/84/77
f 88/96/88 78/85/78 89/97/89
f 79/86/79 89/97/89 78/85/78
f 89/97/89 79/86/79 90/98/90
f 80/87/80 90/98/90 79/86/79
f 90/98/90 80/87/80 81/99/81
f 71/88/71 81/99/81 80/87/80
usemtl Leaf
f 91/100/91 92/101/92 93/102/93
f 91/100/91 94/103/94 92/101/92
f 95/100/95 96/101/96 97/102/97
f 95/100/95 98/103/98 96/101/96
f 99/100/99 100/102/100 101/101/101
f 99/100/99 101/101/101 102/103/102
f 103/100/103 104/102/104 105/101/105
f 103/100/103 105/101/105 106/103/106
f 107/100/107 108/102/108 109/101/109
f 107/100/107 109/101/109 110/103/110
f 111/100/111 112/101/112 113/102/113
f 111/100/111 114/103/114 112/101/112
f 115/100/115 116/102/116 117/101/117
f 115/100/115 117/101/117 118/103/118
f 119/100/119 120/102/120 121/101/121
f 119/100/119 121/101/121 122/103/122
f 123/100/123 124/102/124 125/101/125
f 123/100/123 125/101/125 126/103/126
f 127/100/127 128/101/128 129/102/129
f 127/100/127 130/103/130 128/101/128
f 131/100/131 132/101/132 133/102/133
f 131/100/131 134/103/134 132/101/132
f 135/100/135 136/102/136 137/101/137
f 135/100/135 137/101/137 138/103/138
f 139/100/139 140/102/140 141/101/141
f 139/100/139 141/101/141 142/103/142
f 143/100/143 144/101/144 145/102/145
f 143/100/143 146/103/146 144/101/144
f 147/100/147 148/101/148 149/102/149
f 147/100/147 150/103/150 148/101/148
f 151/100/151 152/101/152 153/102/153
f 151/100/151 154/103/154 152/101/152
f 155/100/155 156/102/156 157/101/157
f 155/100/155 157/101/157 158/103/158
f 159/100/159 160/101/160 161/102/161
f 159/100/159 162/103/162 160/101/160
f 163/100/163 164/102/164 165/101/165
f 163/100/163 165/101/165 166/103/166
f 167/100/167 168/102/168 169/101/169
f 167/100/167 169/101/169 170/103/170
f 171/100/171 172/101/172 173/102/173
f 171/100/171 174/103/174 172/101/172
f 175/100/175 176/101/176 177/102/177
f 175/100/175 178/103/178 176/101/176
f 179/100/179 180/102/180 181/101/181
f 179/100/179 181/101/181 182/103/182
f 183/100/183 184/101/184 185/102/185
f 183/100/183 186/103/186 184/101/184
f 187/100/187 188/102/188 189/101/189
f 187/100/187 189/101/189 190/103/190
f 191/100/191 192/102/192 193/101/193
f 191/100/191 193/101/193 194/103/194
f 195/100/195 196/101/196 197/102/197
f 195/100/195 198/103/198 196/101/196
f 199/100/199 200/101/200 201/102/201
f 199/100/199 202/103/202 200/101/200
f 203/100/203 204/102/204 205/101/205
f 203/100/203 205/101/205 206/103/206
f 207/100/207 208/102/208 209/101/209
f 207/100/207 209/101/209 210/103/210
f 211/100/211 212/102/212 213/101/213
f 211/100/211 213/101/213 214/103/214
f 215/100/215 216/102/216 217/101/217
f 215/100/215 217/101/217 218/103/218
f 219/100/219 220/101/220 221/102/221
f 219/100/219 222/103/222 220/101/220
f 223/100/223 224/102/224 225/101/225
f 223/100/223 225/101/225 226/103/226
f 227/100/227 228/102/228 229/101/229
f 227/100/227 229/101/229 230/103/230
f 231/100/231 232/101/232 233/102/233
f 231/100/231 234/103/234 232/101/232
f 235/100/235 236/102/236 237/101/237
f 235/100/235 237/101/237 238/103/238
f 239/100/239 240/102/240 241/101/241
f 239/100/239 241/101/241 242/103/242
f 243/100/243 244/101/244 245/102/245
f 243/100/243 246/103/246 244/101/244
f 247/100/247 248/101/248 249/102/249
f 247/100/247 250/103/250 248/101/248
f 251/100/251 252/101/252 253/102/253
f 251/100/251 254/103/254 252/101/252
f 255/100/255 256/101/256 257/102/257
f 255/100/255 258/103/258 256/101/256
f 259/100/259 260/102/260 261/101/261
f 259/100/259 261/101/261 262/103/262
f 263/100/263 264/102/264 265/101/265
f 263/100/263 265/101/265 266/103/266
f 267/100/267 268/101/268 269/102/269
f 267/100/267 270/103/270 268/101/268
f 271/100/271 272/102/272 273/101/273
f 271/100/271 273/101/273 274/103/274
f 275/100/275 276/102/276 277/101/277
f 275/100/275 277/101/277 278/103/278
f 279/100/279 280/102/280 281/101/281
f 279/100/279 281/101/281 282/103/282
f 283/100/283 284/101/284 285/102/285
f 283/100/283 286/103/286 284/101/284
f 287/100/287 288/101/288 289/102/289
f 287/100/287 290/103/290 288/101/288
f 291/100/291 292/102/292 293/101/293
f 291/100/291 293/101/293 294/103/294
f 295/100/295 296/101/296 297/102/297
f 295/100/295 298/103/298 296/101/296
f 299/100/299 300/101/300 301/102/301
f 299/100/299 302/103/302 300/101/300
f 303/100/303 304/102/304 305/101/305
f 303/100/303 305/101/305 306/103/306
f 307/100/307 308/102/308 309/101/309
f 307/100/307 309/101/309 310/103/310
f 311/100/311 312/101/312 313/102/313
f 311/100/311 314/103/314 312/101/312
f 315/100/315 316/102/316 317/101/317
f 315/100/315 317/101/317 318/103/318
f 319/100/319 320/102/320 321/101/321
f 319/100/319 321/101/321 322/103/322
f 323/100/323 324/102/324 325/101/325
f 323/100/323 325/101/325 326/103/326
f 327/100/327 328/102/328 329/101/329
f 327/100/327 329/101/329 330/103/330
f 331/100/331 332/102/332 333/101/333
f 331/100/331 333/101/333 334/103/334
f 335/100/335 336/102/336 337/101/337
f 335/100/335 337/101/337 338/103/338
f 339/100/339 340/101/340 341/102/341
f 339/100/339 342/103/342 340/101/340
f 343/100/343 344/101/344 345/102/345
f 343/100/343 346/103/346 344/101/344
f 347/100/347 348/101/348 349/102/349
f 347/100/347 350/103/350 348/101/348
f 351/100/351 352/101/352 353/102/353
f 351/100/351 354/103/354 352/101/352
f 355/100/355 356/102/356 357/101/357
f 355/100/355 357/101/357 358/103/358
f 359/100/359 360/101/360 361/102/361
f 359/100/359 362/103/362 360/101/360
f 363/100/363 364/101/364 365/102/365
f 363/100/363 366/103/366 364/101/364
f 367/100/367 368/102/368 369/101/369
f 367/100/367 369/101/369 370/103/370
f 371/100/371 372/102/372 373/101/373
f 371/100/371 373/101/373 374/103/374
f 375/100/375 376/101/376 377/102/377
f 375/100/375 378/103/378 376/101/376
f 379/100/379 380/101/380 381/102/381
f 379/100/379 382/103/382 380/101/380
f 383/100/383 384/101/384 385/102/385
f 383/100/383 386/103/386 384/101/384
f 387/100/387 388/102/388 389/101/389
f 387/100/387 389/101/389 390/103/390
f 391/100/391 392/101/392 393/102/393
f 391/100/391 394/103/394 392/101/392
f 395/100/395 396/101/396 397/102/397
f 395/100/395 398/103/398 396/101/396
f 399/100/399 400/101/400 401/102/401
f 399/100/399 402/103/402 400/101/400
f 403/100/403 404/101/404 405/102/405
f 403/100/403 406/103/406 404/101/404
f 407/100/407 408/101/408 409/102/409
f 407/100/407 410/103/410 408/101/408
f 411/100/411 412/102/412 413/101/413
f 411/100/411 413/101/413 414/103/414
f 415/100/415 416/102/416 417/101/417
f 415/100/415 417/101/417 418/103/418
f 419/100/419 420/102/420 421/101/421
f 419/100/419 421/101/421 422/103/422
f 423/100/423 424/101/424 425/102/425
f 423/100/423 426/103/426 424/101/424
f 427/100/427 428/101/428 429/102/429
f 427/100/427 430/103/430 428/101/428
f 431/100/431 432/101/432 433/102/433
f 431/100/431 434/103/434 432/101/432
f 435/100/435 436/101/436 437/102/437
f 435/100/435 438/103/438 436/101/436
f 439/100/439 440/101/440 441/102/441
f 439/100/439 442/103/442 440/101/440
f 443/100/443 444/102/444 445/101/445
f 443/100/443 445/101/445 446/103/446
f 447/100/447 448/101/448 449/102/449
f 447/100/447 450/103/450 448/101/448
f 451/100/451 452/101/452 453/102/453
f 451/100/451 454/103/454 452/101/452
f 455/100/455 456/101/456 457/102/457
f 455/100/455 458/103/458 456/101/456
f 459/100/459 460/102/460 461/101/461
f 459/100/459 461/101/461 462/103/462
f 463/100/463 464/101/464 465/102/465
f 463/100/463 466/103/466 464/101/464
f 467/100/467 468/101/468 469/102/469
f 467/100/467 470/103/470 468/101/468
f 471/100/471 472/101/472 473/102/473
f 471/100/471 474/103/474 472/101/472
f 475/100/475 476/101/476 477/102/477
f 475/100/475 478/103/478 476/101/476
f 479/100/479 480/102/480 481/101/481
f 479/100/479 481/101/481 482/103/482
f 483/100/483 484/102/484 485/101/485
f 483/100/483 485/101/485 486/103/486
f 487/100/487 488/102/488 489/101/489
f 487/100/487 489/101/489 490/103/490
f 491/100/491 492/102/492 493/101/493
f 491/100/491 493/101/493 494/103/494
f 495/100/495 496/101/496 497/102/497
f 495/100/495 498/103/498 496/101/496
f 499/100/499 500/101/500 501/102/501
f 499/100/499 502/103/502 500/101/500
f 503/100/503 504/101/504 505/102/505
f 503/100/503 506/103/506 504/101/504
f 507/100/507 508/102/508 509/101/509
f 507/100/507 509/101/509 510/103/510
f 511/100/511 512/101/512 513/102/513
f 511/100/511 514/103/514 512/101/512
f 515/100/515 516/102/516 517/101/517
f 515/100/515 517/101/517 518/103/518
f 519/100/519 520/102/520 521/101/521
f 519/100/519 521/101/521 522/103/522
f 523/100/523 524/102/524 525/101/525
f 523/100/523 525/101/525 526/103/526
f 527/100/527 528/102/528 529/101/529
f 527/100/527 529/101/529 530/103/530
f 531/100/531 532/102/532 533/101/533
f 531/100/531 533/101/533 534/103/534
f 535/100/535 536/101/536 537/102/537
f 535/100/535 538/103/538 536/101/536
f 539/100/539 540/101/540 541/102/541
f 539/100/539 542/103/542 540/101/540
f 543/100/543 544/102/544 545/101/545
f 543/100/543 545/101/545 546/103/546
f 547/100/547 548/101/548 549/102/549
f 547/100/547 550/103/550 548/101/548
f 551/100/551 552/102/552 553/101/553
f 551/100/551 553/101/553 554/103/554
f 555/100/555 556/101/556 557/102/557
f 555/100/555 558/103/558 556/101/556
f 559/100/559 560/101/560 561/102/561
f 559/100/559 562/103/562 560/101/560
f 563/100/563 564/101/564 565/102/565
f 563/100/563 566/103/566 564/101/564
f 567/100/567 568/102/568 569/101/569
f 567/100/567 569/101/569 570/103/570
f 571/100/571 572/102/572 573/101/573
f 571/100/571 573/101/573 574/103/574
f 575/100/575 576/101/576 577/102/577
f 575/100/575 578/103/578 576/101/576
f 579/100/579 580/101/580 581/102/581
f 579/100/579 582/103/582 580/101/580
f 583/100/583 584/101/584 585/102/585
f 583/100/583 586/103/586 584/101/584
f 587/100/587 588/101/588 589/102/589
f 587/100/587 590/103/590 588/101/588
f 591/100/591 592/102/592 593/101/593
f 591/100/591 593/101/593 594/103/594
f 595/100/595 596/101/596 597/102/597
f 595/100/595 598/103/598 596/101/596
f 599/100/599 600/102/600 601/101/601
f 599/100/599 601/101/601 602/103/602
f 603/100/603 604/102/604 605/101/605
f 603/100/603 605/101/605 606/103/606
f 607/100/607 608/101/608 609/102/609
f 607/100/607 610/103/610 608/101/608
f 611/100/611 612/101/612 613/102/613
f 611/100/611 614/103/614 612/101/612
f 615/100/615 616/101/616 617/102/617
f 615/100/615 618/103/618 616/101/616
f 619/100/619 620/101/620 621/102/621
f 619/100/619 622/103/622 620/101/620
f 623/100/623 624/101/624 625/102/625
f 623/100/623 626/103/626 624/101/624
f 627/100/627 628/101/628 629/102/629
f 627/100/627 630/103/630 628/101/628
f 631/100/631 632/102/632 633/101/633
f 631/100/631 633/101/633 634/103/634
f 635/100/635 636/101/636 637/102/637
f 635/100/635 638/103/638 636/101/636
f 639/100/639 640/102/640 641/101/641
f 639/100/639 641/101/641 642/103/642
f 643/100/643 644/102/644 645/101/645
f 643/100/643 645/101/645 646/103/646
f 647/100/647 648/101/648 649/102/649
f 647/100/647 650/103/650 648/101/648
f 651/100/651 652/102/652 653/101/653
f 651/100/651 653/101/653 654/103/654
f 655/100/655 656/101/656 657/102/657
f 655/100/655 658/103/658 656/101/656
f 659/100/659 660/102/660 661/101/661
f 659/100/659 661/101/661 662/103/662
f 663/100/663 664/101/664 665/102/665
f 663/100/663 666/103/666 664/101/664
f 667/100/667 668/101/668 669/102/669
f 667/100/667 670/103/670 668/101/668
f 671/100/671 672/101/672 673/102/673
f 671/100/671 674/103/674 672/101/672
f 675/100/675 676/102/676 677/101/677
f 675/100/675 677/101/677 678/103/678
f 679/100/679 680/102/680 681/101/681
f 679/100/679 681/101/681 682/103/682
f 683/100/683 684/102/684 685/101/685
f 683/100/683 685/101/685 686/103/686
f 687/100/687 688/101/688 689/102/689
f 687/100/687 690/103/690 688/101/688
f 691/100/691 692/101/692 693/102/693
f 691/100/691 694/103/694 692/101/692
f 695/100/695 696/101/696 697/102/697
f 695/100/695 698/103/698 696/101/696
f 699/100/699 700/101/700 701/102/701
f 699/100/699 702/103/702 700/101/700
f 703/100/703 704/101/704 705/102/705
f 703/100/703 706/103/706 704/101/704
f 707/100/707 708/101/708 709/102/709
f 707/100/707 710/103/710 708/101/708
f 711/100/711 712/102/712 713/101/713
f 711/100/711 713/101/713 714/103/714
f 715/100/715 716/101/716 717/102/717
f 715/100/715 718/103/718 716/101/716
f 719/100/719 720/101/720 721/102/721
f 719/100/719 722/103/722 720/101/720
f 723/100/723 724/102/724 725/101/725
f 723/100/723 725/101/725 726/103/726
f 727/100/727 728/101/728 729/102/729
f 727/100/727 730/103/730 728/101/728
f 731/100/731 732/101/732 733/102/733
f 731/100/731 734/103/734 732/101/732
f 735/100/735 736/101/736 737/102/737
f 735/100/735 738/103/738 736/101/736
f 739/100/739 740/101/740 741/102/741
f 739/100/739 742/103/742 740/101/740
f 743/100/743 744/101/744 745/102/745
f 743/100/743 746/103/746 744/101/744
f 747/100/747 748/102/748 749/101/749
f 747/100/747 749/101/749 750/103/750
f 751/100/751 752/101/752 753/102/753
f 751/100/751 754/103/754 752/101/752
f 755/100/755 756/102/756 757/101/757
f 755/100/755 757/101/757 758/103/758
f 759/100/759 760/102/760 761/101/761
f 759/100/759 761/101/761 762/103/762
f 763/100/763 764/102/764 765/101/765
f 763/100/763 765/101/765 766/103/766
f 767/100/767 768/101/768 769/102/769
f 767/100/767 770/103/770 768/101/768
f 771/100/771 772/102/772 773/101/773
f 771/100/771 773/101/773 774/103/774
f 775/100/775 776/101/776 777/102/777
f 775/100/775 778/103/778 776/101/776
f 779/100/779 780/101/780 781/102/781
f 779/100/779 782/103/782 780/101/780
f 783/100/783 784/101/784 785/102/785
f 783/100/783 786/103/786 784/101/784
f 787/100/787 788/101/788 789/102/789
f 787/100/787 790/103/790 788/101/788
f 791/100/791 792/101/792 793/102/793
f 791/100/791 794/103/794 792/101/792
f 795/100/795 796/102/796 797/101/797
f 795/100/795 797/101/797 798/103/798
f 799/100/799 800/102/800 801/101/801
f 799/100/799 801/101/801 802/103/802
f 803/100/803 804/101/804 805/102/805
f 803/100/803 806/103/806 804/101/804
f 807/100/807 808/101/808 809/102/809
f 807/100/807 810/103/810 808/101/808
f 811/100/811 812/102/812 813/101/813
f 811/100/811 813/101/813 814/103/814
f 815/100/815 816/101/816 817/102/817
f 815/100/815 818/103/818 816/101/816
f 819/100/819 820/102/820 821/101/821
f 819/100/819 821/101/821 822/103/822
f 823/100/823 824/101/824 825/102/825
f 823/100/823 826/103/826 824/101/824
f 827/100/827 828/102/828 829/101/829
f 827/100/827 829/101/829 830/103/830
f 831/100/831 832/101/832 833/102/833
f 831/100/831 834/103/834 832/101/832
f 835/100/835 836/102/836 837/101/837
f 835/100/835 837/101/837 838/103/838
f 839/100/839 840/101/840 841/102/841
f 839/100/839 842/103/842 840/101/840
f 843/100/843 844/101/844 845/102/845
f 843/100/843 846/103/846 844/101/844
f 847/100/847 848/101/848 849/102/849
f 847/100/847 850/103/850 848/101/848
f 851/100/851 852/101/852 853/102/853
f 851/100/851 854/103/854 852/101/852
f 855/100/855 856/101/856 857/102/857
f 855/100/855 858/103/858 856/101/856
f 859/100/859 860/101/860 861/102/861
f 859/100/859 862/103/862 860/101/860
f 863/100/863 864/102/864 865/101/865
f 863/100/863 865/101/865 866/103/866
f 867/100/867 868/101/868 869/102/869
f 867/100/867 870/103/870 868/101/868
f 871/100/871 872/101/872 873/102/873
f 871/100/871 874/103/874 872/101/872
f 875/100/875 876/101/876 877/102/877
f 875/100/875 878/103/878 876/101/876
f 879/100/879 880/101/880 881/102/881
f 879/100/879 882/103/882 880/101/880
f 883/100/883 884/102/884 885/101/885
f 883/100/883 885/101/885 886/103/886
f 887/100/887 888/101/888 889/102/889
f 887/100/887 890/103/890 888/101/888
f 891/100/891 892/101/892 893/102/893
f 891/100/891 894/103/894 892/101/892
f 895/100/895 896/101/896 897/102/897
f 895/100/895 898/103/898 896/101/896
f 899/100/899 900/101/900 901/102/901
f 899/100/899 902/103/902 900/101/900
f 903/100/903 904/102/904 905/101/905
f 903/100/903 905/101/905 906/103/906
f 907/100/907 908/101/908 909/102/909
f 907/100/907 910/103/910 908/101/908
